<?xml version="1.0" encoding="utf-8"?>
<!-- Generator: Adobe Illustrator 19.1.0, SVG Export Plug-In . SVG Version: 6.00 Build 0)  -->
<svg version="1.1" id="Layer_1" xmlns="http://www.w3.org/2000/svg" xmlns:xlink="http://www.w3.org/1999/xlink" x="0px" y="0px"
	 viewBox="0 0 250 100" style="enable-background:new 0 0 250 100;" xml:space="preserve">
<style type="text/css">
	.st0{fill:none;}
	.st1{fill:#171617;}
	.st2{fill:url(#New_Pattern_Swatch_1);stroke:#000000;stroke-miterlimit:10;}
	.st3{fill:#FFFFFF;}
	.st4{font-family:'HelveticaNeue';}
	.st5{font-size:35px;}
</style>
<pattern  width="20.3" height="42.6" patternUnits="userSpaceOnUse" id="New_Pattern_Swatch_1" viewBox="0 -42.6 20.3 42.6" style="overflow:visible;">
	<g>
		<polygon class="st0" points="0,0 20.3,0 20.3,-42.6 0,-42.6 		"/>
		<polygon class="st1" points="20.3,0 6.4,0 6.4,-42.6 20.3,-42.6 		"/>
		<polygon points="10.1,0 0,0 0,-42.6 10.1,-42.6 		"/>
	</g>
</pattern>
<path class="st2" d="M225,100H25C15.2,90.2,9.8,84.8,0,75V25C9.8,15.2,15.2,9.8,25,0h200c9.8,9.8,15.2,15.2,25,25v50
	C240.2,84.8,234.8,90.2,225,100z"/>
<text transform="matrix(1 0 0 1 38.1489 40)"><tspan x="0" y="0" class="st3 st4 st5">Challenges</tspan><tspan x="0.3" y="42" class="st3 st4 st5">Completed</tspan></text>
</svg>
