<?xml version="1.0" encoding="utf-8"?>
<!-- Generator: Adobe Illustrator 19.1.0, SVG Export Plug-In . SVG Version: 6.00 Build 0)  -->
<svg version="1.1" id="Layer_1" xmlns="http://www.w3.org/2000/svg" xmlns:xlink="http://www.w3.org/1999/xlink" x="0px" y="0px"
	 viewBox="-73 167.4 101.2 87.6" style="enable-background:new -73 167.4 101.2 87.6;" xml:space="preserve">
<style type="text/css">
	.st0{fill:none;}
	.st1{fill:#111111;}
	.st2{fill:#202020;}
	.st3{fill:url(#SVGID_1_);}
	.st4{fill:none;stroke:#000000;stroke-miterlimit:10;}
	.st5{fill:none;stroke:#58595B;stroke-width:3;stroke-miterlimit:10;}
	.st6{fill:#59595B;}
	.st7{font-family:'HelveticaNeue-Medium';}
	.st8{font-size:71.7388px;}
</style>
<pattern  x="-73" y="255" width="33.5" height="69.7" patternUnits="userSpaceOnUse" id="New_Pattern_Swatch_1" viewBox="0 -69.7 33.5 69.7" style="overflow:visible;">
	<g>
		<polygon class="st0" points="0,0 33.5,0 33.5,-69.7 0,-69.7 		"/>
		<polygon class="st1" points="23.7,0 0,0 0,-69.7 23.7,-69.7 		"/>
		<polygon class="st2" points="33.5,0 16.8,0 16.8,-69.7 33.5,-69.7 		"/>
	</g>
</pattern>
<g>
	
		<pattern  id="SVGID_1_" xlink:href="#New_Pattern_Swatch_1" patternTransform="matrix(0.6124 0.6124 0.6124 -0.6124 -6095.3501 -9900.2607)">
	</pattern>
	<polygon class="st3" points="-47.4,254.5 -72.4,211.2 -47.4,167.9 2.6,167.9 27.6,211.2 2.6,254.5 	"/>
	<polygon class="st4" points="-47.4,254.5 -72.4,211.2 -47.4,167.9 2.6,167.9 27.6,211.2 2.6,254.5 	"/>
</g>
<polygon class="st5" points="-42.4,245.8 -62.4,211.2 -42.4,176.6 -2.4,176.6 17.6,211.2 -2.4,245.8 "/>
<text transform="matrix(1 0 0 1 -42.366 237.0822)" class="st6 st7 st8">?</text>
</svg>
