<?xml version="1.0" encoding="utf-8"?>
<!-- Generator: Adobe Illustrator 19.1.0, SVG Export Plug-In . SVG Version: 6.00 Build 0)  -->
<svg version="1.1" id="Layer_1" xmlns="http://www.w3.org/2000/svg" xmlns:xlink="http://www.w3.org/1999/xlink" x="0px" y="0px"
	 viewBox="-149 0 100 100" style="enable-background:new -149 0 100 100;" xml:space="preserve">
<style type="text/css">
	.st0{fill:none;}
	.st1{fill:#111111;}
	.st2{fill:#202020;}
	.st3{fill:url(#SVGID_1_);}
	.st4{fill:none;stroke:#000000;stroke-miterlimit:10;}
	.st5{fill:none;stroke:#2BB673;stroke-width:3;stroke-miterlimit:10;}
	.st6{fill:none;stroke:#2AB673;stroke-width:3;stroke-miterlimit:10;}
	.st7{fill:#2BB673;}
	.st8{font-family:'HelveticaNeue';}
	.st9{font-size:20.243px;}
</style>
<pattern  x="-149" y="100" width="33.5" height="69.7" patternUnits="userSpaceOnUse" id="SVGID_1_4" viewBox="0 -69.7 33.5 69.7" style="overflow:visible;">
	<g>
		<polygon class="st0" points="0,0 33.5,0 33.5,-69.7 0,-69.7 		"/>
		<g>
			<polygon class="st0" points="0,-69.7 33.5,-69.7 33.5,0 0,0 			"/>
			<polygon class="st1" points="23.7,-69.7 0,-69.7 0,0 23.7,0 			"/>
			<polygon class="st2" points="33.5,-69.7 16.8,-69.7 16.8,0 33.5,0 			"/>
		</g>
	</g>
</pattern>
<g>
	<pattern  id="SVGID_1_" xlink:href="#SVGID_1_4" patternTransform="matrix(0.6124 0.6124 -0.6124 0.6124 -20690.4473 21667.125)">
	</pattern>
	<polygon class="st3" points="-123.4,93.5 -148.4,50.2 -123.4,6.9 -73.4,6.9 -48.4,50.2 -73.4,93.5 	"/>
	<polygon class="st4" points="-123.4,93.5 -148.4,50.2 -123.4,6.9 -73.4,6.9 -48.4,50.2 -73.4,93.5 	"/>
</g>
<g>
	<polygon class="st5" points="-119,84.6 -139,50 -119,15.4 -79,15.4 -59,50 -79,84.6 	"/>
	<line class="st6" x1="-125.1" y1="59" x2="-72.9" y2="59"/>
	<text transform="matrix(1 0 0 1 -110.2548 79.5346)" class="st7 st8 st9">19</text>
</g>
</svg>
