<?xml version="1.0" encoding="utf-8"?>
<!-- Generator: Adobe Illustrator 19.2.1, SVG Export Plug-In . SVG Version: 6.00 Build 0)  -->
<svg version="1.1" id="Layer_1" xmlns="http://www.w3.org/2000/svg" xmlns:xlink="http://www.w3.org/1999/xlink" x="0px" y="0px"
	 viewBox="0 0 99 160.1" style="enable-background:new 0 0 99 160.1;" xml:space="preserve">
<style type="text/css">
	.st0{fill:#989798;stroke:#020202;stroke-miterlimit:10;}
	.st1{fill:#818AC4;}
	.st2{opacity:0.7;}
	.st3{opacity:0.94;fill:#CFCCCC;stroke:#020202;stroke-miterlimit:10;enable-background:new    ;}
	.st4{opacity:0.94;fill:#989798;stroke:#020202;stroke-miterlimit:10;enable-background:new    ;}
	.st5{fill:#CFCCCC;stroke:#020202;stroke-miterlimit:10;}
</style>
<path id="rect5002-4_1_" class="st0" d="M22.3,7.6C17.9,7.6,14.9,8,10.5,9c-2.8,0.6-6.2,0.9-8.9,1.8c-0.8,0.3-1.7,1.1-1.6,2.1
	c0.1,1.1,1.2,1.9,2.2,2c3.1,0.8,6.4,1,9.6,1.2c5.1,0.2,10.2,0.3,15.3,0.2c3-0.1,6.1-0.5,8.8-1.8c1.2-1,1.4-3,0.7-4.3
	c-0.6-1-1.8-1.5-2.9-1.8C30.2,7.2,25.2,7.7,22.3,7.6z"/>
<path class="st1" d="M86.5,123.5L86.5,123.5L86.5,123.5c0-3.6-11-6.4-24.6-6.4s-24.5,3-24.5,6.6h-0.2h0.2c0,8.8,18.1,36.4,24.7,36.4
	C68.6,159.9,86.6,132.2,86.5,123.5L86.5,123.5L86.5,123.5z"/>
<g id="g4978-0_2_" transform="translate(-94.285671,-394.28571)" class="st2">
	<path id="path4980-6_2_" class="st3" d="M130.1,408.5v108.6h0.1c0,9,19.1,37.2,25.9,37.2c6.9,0,26-28.2,25.9-37.2h0.2V408.5H130.1z
		"/>
	<path id="path4984-5_2_" class="st4" d="M131.4,438.4H159v4.6h-27.6V438.4z"/>
	<path id="path4986-9_2_" class="st4" d="M131.4,463.6h26.5v4.6h-26.5V463.6z"/>
	<path id="ellipse4988-9_1_" class="st5" d="M181,405c0,3.8-11.3,6.9-25.1,6.9c-13.9,0-25.1-3.1-25.1-6.9"/>
</g>
<path class="st0" d="M88.3,17.6H35.6c-2.4,0-4.4-2-4.4-4.4v-2.5c0-2.4,2-4.4,4.4-4.4h52.6c2.4,0,4.4,2,4.4,4.4v2.5
	C92.6,15.7,90.7,17.6,88.3,17.6z"/>
</svg>
