<?xml version="1.0" encoding="utf-8"?>
<!-- Generator: Adobe Illustrator 19.2.1, SVG Export Plug-In . SVG Version: 6.00 Build 0)  -->
<svg version="1.1" id="Layer_1" xmlns="http://www.w3.org/2000/svg" xmlns:xlink="http://www.w3.org/1999/xlink" x="0px" y="0px"
	 viewBox="0 0 92.6 32.6" style="enable-background:new 0 0 92.6 32.6;" xml:space="preserve">
<style type="text/css">
	.st0{fill:#989798;stroke:#020202;stroke-miterlimit:10;}
	.st1{opacity:0.33;fill:#8D8D99;stroke:#020202;stroke-miterlimit:10;enable-background:new    ;}
</style>
<path id="rect5002-4_1_" class="st0" d="M22.3,1.3c-4.4,0-7.4,0.4-11.8,1.4C7.7,3.3,4.3,3.6,1.6,4.5C0.8,4.8-0.1,5.6,0,6.6
	c0.1,1.1,1.2,1.9,2.2,2c3.1,0.8,6.4,1,9.6,1.2C16.9,10,22,10.1,27.1,10c3-0.1,6.1-0.5,8.8-1.8c1.2-1,1.4-3,0.7-4.3
	c-0.6-1-1.8-1.5-2.9-1.8C30.2,0.9,25.2,1.4,22.3,1.3z"/>
<path id="rect4992-4_2_" class="st1" d="M68.9,32.6H53.3c-7.7,0-14-3.2-14-7.1v-14c0-3.9,6.3-7.1,14-7.1h15.6c7.7,0,14,3.2,14,7.1
	v14C82.9,29.4,76.6,32.6,68.9,32.6z"/>
<path class="st0" d="M88.3,11.3H35.6c-2.4,0-4.4-2-4.4-4.4V4.4c0-2.4,2-4.4,4.4-4.4h52.6c2.4,0,4.4,2,4.4,4.4v2.5
	C92.6,9.4,90.7,11.3,88.3,11.3z"/>
</svg>
