<?xml version="1.0" encoding="utf-8"?>
<!-- Generator: Adobe Illustrator 19.2.1, SVG Export Plug-In . SVG Version: 6.00 Build 0)  -->
<svg version="1.1" id="Layer_1" xmlns="http://www.w3.org/2000/svg" xmlns:xlink="http://www.w3.org/1999/xlink" x="0px" y="0px"
	 viewBox="0 0 107.1 155.4" style="enable-background:new 0 0 107.1 155.4;" xml:space="preserve">
<style type="text/css">
	.st0{fill:#989798;stroke:#010101;stroke-miterlimit:10;}
	.st1{fill:#818AC4;}
	.st2{opacity:0.7;}
	.st3{opacity:0.94;fill:#CECCCC;stroke:#010101;stroke-miterlimit:10;enable-background:new    ;}
	.st4{opacity:0.94;fill:#989798;stroke:#010101;stroke-miterlimit:10;enable-background:new    ;}
	.st5{fill:#CECCCC;stroke:#010101;stroke-miterlimit:10;}
	.st6{opacity:0.33;fill:#8D8D99;stroke:#010101;stroke-miterlimit:10;enable-background:new    ;}
</style>
<path id="rect5002-4_1_" class="st0" d="M25.4,3C21,3,18,3.4,13.6,4.4C10.8,5,7.4,5.3,4.7,6.2C3.9,6.5,3,7.3,3.1,8.3
	c0.1,1.1,1.2,1.9,2.2,2c3.1,0.8,6.4,1,9.6,1.2c5.1,0.2,10.2,0.3,15.3,0.2c3-0.1,6.1-0.5,8.8-1.8c1.2-1,1.4-3,0.7-4.3
	c-0.6-1-1.8-1.5-2.9-1.8C33.3,2.6,28.3,3.1,25.4,3z"/>
<path class="st1" d="M89.6,118.9L89.6,118.9L89.6,118.9c0-3.6-11-6.4-24.6-6.4s-24.5,3-24.5,6.6h-0.2h0.2c0,8.8,18.1,36.4,24.7,36.4
	C71.7,155.3,89.7,127.6,89.6,118.9L89.6,118.9L89.6,118.9z"/>
<g id="g4978-0_2_" transform="translate(-94.285671,-394.28571)" class="st2">
	<path id="path4980-6_2_" class="st3" d="M133.2,403.9v108.6h0.1c0,9,19.1,37.2,25.9,37.2c6.9,0,26-28.2,25.9-37.2h0.2V403.9H133.2z
		"/>
	<path id="path4984-5_2_" class="st4" d="M134.5,433.8h27.6v4.6h-27.6V433.8z"/>
	<path id="path4986-9_2_" class="st4" d="M134.5,459H161v4.6h-26.5V459z"/>
	<path id="ellipse4988-9_1_" class="st5" d="M184.1,400.4c0,3.8-11.3,6.9-25.1,6.9c-13.9,0-25.1-3.1-25.1-6.9"/>
</g>
<path id="rect4992-4_2_" class="st6" d="M72,34.3H56.4c-7.7,0-14-3.2-14-7.1v-14c0-3.9,6.3-7.1,14-7.1H72c7.7,0,14,3.2,14,7.1v14
	C86,31.1,79.7,34.3,72,34.3z"/>
<path class="st0" d="M91.4,13H38.7c-2.4,0-4.4-2-4.4-4.4V6.1c0-2.4,2-4.4,4.4-4.4h52.6c2.4,0,4.4,2,4.4,4.4v2.5
	C95.7,11.1,93.8,13,91.4,13z"/>
</svg>
