<?xml version="1.0" encoding="utf-8"?>
<!-- Generator: Adobe Illustrator 19.2.1, SVG Export Plug-In . SVG Version: 6.00 Build 0)  -->
<svg version="1.1" id="Layer_1" xmlns="http://www.w3.org/2000/svg" xmlns:xlink="http://www.w3.org/1999/xlink" x="0px" y="0px"
	 viewBox="0 0 218.7 361.7" style="enable-background:new 0 0 218.7 361.7;" xml:space="preserve">
<style type="text/css">
	.st0{opacity:0.4;fill:#9AD1F1;enable-background:new    ;}
	.st1{fill:none;stroke:#010101;stroke-width:3;stroke-linecap:round;}
	.st2{fill:#FFFFFF;}
	.st3{fill:none;stroke:#010101;stroke-width:3;}
	.st4{font-family:'MyriadPro-Regular';}
	.st5{font-size:12px;}
</style>
<path class="st0" d="M158.1,176.2l53.7,159.9c4.4,7.6-1.1,17.2-9.9,17.2H17.3c-8.8,0-14.3-9.5-9.9-17.2l53.4-159.9
	C65.2,168.6,153.7,168.6,158.1,176.2z"/>
<path id="path3151" class="st1" d="M197.3,293.5h-42.8"/>
<path id="path3151_3_" class="st1" d="M176.7,237.7h-46.3"/>
<ellipse class="st2" cx="109.6" cy="179.4" rx="48.4" ry="23"/>
<path id="path3151_4_" class="st1" d="M156.2,179.5h-37.4"/>
<path class="st1" d="M128.8,19.9H90.5c-2.6,0-4.7-2.1-4.7-4.7l0,0c0-2.6,2.1-4.7,4.7-4.7h38.3c2.6,0,4.7,2.1,4.7,4.7l0,0
	C133.4,17.8,131.3,19.9,128.8,19.9z"/>
<path class="st2" d="M156.6,195.1H64.1c-2.9,0-5.2-2.3-5.2-5.2l0,0c0-2.9,2.3-5.2,5.2-5.2h92.5c2.9,0,5.2,2.3,5.2,5.2l0,0
	C161.8,192.7,159.5,195.1,156.6,195.1z"/>
<g id="layer1">
	<path id="path3151_2_" class="st1" d="M155.1,325.9"/>
	<path id="path3151_1_" class="st1" d="M208.8,325.9"/>
	<path id="path3153_1_" class="st1" d="M184,255.5"/>
	<path id="path3157" class="st3" d="M84.8,15.2c4.1,4.1,4.1,4.1,4.1,8.3v62.1c0,29-82.6,248.5-82.6,248.5
		c-4.1,16.6,8.3,20.7,20.7,20.7h165.3c12.4,0,24.8-4.1,20.7-20.7c0,0-82.6-219.5-82.6-248.5V23.5c0-4.1,0-4.1,4.1-8.3"/>
</g>
<ellipse class="st2" cx="109.3" cy="196.1" rx="44.2" ry="6.2"/>
<text transform="matrix(1 0 0 1 167.3061 290.2235)" class="st4 st5">100</text>
<text transform="matrix(1 0 0 1 144.6132 234.5886)" class="st4 st5">200</text>
<text transform="matrix(1 0 0 1 127.4095 176.0253)" class="st4 st5">300</text>
</svg>
