<?xml version="1.0" encoding="utf-8"?>
<!-- Generator: Adobe Illustrator 19.2.1, SVG Export Plug-In . SVG Version: 6.00 Build 0)  -->
<svg version="1.1" id="Layer_1" xmlns="http://www.w3.org/2000/svg" xmlns:xlink="http://www.w3.org/1999/xlink" x="0px" y="0px"
	 viewBox="0 0 387.3 390.3" style="enable-background:new 0 0 387.3 390.3;" xml:space="preserve">
<style type="text/css">
	.st0{fill:#CED0DA;stroke:#000000;stroke-width:0.25;stroke-miterlimit:10;}
	.st1{opacity:0.6;fill:#397EC1;stroke:#000000;stroke-miterlimit:10;}
	.st2{fill:#3A51A3;stroke:#000000;stroke-miterlimit:10;}
	.st3{opacity:0.75;fill:#E5F5FD;stroke:#000000;stroke-width:0.25;stroke-miterlimit:10;}
	.st4{opacity:0.4;fill:#B5DEF6;stroke:#000000;stroke-miterlimit:10;}
	.st5{fill:#FFFFFF;stroke:#000000;stroke-width:0.25;stroke-miterlimit:10;}
	.st6{opacity:0.9;fill:#3A6AB3;stroke:#000000;stroke-miterlimit:10;}
	.st7{fill:#060A0D;}
	.st8{fill:#E5F5FD;}
	.st9{stroke:#000000;stroke-miterlimit:10;}
	.st10{fill:#E73E25;stroke:#EF3825;stroke-miterlimit:10;}
	.st11{opacity:0.2;fill:#B6E4F5;stroke:#000000;stroke-miterlimit:10;}
	.st12{fill:#E73E25;}
</style>
<path class="st0" d="M257.9,81.5h-29.1c-1,0-1.8-0.8-1.8-1.8v-1.5c0-1,0.8-1.8,1.8-1.8h29.1c1,0,1.8,0.8,1.8,1.8v1.5
	C259.6,80.7,258.8,81.5,257.9,81.5z"/>
<g>
	<rect x="41.5" y="99.2" class="st1" width="175.7" height="198.5"/>
	<rect x="48.9" y="107.2" class="st2" width="17.8" height="6.3"/>
	<rect x="72.8" y="107.2" class="st2" width="17.8" height="6.3"/>
	<rect x="96.6" y="107.2" class="st2" width="17.8" height="6.3"/>
	<rect x="120.5" y="107.2" class="st2" width="17.8" height="6.3"/>
	<rect x="144.3" y="107.2" class="st2" width="17.8" height="6.3"/>
	<rect x="168.1" y="107.2" class="st2" width="17.8" height="6.3"/>
	<rect x="192" y="107.2" class="st2" width="17.8" height="6.3"/>
</g>
<path class="st3" d="M247.5,87.1h-16.4c-2.2,0-4.1-1.8-4.1-4.1v-6.7c0-2.2,1.8-4.1,4.1-4.1h16.4c2.2,0,4.1,1.8,4.1,4.1V83
	C251.6,85.3,249.7,87.1,247.5,87.1z"/>
<rect x="31.8" y="297.7" class="st4" width="194.6" height="64.7"/>
<rect x="31.8" y="33.6" class="st4" width="194.6" height="65.6"/>
<g>
	<path class="st0" d="M257.2,335.2h-29.1c-1,0-1.8-0.8-1.8-1.8v-1.5c0-1,0.8-1.8,1.8-1.8h29.1c1,0,1.8,0.8,1.8,1.8v1.5
		C259,334.4,258.2,335.2,257.2,335.2z"/>
	<path class="st3" d="M246.8,340.1h-16.4c-2.2,0-4.1-1.8-4.1-4.1v-6.7c0-2.2,1.8-4.1,4.1-4.1h16.4c2.2,0,4.1,1.8,4.1,4.1v6.7
		C250.9,338.2,249.1,340.1,246.8,340.1z"/>
	<path class="st5" d="M224.3,341.3L224.3,341.3c-0.7,0-1.4-0.6-1.4-1.4v-14.5c0-0.7,0.6-1.4,1.4-1.4l0,0c0.7,0,1.4,0.6,1.4,1.4v14.5
		C225.7,340.7,225.1,341.3,224.3,341.3z"/>
</g>
<path class="st6" d="M18.8,24.7v347.5h220.6V24.7H18.8z M226.3,362.9H31.8V34h194.5V362.9z"/>
<g>
	<rect x="231.5" y="278.8" class="st7" width="4.2" height="13.1"/>
	
		<rect x="231.5" y="278.8" transform="matrix(-1.836970e-16 1 -1 -1.836970e-16 518.8397 51.7718)" class="st7" width="4.2" height="13.1"/>
</g>
<path class="st5" d="M225.6,88.5L225.6,88.5c-0.7,0-1.4-0.6-1.4-1.4V72.6c0-0.7,0.6-1.4,1.4-1.4h0c0.7,0,1.4,0.6,1.4,1.4v14.5
	C227,87.8,226.4,88.5,225.6,88.5z"/>
<rect x="231.1" y="115.1" transform="matrix(-1.836970e-16 1 -1 -1.836970e-16 353.7859 -111.8713)" class="st7" width="3.5" height="11.7"/>
<rect x="31.8" y="99.2" class="st8" width="9.7" height="198.5"/>
<rect x="217.2" y="99.2" class="st8" width="9.7" height="198.5"/>
<rect x="124.2" y="-67.7" transform="matrix(-4.400410e-11 1 -1 -4.400410e-11 158.6377 -99.4378)" class="st8" width="9.7" height="194.5"/>
<rect x="124.2" y="270" transform="matrix(-4.400410e-11 1 -1 -4.400410e-11 496.3615 238.286)" class="st8" width="9.7" height="194.5"/>
<g>
	<g>
		<path class="st9" d="M279.7,81.4h-25.8c-1.5,0-2.7-1.2-2.7-2.7l0,0c0-1.5,1.2-2.7,2.7-2.7h25.8c1.5,0,2.7,1.2,2.7,2.7l0,0
			C282.4,80.1,281.2,81.4,279.7,81.4z"/>
		<rect x="251.1" y="75.9" class="st9" width="5.6" height="5.4"/>
	</g>
	<g>
		<g>
			<path class="st10" d="M279.3,336.7h-25c-1.7,0-3.1-1.4-3.1-3.1l0,0c0-1.7,1.4-3.1,3.1-3.1h25c1.7,0,3.1,1.4,3.1,3.1l0,0
				C282.4,335.3,281,336.7,279.3,336.7z"/>
		</g>
		<rect x="251.1" y="330.5" class="st10" width="5.6" height="6.2"/>
	</g>
	<rect x="10.3" y="13.6" class="st11" width="247.6" height="364.3"/>
	<g>
		<g>
			<path class="st12" d="M279.4,336c13.3,0.8,25.4-8.4,29.8-20.7c2.5-6.9,1.4-15.1,5.1-21.6c4-7.2,13.1-7.8,20.2-10
				c12.4-3.9,22.1-14.2,24.7-27.1c1.7-8.5-2.3-17.6,1.9-25.5c1.8-3.5,4.3-6.8,6.5-10.1c2.3-3.5,6.2-12.3,11.4-11.3
				c3.1,0.6,4.5-4.2,1.3-4.8c-6.8-1.3-10.8,4.1-14.2,9.2c-4.3,6.4-10.5,13.5-11.9,21.3c-0.8,4.5,0.6,9,0.7,13.5
				c0.1,3.6-0.5,7.2-1.7,10.6c-2.6,7.5-8.2,14.1-15.4,17.6c-6.3,3.1-13.7,3.4-19.9,6.7c-6,3.2-9.2,8.6-10.6,15.2
				c-1.7,8.1-1.8,15.9-7.3,22.6c-5.1,6.2-12.5,9.9-20.6,9.4C276.2,330.8,276.2,335.8,279.4,336L279.4,336z"/>
		</g>
	</g>
	<g>
		<g>
			<path class="st7" d="M279.4,81c8.8,0.7,17.3-3.6,22.5-10.7c2.6-3.5,4.2-7.6,4.6-12c0.6-6.4-2.2-13.3,4.5-17.3
				c9-5.3,20.4-0.3,29.9-4.5c9-4,12.1-13.9,16.7-21.7c1.6-2.8-2.7-5.3-4.3-2.5c-4.8,8.2-7.8,19-18.5,20.9
				c-8.9,1.6-18.1-1.1-26.3,3.6c-2.7,1.5-5,3.8-6.2,6.7c-2,4.9-0.2,10.1-0.9,15.2c-1.4,10.5-11.7,18.1-22,17.3
				C276.2,75.8,276.2,80.8,279.4,81L279.4,81z"/>
		</g>
	</g>
	<rect x="249.5" y="13.6" class="st11" width="8.7" height="364.3"/>
</g>
</svg>
