<?xml version="1.0" encoding="utf-8"?>
<!-- Generator: Adobe Illustrator 19.2.1, SVG Export Plug-In . SVG Version: 6.00 Build 0)  -->
<svg version="1.1" id="Layer_1" xmlns="http://www.w3.org/2000/svg" xmlns:xlink="http://www.w3.org/1999/xlink" x="0px" y="0px"
	 viewBox="0 0 223.4 165.6" style="enable-background:new 0 0 223.4 165.6;" xml:space="preserve">
<style type="text/css">
	.st0{fill:#FFFFFF;stroke:#010101;stroke-miterlimit:10;enable-background:new    ;}
	.st1{opacity:0.6;fill:#3A7FC2;stroke:#010101;stroke-miterlimit:10;enable-background:new    ;}
	.st2{fill:#3B52A3;stroke:#010101;stroke-miterlimit:10;}
	.st3{fill:#FFFFFF;stroke:#010101;stroke-miterlimit:10;}
</style>
<rect x="13.5" y="0" transform="matrix(1 -1.393921e-03 1.393921e-03 1 -0.1151 0.1571)" class="st0" width="198.3" height="165.3"/>
<g>
	<g>
		
			<rect x="13.3" y="0.2" transform="matrix(1 -1.393921e-03 1.393921e-03 1 -0.1154 0.1568)" class="st1" width="198.3" height="165.3"/>
		
			<rect x="183.3" y="153.6" transform="matrix(1 -1.393921e-03 1.393921e-03 1 -0.2175 0.2697)" class="st2" width="20.1" height="5.2"/>
		
			<rect x="156.4" y="153.6" transform="matrix(1 -1.393921e-03 1.393921e-03 1 -0.2176 0.2322)" class="st2" width="20.1" height="5.2"/>
		
			<rect x="129.5" y="153.7" transform="matrix(1 -1.393921e-03 1.393921e-03 1 -0.2177 0.1947)" class="st2" width="20.1" height="5.2"/>
		
			<rect x="102.6" y="153.7" transform="matrix(1 -1.393921e-03 1.393921e-03 1 -0.2178 0.1572)" class="st2" width="20.1" height="5.2"/>
		
			<rect x="75.7" y="153.7" transform="matrix(1 -1.393921e-03 1.393921e-03 1 -0.2178 0.1197)" class="st2" width="20.1" height="5.2"/>
		
			<rect x="48.8" y="153.8" transform="matrix(1 -1.393921e-03 1.393921e-03 1 -0.218 8.218433e-02)" class="st2" width="20.1" height="5.2"/>
		
			<rect x="21.9" y="153.8" transform="matrix(1 -1.393921e-03 1.393921e-03 1 -0.218 4.468786e-02)" class="st2" width="20.1" height="5.2"/>
	</g>
	
		<rect x="210.1" y="0" transform="matrix(1 -1.393921e-03 1.393921e-03 1 -0.115 0.3021)" class="st3" width="13.2" height="165.3"/>
	
		<rect x="0.1" y="0.2" transform="matrix(1 -1.393921e-03 1.393921e-03 1 -0.1155 9.419739e-03)" class="st3" width="13.2" height="165.3"/>
</g>
</svg>
