<?xml version="1.0" encoding="utf-8"?>
<!-- Generator: Adobe Illustrator 19.2.1, SVG Export Plug-In . SVG Version: 6.00 Build 0)  -->
<svg version="1.1" id="Layer_1" xmlns="http://www.w3.org/2000/svg" xmlns:xlink="http://www.w3.org/1999/xlink" x="0px" y="0px"
	 viewBox="0 0 198.5 165.6" style="enable-background:new 0 0 198.5 165.6;" xml:space="preserve">
<style type="text/css">
	.st0{filter:url(#f1);}
	.st1{fill:#3B80C2;}
	.st2{opacity:0.6;fill:#3B80C2;stroke:#020202;stroke-miterlimit:10;enable-background:new    ;}
	.st3{opacity:0.55;}
	.st4{fill:#3C53A3;stroke:#020202;stroke-miterlimit:10;}
	.st5{opacity:0.29;filter:url(#f2);enable-background:new    ;}
</style>
<filter  height="200%" id="f2" width="200%" x="-50%" y="-50%">
	<feGaussianBlur  in="SourceGraphic" stdDeviation="2.8"></feGaussianBlur>
</filter>
<filter  height="200%" id="f1" width="200%" x="-50%" y="-50%">
	<feGaussianBlur  in="SourceGraphic" stdDeviation=".9"></feGaussianBlur>
</filter>
<g id="Lane6">
	<g id="weight8" class="st0">
		<rect x="173.1" y="8.7" class="st1" width="15.6" height="3.2"/>
	</g>
	<g id="weight7" class="st0">
		<rect x="173.1" y="8.7" class="st1" width="15.6" height="3.2"/>
	</g>
	<g id="weight6" class="st0">
		<rect x="173.1" y="8.7" class="st1" width="15.6" height="3.2"/>
	</g>
	<g id="weight5" class="st0">
		<rect x="173.1" y="8.7" class="st1" width="15.6" height="3.2"/>
	</g>
	<g id="weight4" class="st0">
		<rect x="173.1" y="8.7" class="st1" width="15.6" height="3.2"/>
	</g>
	<g id="weight3" class="st0">
		<rect x="173.1" y="8.7" class="st1" width="15.6" height="3.2"/>
	</g>
	<g id="weight2" class="st0">
		<rect x="173.1" y="8.7" class="st1" width="15.6" height="3.2"/>
	</g>
	<g id="weight1" class="st0">
		<rect x="173.1" y="8.7" class="st1" width="15.6" height="3.2"/>
	</g>
	<g id="weight0" class="st0">
		<rect x="173.1" y="8.7" class="st1" width="15.6" height="3.2"/>
	</g>
</g>
<g id="Lane5">
	<g id="weight8_1_" class="st0">
		<rect x="146.1" y="8.7" class="st1" width="15.6" height="3.2"/>
	</g>
	<g id="weight7_1_" class="st0">
		<rect x="146.1" y="8.7" class="st1" width="15.6" height="3.2"/>
	</g>
	<g id="weight6_1_" class="st0">
		<rect x="146.1" y="8.7" class="st1" width="15.6" height="3.2"/>
	</g>
	<g id="weight5_1_" class="st0">
		<rect x="146.1" y="8.7" class="st1" width="15.6" height="3.2"/>
	</g>
	<g id="weight4_1_" class="st0">
		<rect x="146.1" y="8.7" class="st1" width="15.6" height="3.2"/>
	</g>
	<g id="weight3_1_" class="st0">
		<rect x="146.1" y="8.7" class="st1" width="15.6" height="3.2"/>
	</g>
	<g id="weight2_1_" class="st0">
		<rect x="146.1" y="8.7" class="st1" width="15.6" height="3.2"/>
	</g>
	<g id="weight1_1_" class="st0">
		<rect x="146.1" y="8.7" class="st1" width="15.6" height="3.2"/>
	</g>
	<g id="weight0_1_" class="st0">
		<rect x="146.1" y="8.7" class="st1" width="15.6" height="3.2"/>
	</g>
</g>
<g id="Lane4">
	<g id="weight8_2_" class="st0">
		<rect x="119.1" y="8.7" class="st1" width="15.6" height="3.2"/>
	</g>
	<g id="weight7_2_" class="st0">
		<rect x="119.1" y="8.7" class="st1" width="15.6" height="3.2"/>
	</g>
	<g id="weight6_2_" class="st0">
		<rect x="119.1" y="8.7" class="st1" width="15.6" height="3.2"/>
	</g>
	<g id="weight5_2_" class="st0">
		<rect x="119.1" y="8.7" class="st1" width="15.6" height="3.2"/>
	</g>
	<g id="weight4_2_" class="st0">
		<rect x="119.1" y="8.7" class="st1" width="15.6" height="3.2"/>
	</g>
	<g id="weight3_2_" class="st0">
		<rect x="119.1" y="8.7" class="st1" width="15.6" height="3.2"/>
	</g>
	<g id="weight2_2_" class="st0">
		<rect x="119.1" y="8.7" class="st1" width="15.6" height="3.2"/>
	</g>
	<g id="weight1_2_" class="st0">
		<rect x="119.1" y="8.7" class="st1" width="15.6" height="3.2"/>
	</g>
	<g id="weight0_2_" class="st0">
		<rect x="119.1" y="8.7" class="st1" width="15.6" height="3.2"/>
	</g>
</g>
<g id="Lane3">
	<g id="weight8_3_" class="st0">
		<rect x="92.1" y="8.7" class="st1" width="15.6" height="3.2"/>
	</g>
	<g id="weight7_3_" class="st0">
		<rect x="92.1" y="8.7" class="st1" width="15.6" height="3.2"/>
	</g>
	<g id="weight6_3_" class="st0">
		<rect x="92.1" y="8.7" class="st1" width="15.6" height="3.2"/>
	</g>
	<g id="weight5_3_" class="st0">
		<rect x="92.1" y="8.7" class="st1" width="15.6" height="3.2"/>
	</g>
	<g id="weight4_3_" class="st0">
		<rect x="92.1" y="8.7" class="st1" width="15.6" height="3.2"/>
	</g>
	<g id="weight3_3_" class="st0">
		<rect x="92.1" y="8.7" class="st1" width="15.6" height="3.2"/>
	</g>
	<g id="weight2_3_" class="st0">
		<rect x="92.1" y="8.7" class="st1" width="15.6" height="3.2"/>
	</g>
	<g id="weight1_3_" class="st0">
		<rect x="92.1" y="8.7" class="st1" width="15.6" height="3.2"/>
	</g>
	<g id="weight0_3_" class="st0">
		<rect x="92.1" y="8.7" class="st1" width="15.6" height="3.2"/>
	</g>
</g>
<g id="Lane2">
	<g id="weight8_4_" class="st0">
		<rect x="66.1" y="8.7" class="st1" width="15.6" height="3.2"/>
	</g>
	<g id="weight7_4_" class="st0">
		<rect x="66.1" y="8.7" class="st1" width="15.6" height="3.2"/>
	</g>
	<g id="weight6_4_" class="st0">
		<rect x="66.1" y="8.7" class="st1" width="15.6" height="3.2"/>
	</g>
	<g id="weight5_4_" class="st0">
		<rect x="66.1" y="8.7" class="st1" width="15.6" height="3.2"/>
	</g>
	<g id="weight4_4_" class="st0">
		<rect x="66.1" y="8.7" class="st1" width="15.6" height="3.2"/>
	</g>
	<g id="weight3_4_" class="st0">
		<rect x="66.1" y="8.7" class="st1" width="15.6" height="3.2"/>
	</g>
	<g id="weight2_4_" class="st0">
		<rect x="66.1" y="8.7" class="st1" width="15.6" height="3.2"/>
	</g>
	<g id="weight1_4_" class="st0">
		<rect x="66.1" y="8.7" class="st1" width="15.6" height="3.2"/>
	</g>
	<g id="weight0_4_" class="st0">
		<rect x="66.1" y="8.7" class="st1" width="15.6" height="3.2"/>
	</g>
</g>
<g id="Lane1">
	<g id="weight8_5_" class="st0">
		<rect x="39.1" y="8.7" class="st1" width="15.6" height="3.2"/>
	</g>
	<g id="weight7_5_" class="st0">
		<rect x="39.1" y="8.7" class="st1" width="15.6" height="3.2"/>
	</g>
	<g id="weight6_5_" class="st0">
		<rect x="39.1" y="8.7" class="st1" width="15.6" height="3.2"/>
	</g>
	<g id="weight5_5_" class="st0">
		<rect x="39.1" y="8.7" class="st1" width="15.6" height="3.2"/>
	</g>
	<g id="weight4_5_" class="st0">
		<rect x="39.1" y="8.7" class="st1" width="15.6" height="3.2"/>
	</g>
	<g id="weight3_5_" class="st0">
		<rect x="39.1" y="8.7" class="st1" width="15.6" height="3.2"/>
	</g>
	<g id="weight2_5_" class="st0">
		<rect x="39.1" y="8.7" class="st1" width="15.6" height="3.2"/>
	</g>
	<g id="weight1_5_" class="st0">
		<rect x="39.1" y="8.7" class="st1" width="15.6" height="3.2"/>
	</g>
	<g id="weight0_5_" class="st0">
		<rect x="39.1" y="8.7" class="st1" width="15.6" height="3.2"/>
	</g>
</g>
<g id="Lane0">
	<g id="weight8_6_" class="st0">
		<rect x="12.1" y="8.7" class="st1" width="15.6" height="3.2"/>
	</g>
	<g id="weight7_6_" class="st0">
		<rect x="12.1" y="8.7" class="st1" width="15.6" height="3.2"/>
	</g>
	<g id="weight6_6_" class="st0">
		<rect x="12.1" y="8.7" class="st1" width="15.6" height="3.2"/>
	</g>
	<g id="weight5_6_" class="st0">
		<rect x="12.1" y="8.7" class="st1" width="15.6" height="3.2"/>
	</g>
	<g id="weight4_6_" class="st0">
		<rect x="12.1" y="8.7" class="st1" width="15.6" height="3.2"/>
	</g>
	<g id="weight3_6_" class="st0">
		<rect x="12.1" y="8.7" class="st1" width="15.6" height="3.2"/>
	</g>
	<g id="weight2_6_" class="st0">
		<rect x="12.1" y="8.7" class="st1" width="15.6" height="3.2"/>
	</g>
	<g id="weight1_6_" class="st0">
		<rect x="12.1" y="8.7" class="st1" width="15.6" height="3.2"/>
	</g>
	<g id="weight0_6_" class="st0">
		<rect x="12.1" y="8.7" class="st1" width="15.6" height="3.2"/>
	</g>
</g>
<g>
	
		<rect x="0.3" y="0.1" transform="matrix(1 -1.393918e-03 1.393918e-03 1 -0.1153 0.1387)" class="st2" width="198.3" height="165.3"/>
	<g class="st3">
		
			<rect x="171.9" y="149.7" transform="matrix(1 -1.393918e-03 1.393918e-03 1 -0.2121 0.2538)" class="st4" width="20.1" height="5.2"/>
		
			<rect x="145" y="149.7" transform="matrix(1 -1.393918e-03 1.393918e-03 1 -0.2121 0.2163)" class="st4" width="20.1" height="5.2"/>
		
			<rect x="118.1" y="149.7" transform="matrix(1 -1.393918e-03 1.393918e-03 1 -0.2122 0.1788)" class="st4" width="20.1" height="5.2"/>
		
			<rect x="91.2" y="149.7" transform="matrix(1 -1.393918e-03 1.393918e-03 1 -0.2122 0.1413)" class="st4" width="20.1" height="5.2"/>
		
			<rect x="64.3" y="149.7" transform="matrix(1 -1.393918e-03 1.393918e-03 1 -0.2122 0.1038)" class="st4" width="20.1" height="5.2"/>
		
			<rect x="37.4" y="149.7" transform="matrix(1 -1.393918e-03 1.393918e-03 1 -0.2122 6.628948e-02)" class="st4" width="20.1" height="5.2"/>
		
			<rect x="10.5" y="149.7" transform="matrix(1 -1.393918e-03 1.393918e-03 1 -0.2123 2.879296e-02)" class="st4" width="20.1" height="5.2"/>
	</g>
</g>
<circle class="st1" cx="68.3" cy="-60.5" r="0"/>
<g id="dyeTrail6" class="st5">
	<rect x="171.5" y="15.7" class="st1" width="20.1" height="129.6"/>
</g>
<g id="dyeTrail5" class="st5">
	<rect x="144.5" y="15.7" class="st1" width="20.1" height="129.6"/>
</g>
<g id="dyeTrail4" class="st5">
	<rect x="117.5" y="15.7" class="st1" width="20.1" height="129.6"/>
</g>
<g id="dyeTrail3" class="st5">
	<rect x="90.5" y="15.7" class="st1" width="20.1" height="129.6"/>
</g>
<g id="dyeTrail2" class="st5">
	<rect x="64.5" y="15.7" class="st1" width="20.1" height="129.6"/>
</g>
<g id="dyeTrail1" class="st5">
	<rect x="37.5" y="15.7" class="st1" width="20.1" height="129.6"/>
</g>
<g id="dyeTrail0" class="st5">
	<rect x="10.5" y="15.7" class="st1" width="20.1" height="129.6"/>
</g>
</svg>
