<?xml version="1.0" encoding="utf-8"?>
<!-- Generator: Adobe Illustrator 19.2.1, SVG Export Plug-In . SVG Version: 6.00 Build 0)  -->
<svg version="1.1" id="Layer_1" xmlns="http://www.w3.org/2000/svg" xmlns:xlink="http://www.w3.org/1999/xlink" x="0px" y="0px"
	 viewBox="0 0 612 792" style="enable-background:new 0 0 612 792;" xml:space="preserve">
<style type="text/css">
	.st0{fill:#EBF5EA;stroke:#010101;stroke-miterlimit:10;}
	.st1{opacity:0.5;fill:#E6E6E5;stroke:#010101;stroke-miterlimit:10;enable-background:new    ;}
	.st2{opacity:0.75;fill:#989898;stroke:#010101;stroke-miterlimit:10;enable-background:new    ;}
	.st3{opacity:0.95;fill:#989898;stroke:#010101;stroke-miterlimit:10;enable-background:new    ;}
	.st4{fill:#989898;stroke:#010101;stroke-miterlimit:10;enable-background:new    ;}
	.st5{fill:#989898;stroke:#010101;stroke-miterlimit:10;}
</style>
<path class="st0" d="M426.7,483.5L426.7,483.5L426.7,483.5c0-6.6-20.2-11.9-45-11.9c-24.9,0-45,5.3-45,11.9h-0.3h0.3
	c-0.1,16.1,33.1,66.8,45,66.8C393.6,550.3,426.8,499.6,426.7,483.5L426.7,483.5L426.7,483.5z"/>
<path id="rect3336_1_" class="st1" d="M333.6,275.9v204.4h0.3
	c-0.1,16.9,34.7,70,47.2,70s47.3-53.1,47.2-70h0.3V275.9H333.6z"/>
<path id="rect3360_1_" class="st2" d="M333.6,338.8h50.2v8.7h-50.2
	V338.8z"/>
<path id="rect3362_1_" class="st2" d="M334.6,390.6h48.2v8.7h-48.2
	V390.6z"/>
<path id="rect3518_1_" class="st2" d="M333.3,275.9c-13.9,0.5-27.4,5.7-40.9,10.2
	c-9.7-5.3-20.2-7.3-30.5-8.3c-0.2,8.7,5.9,16.1,11.9,14c6.6,0.4,14.5,0.3,20,3.8c1.9-0.8,5.7-2.8,8.7-3c9.9-1.3,20-1,29.9-1.9
	c3.4,0.2,5.3-4,4.9-8.5C337.4,279,335.9,275.4,333.3,275.9L333.3,275.9z"/>
<ellipse id="path3524_1_" class="st3" cx="223" cy="286.4" rx="51.2" ry="15.7"/>
<path id="rect3542_1_" class="st4" d="M209.4,242h28.4c14.1,0,25.5,5.2,25.5,11.6v22.8c0,6.4-11.4,11.6-25.5,11.6h-28.4
	c-14.1,0-25.5-5.2-25.5-11.6v-22.8C183.9,247.2,195.3,242,209.4,242z"/>
<path class="st5" d="M431.6,290.9H331.4c-4.1,0-7.5-3.4-7.5-7.5v-5.2c0-4.1,3.4-7.5,7.5-7.5h100.3c4.1,0,7.5,3.4,7.5,7.5v5.2
	C439.2,287.6,435.8,290.9,431.6,290.9z"/>
</svg>
