<?xml version="1.0" encoding="utf-8"?>
<!-- Generator: Adobe Illustrator 19.2.1, SVG Export Plug-In . SVG Version: 6.00 Build 0)  -->
<svg version="1.1" id="Layer_1" xmlns="http://www.w3.org/2000/svg" xmlns:xlink="http://www.w3.org/1999/xlink" x="0px" y="0px"
	 viewBox="0 0 101.2 87.6" style="enable-background:new 0 0 101.2 87.6;" xml:space="preserve">
<style type="text/css">
	.st0{fill:none;}
	.st1{fill:#131313;}
	.st2{fill:#202020;}
	.st3{fill:url(#SVGID_1_);}
	.st4{fill:none;stroke:#000000;stroke-miterlimit:10;}
	.st5{fill:none;stroke:#58595B;stroke-width:3;stroke-miterlimit:10;}
	.st6{stroke:#000000;stroke-miterlimit:10;}
	.st7{fill:none;stroke:#2BB673;stroke-width:0.75;stroke-miterlimit:10;}
	.st8{fill:none;stroke:#58595B;stroke-width:0.75;stroke-miterlimit:10;}
</style>
<pattern  y="87.6" width="240" height="696" patternUnits="userSpaceOnUse" id="New_Pattern_Swatch_17" viewBox="0 -696 240 696" style="overflow:visible;">
	<g>
		<rect y="-696" class="st0" width="240" height="696"/>
		<g>
			<g>
				<g>
					<g>
						<rect y="-696" class="st1" width="16.7" height="696"/>
						<rect x="15" y="-696" class="st2" width="18.9" height="696"/>
					</g>
				</g>
				<g>
					<g>
						<g>
							<rect x="30" y="-696" class="st1" width="16.7" height="696"/>
							<rect x="45" y="-696" class="st2" width="18.4" height="696"/>
						</g>
					</g>
				</g>
			</g>
			<g>
				<g>
					<g>
						<rect x="60" y="-696" class="st1" width="16.7" height="696"/>
						<rect x="75" y="-696" class="st2" width="18.9" height="696"/>
					</g>
				</g>
				<g>
					<g>
						<g>
							<rect x="90" y="-696" class="st1" width="16.7" height="696"/>
							<rect x="105" y="-696" class="st2" width="19.1" height="696"/>
						</g>
					</g>
				</g>
			</g>
			<g>
				<g>
					<g>
						<rect x="120" y="-696" class="st1" width="16.7" height="696"/>
						<rect x="135" y="-696" class="st2" width="18.9" height="696"/>
					</g>
				</g>
				<g>
					<g>
						<g>
							<rect x="150" y="-696" class="st1" width="16.7" height="696"/>
							<rect x="165" y="-696" class="st2" width="18.4" height="696"/>
						</g>
					</g>
				</g>
			</g>
			<g>
				<g>
					<g>
						<rect x="180" y="-696" class="st1" width="16.7" height="696"/>
						<rect x="195" y="-696" class="st2" width="18.9" height="696"/>
					</g>
				</g>
				<g>
					<g>
						<g>
							<rect x="210" y="-696" class="st1" width="16.7" height="696"/>
							<rect x="225" y="-696" class="st2" width="15" height="696"/>
						</g>
					</g>
				</g>
			</g>
		</g>
	</g>
</pattern>
<g>
	<g>
		
			<pattern  id="SVGID_1_" xlink:href="#New_Pattern_Swatch_17" patternTransform="matrix(0.6124 0.6124 -0.6124 0.6124 -27229.8965 31571.1348)">
		</pattern>
		<polygon class="st3" points="25.6,87.1 0.6,43.8 25.6,0.5 75.6,0.5 100.6,43.8 75.6,87.1 		"/>
		<polygon class="st4" points="25.6,87.1 0.6,43.8 25.6,0.5 75.6,0.5 100.6,43.8 75.6,87.1 		"/>
	</g>
	<polygon class="st5" points="30.6,78.4 10.6,43.8 30.6,9.2 70.6,9.2 90.6,43.8 70.6,78.4 	"/>
</g>
<g>
	<polygon points="45,53.5 39.4,43.8 45,34.1 56.2,34.1 61.8,43.8 56.2,53.5 	"/>
	<polygon class="st6" points="45,53.5 39.4,43.8 45,34.1 56.2,34.1 61.8,43.8 56.2,53.5 	"/>
</g>
<g>
	<polygon class="st7" points="46,51.5 41.5,43.8 46,36 54.9,36 59.4,43.8 54.9,51.5 	"/>
</g>
<g>
	<polygon points="45,33.5 39.4,23.8 45,14.1 56.2,14.1 61.8,23.8 56.2,33.5 	"/>
	<polygon class="st6" points="45,33.5 39.4,23.8 45,14.1 56.2,14.1 61.8,23.8 56.2,33.5 	"/>
</g>
<g>
	<polygon class="st8" points="46,31.5 41.5,23.8 46,16 54.9,16 59.4,23.8 54.9,31.5 	"/>
</g>
<g>
	<polygon points="45,73.5 39.4,63.8 45,54.1 56.2,54.1 61.8,63.8 56.2,73.5 	"/>
	<polygon class="st6" points="45,73.5 39.4,63.8 45,54.1 56.2,54.1 61.8,63.8 56.2,73.5 	"/>
</g>
<g>
	<polygon class="st8" points="46,71.5 41.5,63.8 46,56 54.9,56 59.4,63.8 54.9,71.5 	"/>
</g>
<g>
	<polygon points="27.7,43.5 22.1,33.8 27.7,24.1 38.9,24.1 44.5,33.8 38.9,43.5 	"/>
	<polygon class="st6" points="27.7,43.5 22.1,33.8 27.7,24.1 38.9,24.1 44.5,33.8 38.9,43.5 	"/>
</g>
<g>
	<polygon class="st8" points="28.7,41.5 24.2,33.8 28.7,26 37.6,26 42.1,33.8 37.6,41.5 	"/>
</g>
<g>
	<polygon points="27.7,63.5 22.1,53.8 27.7,44.1 38.9,44.1 44.5,53.8 38.9,63.5 	"/>
	<polygon class="st6" points="27.7,63.5 22.1,53.8 27.7,44.1 38.9,44.1 44.5,53.8 38.9,63.5 	"/>
</g>
<g>
	<polygon class="st8" points="28.7,61.5 24.2,53.8 28.7,46 37.6,46 42.1,53.8 37.6,61.5 	"/>
</g>
<g>
	<polygon points="62.3,43.5 56.7,33.8 62.3,24.1 73.5,24.1 79.1,33.8 73.5,43.5 	"/>
	<polygon class="st6" points="62.3,43.5 56.7,33.8 62.3,24.1 73.5,24.1 79.1,33.8 73.5,43.5 	"/>
</g>
<g>
	<polygon class="st8" points="63.3,41.5 58.8,33.8 63.3,26 72.2,26 76.7,33.8 72.2,41.5 	"/>
</g>
<g>
	<polygon points="62.3,63.5 56.7,53.8 62.3,44.1 73.5,44.1 79.1,53.8 73.5,63.5 	"/>
	<polygon class="st6" points="62.3,63.5 56.7,53.8 62.3,44.1 73.5,44.1 79.1,53.8 73.5,63.5 	"/>
</g>
<g>
	<polygon class="st8" points="63.3,61.5 58.8,53.8 63.3,46 72.2,46 76.7,53.8 72.2,61.5 	"/>
</g>
</svg>
