<?xml version="1.0" encoding="utf-8"?>
<!-- Generator: Adobe Illustrator 19.2.1, SVG Export Plug-In . SVG Version: 6.00 Build 0)  -->
<svg version="1.1" id="Layer_1" xmlns="http://www.w3.org/2000/svg" xmlns:xlink="http://www.w3.org/1999/xlink" x="0px" y="0px"
	 viewBox="0 0 289.8 316.5" style="enable-background:new 0 0 289.8 316.5;" xml:space="preserve">
<style type="text/css">
	.st0{fill:#3050A2;}
	.st1{opacity:0.5;fill:#E6E6E5;stroke:#020202;stroke-miterlimit:10;enable-background:new    ;}
	.st2{opacity:0.75;fill:#989798;stroke:#020202;stroke-miterlimit:10;enable-background:new    ;}
	.st3{fill:#989798;stroke:#010101;stroke-miterlimit:10;}
	.st4{fill:#989798;stroke:#020202;stroke-miterlimit:10;}
</style>
<path class="st0" d="M269,242.9L269,242.9L269,242.9c0-6.6-20.2-11.9-45-11.9c-24.9,0-45,5.3-45,11.9h-0.3h0.3
	c-0.1,16.1,33.1,66.8,45,66.8C235.9,309.6,269.1,258.9,269,242.9L269,242.9L269,242.9z"/>
<path id="rect3336_1_" class="st1" d="M175.9,35.2v204.4h0.3c-0.1,16.9,34.7,70,47.2,70s47.3-53.1,47.2-70h0.3V35.2H175.9z"/>
<path id="rect3360_1_" class="st2" d="M175.9,98.2h50.2v8.7h-50.2V98.2z"/>
<path id="rect3362_1_" class="st2" d="M176.9,149.9h48.2v8.7h-48.2V149.9z"/>
<path id="rect3518_2_" class="st3" d="M169.5,33.9c-13.9,0.5-27.4,5.7-40.9,10.2c-9.7-5.3-20.2-7.3-30.5-8.3
	C97.8,44.5,104,52,110,49.9c6.6,0.4,14.5,0.3,20,3.8c1.9-0.8,5.7-2.8,8.7-3c9.9-1.3,20-1,29.9-1.9c3.4,0.2,5.3-4,4.9-8.5
	C173.6,37,172.1,33.4,169.5,33.9L169.5,33.9z"/>
<ellipse id="path3524_2_" class="st3" cx="59.2" cy="44.4" rx="51.2" ry="15.7"/>
<path id="rect3542_2_" class="st3" d="M45.6,0H74c14.1,0,25.5,5.2,25.5,11.6v22.8C99.5,40.8,88.1,46,74,46H45.6
	c-14.1,0-25.5-5.2-25.5-11.6V11.6C20.1,5.2,31.5,0,45.6,0z"/>
<path class="st4" d="M273.9,50.2H173.7c-4.1,0-7.5-3.4-7.5-7.5v-5.2c0-4.1,3.4-7.5,7.5-7.5H274c4.1,0,7.5,3.4,7.5,7.5v5.2
	C281.5,47,278.1,50.2,273.9,50.2z"/>
</svg>
