<?xml version="1.0" encoding="utf-8"?>
<!-- Generator: Adobe Illustrator 19.2.1, SVG Export Plug-In . SVG Version: 6.00 Build 0)  -->
<svg version="1.1" id="Layer_1" xmlns="http://www.w3.org/2000/svg" xmlns:xlink="http://www.w3.org/1999/xlink" x="0px" y="0px"
	 viewBox="0 0 327.4 109.1" style="enable-background:new 0 0 327.4 109.1;" xml:space="preserve">
<style type="text/css">
	.st0{fill:#EBE6E5;stroke:#000000;stroke-miterlimit:10;}
	.st1{opacity:0.85;stroke:#000000;stroke-miterlimit:10;}
	.st2{stroke:#000000;stroke-miterlimit:10;}
	.st3{opacity:0.85;fill:#E12B26;stroke:#000000;stroke-miterlimit:10;}
	.st4{fill:#4D3E3A;}
	.st5{fill:#525047;}
	.st6{fill:#FEF4F6;}
	.st7{font-family:'Corbel-BoldItalic';}
	.st8{font-size:12px;}
</style>
<path class="st0" d="M314.7,103.5h-299c-3.6,0-6.5-2.9-6.5-6.5V11.9c0-3.6,2.9-6.5,6.5-6.5h299c3.6,0,6.5,2.9,6.5,6.5v85.2
	C321.2,100.6,318.3,103.5,314.7,103.5z"/>
<g>
	<circle class="st1" cx="28" cy="85.6" r="10.5"/>
	<circle class="st2" cx="28" cy="85.6" r="4.4"/>
</g>
<circle class="st3" cx="50.7" cy="85.6" r="10.5"/>
<circle class="st2" cx="50.7" cy="85.6" r="4.4"/>
<g>
	<circle class="st1" cx="90.5" cy="85.6" r="10.5"/>
	<circle class="st2" cx="90.5" cy="85.6" r="4.4"/>
</g>
<circle class="st3" cx="113.2" cy="85.6" r="10.5"/>
<circle class="st2" cx="113.2" cy="85.6" r="4.4"/>
<g>
	<circle class="st1" cx="153" cy="86" r="10.5"/>
	<circle class="st2" cx="153" cy="86" r="4.4"/>
</g>
<circle class="st3" cx="175.7" cy="86" r="10.5"/>
<circle class="st2" cx="175.7" cy="86" r="4.4"/>
<g>
	<circle class="st1" cx="215.5" cy="86" r="10.5"/>
	<circle class="st2" cx="215.5" cy="86" r="4.4"/>
</g>
<circle class="st3" cx="238.2" cy="86" r="10.5"/>
<circle class="st2" cx="238.2" cy="86" r="4.4"/>
<g>
	<circle class="st1" cx="278" cy="86" r="10.5"/>
	<circle class="st2" cx="278" cy="86" r="4.4"/>
</g>
<circle class="st3" cx="300.7" cy="86" r="10.5"/>
<circle class="st2" cx="300.7" cy="86" r="4.4"/>
<rect x="22.6" y="29.9" class="st4" width="54.1" height="29"/>
<g>
	<rect x="80.3" y="51.3" class="st5" width="20.9" height="11"/>
	<polygon class="st6" points="90.7,60.9 82,53.5 99.1,53.4 	"/>
</g>
<g>
	<rect x="79.8" y="27.4" class="st5" width="21.4" height="11.2"/>
	<polygon class="st6" points="90.5,28.5 99.3,36.1 81.7,36.1 	"/>
</g>
<text transform="matrix(1 0 0 1 238.1855 24.3818)" class="st7 st8">Power Supply</text>
</svg>
