<?xml version="1.0" encoding="utf-8"?>
<!-- Generator: Adobe Illustrator 19.2.1, SVG Export Plug-In . SVG Version: 6.00 Build 0)  -->
<svg version="1.1" id="Layer_1" xmlns="http://www.w3.org/2000/svg" xmlns:xlink="http://www.w3.org/1999/xlink" x="0px" y="0px"
	 viewBox="0 0 275.8 309.1" style="enable-background:new 0 0 275.8 309.1;" xml:space="preserve">
<style type="text/css">
	.st0{fill:#818AC4;}
	.st1{display:none;fill:#939598;}
	.st2{opacity:0.6;fill:#819CD0;stroke:#010101;stroke-width:1.5;stroke-miterlimit:10;enable-background:new    ;}
	.st3{fill:#819CD0;stroke:#010101;stroke-width:1.5;stroke-miterlimit:10;}
</style>
<g id="Layer_2">
</g>
<path class="st0" d="M263.9,241.5L263.9,241.5L263.9,241.5c0-6.6-20.2-11.9-45-11.9c-24.9,0-45,5.3-45,11.9h-0.3h0.3
	c-0.1,16.1,33.1,66.8,45,66.8C230.8,308.3,264,257.7,263.9,241.5L263.9,241.5L263.9,241.5z"/>
<ellipse class="st1" cx="218.8" cy="238.5" rx="46.5" ry="12.1"/>
<ellipse class="st1" cx="218.8" cy="268.6" rx="14.5" ry="39.8"/>
<path id="rect3336_1_"  class="st2" d="M171.3,33.9v204.4h0.3
	c-0.1,16.9,34.7,70,47.2,70c12.5,0,47.3-53.1,47.2-70h0.3V33.9L171.3,33.9z"/>
<path id="rect3360_1_"  class="st3" d="M171.3,96.8h50.2v8.7h-50.2
	V96.8z"/>
<path id="rect3362_1_" class="st3" d="M172.3,148.6h48.2v8.7h-48.2
	V148.6z"/>
<path id="rect3518_1_"  class="st3" d="M171.1,33.9c-13.9,0.5-27.4,5.7-40.9,10.2
	c-9.7-5.3-20.2-7.3-30.5-8.3c-0.3,8.7,5.9,16.2,11.9,14.1c6.6,0.4,14.5,0.3,20,3.8c1.9-0.8,5.7-2.8,8.7-3c9.9-1.3,20-1,29.9-1.9
	c3.4,0.2,5.3-4,4.9-8.5C175.2,37,173.6,33.4,171.1,33.9L171.1,33.9z"/>
<ellipse id="path3524_1_" class="st3" cx="60.8" cy="44.4" rx="51.2" ry="15.7"/>
<path id="rect3542_1_" class="st3" d="M47.1,0h28.4C89.6,0,101,5.2,101,11.6v22.8C101,40.8,89.6,46,75.5,46H47.1
	C33,46,21.6,40.8,21.6,34.4V11.6C21.6,5.2,33,0,47.1,0z"/>
<path class="st3" d="M269.4,48.9H169.1c-4.1,0-7.5-3.4-7.5-7.5v-5.2c0-4.1,3.4-7.5,7.5-7.5h100.3c4.1,0,7.5,3.4,7.5,7.5v5.2
	C276.9,45.6,273.5,48.9,269.4,48.9z"/>
</svg>
