<?xml version="1.0" encoding="utf-8"?>
<!-- Generator: Adobe Illustrator 19.2.1, SVG Export Plug-In . SVG Version: 6.00 Build 0)  -->
<svg version="1.1" id="Layer_1" xmlns="http://www.w3.org/2000/svg" xmlns:xlink="http://www.w3.org/1999/xlink" x="0px" y="0px"
	 viewBox="0 0 271.6 308.3" style="enable-background:new 0 0 271.6 308.3;" xml:space="preserve">
<style type="text/css">
	.st0{fill:#818AC4;}
	.st1{opacity:0.6;fill:#F1687A;stroke:#010101;stroke-width:1.5;stroke-miterlimit:10;enable-background:new    ;}
	.st2{fill:#F1687A;stroke:#010101;stroke-width:1.5;stroke-miterlimit:10;}
</style>
<path class="st0" d="M258.6,241.4L258.6,241.4L258.6,241.4c0-6.6-20.2-11.9-45-11.9c-24.9,0-45,5.3-45,11.9h-0.3h0.3
	c-0.1,16.1,33.1,66.8,45,66.8C225.5,308.3,258.7,257.6,258.6,241.4L258.6,241.4L258.6,241.4z"/>
<path id="rect3336_1_"  class="st1" d="M166,33.9v204.4h0.3
	c-0.1,16.9,34.7,70,47.2,70s47.3-53.1,47.2-70h0.3V33.9L166,33.9z"/>
<path id="rect3360_1_" class="st2" d="M166,96.8h50.2v8.7H166V96.8z"
	/>
<path id="rect3362_1_"  class="st2" d="M167,148.6h48.2v8.7H167V148.6z
	"/>
<path id="rect3518_1_" class="st2" d="M165.7,33.9c-13.9,0.5-27.4,5.7-40.9,10.2
	c-9.7-5.3-20.2-7.3-30.5-8.3c-0.3,8.7,5.9,16.2,11.9,14.1c6.6,0.4,14.5,0.3,20,3.8c1.9-0.8,5.7-2.8,8.7-3c9.9-1.3,20-1,29.9-1.9
	c3.4,0.2,5.3-4,4.9-8.5C169.8,37,168.3,33.4,165.7,33.9L165.7,33.9z"/>
<ellipse id="path3524_1_" class="st2" cx="55.4" cy="44.4" rx="51.2" ry="15.7"/>
<path id="rect3542_1_" class="st2" d="M41.8,0h28.4c14.1,0,25.5,5.2,25.5,11.6v22.8c0,6.4-11.4,11.6-25.5,11.6H41.8
	c-14.1,0-25.5-5.2-25.5-11.6V11.6C16.3,5.2,27.7,0,41.8,0z"/>
<path class="st2" d="M264,48.9H163.8c-4.1,0-7.5-3.4-7.5-7.5v-5.2c0-4.1,3.4-7.5,7.5-7.5H264c4.1,0,7.5,3.4,7.5,7.5v5.2
	C271.6,45.6,268.2,48.9,264,48.9z"/>
</svg>
