<?xml version="1.0" encoding="utf-8"?>
<!-- Generator: Adobe Illustrator 19.2.1, SVG Export Plug-In . SVG Version: 6.00 Build 0)  -->
<svg version="1.1" id="Layer_1" xmlns="http://www.w3.org/2000/svg" xmlns:xlink="http://www.w3.org/1999/xlink" x="0px" y="0px"
	 viewBox="0 0 154.4 106.2" style="enable-background:new 0 0 154.4 106.2;" xml:space="preserve">
<style type="text/css">
	.st0{fill:#4366B0;stroke:#010101;stroke-miterlimit:10;}
	.st1{fill:#B4B2A3;}
	.st2{fill:#D5D3CA;fill-opacity:0.8;}
	.st3{fill:#5A585A;}
	.st4{fill:#5A585A;fill-opacity:0.8;}
</style>
<path class="st0" d="M142.4,106.2H12c-6.6,0-12-5.4-12-12V13.1c0-6.6,5.4-12,12-12h130.4c6.6,0,12,5.4,12,12v81.1
	C154.4,100.8,149,106.2,142.4,106.2z"/>
<g>
	<g>
		<ellipse transform="matrix(0.7863 -0.6178 0.6178 0.7863 -40.966 72.0666)" class="st1" cx="83.7" cy="95.3" rx="5.3" ry="5.3"/>
	</g>
	<circle class="st2" cx="83.7" cy="95.3" r="4.1"/>
</g>
<g>
	<g>
		
			<ellipse transform="matrix(0.7863 -0.6178 0.6178 0.7863 -28.0581 109.3801)" class="st1" cx="144.1" cy="95.3" rx="5.3" ry="5.3"/>
	</g>
	<circle class="st2" cx="144.1" cy="95.3" r="4.1"/>
</g>
<g>
	<g>
		<ellipse transform="matrix(0.7863 -0.6178 0.6178 0.7863 -30.6507 101.9103)" class="st1" cx="132" cy="95.3" rx="5.3" ry="5.3"/>
	</g>
	<circle class="st2" cx="132" cy="95.3" r="4.1"/>
</g>
<g>
	<g>
		
			<ellipse transform="matrix(0.7863 -0.6178 0.6178 0.7863 -33.2433 94.4405)" class="st1" cx="119.9" cy="95.3" rx="5.3" ry="5.3"/>
	</g>
	<circle class="st2" cx="119.9" cy="95.3" r="4.1"/>
</g>
<g>
	<g>
		
			<ellipse transform="matrix(0.7863 -0.6178 0.6178 0.7863 -35.8359 86.9707)" class="st1" cx="107.8" cy="95.3" rx="5.3" ry="5.3"/>
	</g>
	<circle class="st2" cx="107.8" cy="95.3" r="4.1"/>
</g>
<g>
	<g>
		<ellipse transform="matrix(0.7863 -0.6178 0.6178 0.7863 -38.3734 79.5363)" class="st1" cx="95.8" cy="95.2" rx="5.3" ry="5.3"/>
	</g>
	<circle class="st2" cx="95.8" cy="95.3" r="4.1"/>
</g>
<g>
	<g>
		<ellipse transform="matrix(0.7863 -0.6178 0.6178 0.7863 -49.0435 24.731)" class="st1" cx="11.2" cy="83.3" rx="5.3" ry="5.3"/>
	</g>
	<circle class="st2" cx="11.2" cy="83.3" r="4.1"/>
</g>
<g>
	<g>
		<ellipse transform="matrix(0.7863 -0.6178 0.6178 0.7863 -33.543 69.5144)" class="st1" cx="83.7" cy="83.2" rx="5.3" ry="5.3"/>
	</g>
	<circle class="st2" cx="83.7" cy="83.3" r="4.1"/>
</g>
<g>
	<g>
		<ellipse transform="matrix(0.7863 -0.6178 0.6178 0.7863 -36.1356 62.0446)" class="st1" cx="71.6" cy="83.3" rx="5.3" ry="5.3"/>
	</g>
	<circle class="st2" cx="71.6" cy="83.3" r="4.1"/>
</g>
<g>
	<g>
		<ellipse transform="matrix(0.7863 -0.6178 0.6178 0.7863 -38.7282 54.5747)" class="st1" cx="59.5" cy="83.3" rx="5.3" ry="5.3"/>
	</g>
	<circle class="st2" cx="59.5" cy="83.3" r="4.1"/>
</g>
<g>
	<g>
		<ellipse transform="matrix(0.7863 -0.6178 0.6178 0.7863 -41.2658 47.1404)" class="st1" cx="47.5" cy="83.2" rx="5.3" ry="5.3"/>
	</g>
	<circle class="st2" cx="47.5" cy="83.3" r="4.1"/>
</g>
<g>
	<g>
		<ellipse transform="matrix(0.7863 -0.6178 0.6178 0.7863 -43.8583 39.6706)" class="st1" cx="35.4" cy="83.2" rx="5.3" ry="5.3"/>
	</g>
	<circle class="st2" cx="35.4" cy="83.3" r="4.1"/>
</g>
<g>
	<g>
		<ellipse transform="matrix(0.7863 -0.6178 0.6178 0.7863 -46.4509 32.2008)" class="st1" cx="23.3" cy="83.3" rx="5.3" ry="5.3"/>
	</g>
	<circle class="st2" cx="23.3" cy="83.3" r="4.1"/>
</g>
<g>
	<g>
		
			<ellipse transform="matrix(0.7863 -0.6178 0.6178 0.7863 -20.6351 106.8279)" class="st1" cx="144.1" cy="83.2" rx="5.3" ry="5.3"/>
	</g>
	<circle class="st2" cx="144.1" cy="83.3" r="4.1"/>
</g>
<g>
	<g>
		<ellipse transform="matrix(0.7863 -0.6178 0.6178 0.7863 -23.2277 99.3582)" class="st1" cx="132" cy="83.3" rx="5.3" ry="5.3"/>
	</g>
	<circle class="st2" cx="132" cy="83.3" r="4.1"/>
</g>
<g>
	<g>
		
			<ellipse transform="matrix(0.7863 -0.6178 0.6178 0.7863 -25.8203 91.8883)" class="st1" cx="119.9" cy="83.3" rx="5.3" ry="5.3"/>
	</g>
	<circle class="st2" cx="119.9" cy="83.3" r="4.1"/>
</g>
<g>
	<g>
		
			<ellipse transform="matrix(0.7863 -0.6178 0.6178 0.7863 -28.4129 84.4185)" class="st1" cx="107.8" cy="83.3" rx="5.3" ry="5.3"/>
	</g>
	<circle class="st2" cx="107.8" cy="83.3" r="4.1"/>
</g>
<g>
	<g>
		<ellipse transform="matrix(0.7863 -0.6178 0.6178 0.7863 -30.9505 76.9842)" class="st1" cx="95.8" cy="83.2" rx="5.3" ry="5.3"/>
	</g>
	<circle class="st2" cx="95.8" cy="83.3" r="4.1"/>
</g>
<g>
	<g>
		<ellipse transform="matrix(0.7863 -0.6178 0.6178 0.7863 -41.608 21.9847)" class="st1" cx="11" cy="71.1" rx="5.3" ry="5.3"/>
	</g>
	<circle class="st2" cx="11" cy="71.2" r="4.1"/>
</g>
<g>
	<g>
		<ellipse transform="matrix(0.7863 -0.6178 0.6178 0.7863 -26.1625 66.7327)" class="st1" cx="83.4" cy="71.2" rx="5.3" ry="5.3"/>
	</g>
	<circle class="st2" cx="83.4" cy="71.2" r="4.1"/>
</g>
<g>
	<g>
		<ellipse transform="matrix(0.7863 -0.6178 0.6178 0.7863 -28.7001 59.2983)" class="st1" cx="71.4" cy="71.1" rx="5.3" ry="5.3"/>
	</g>
	<circle class="st2" cx="71.4" cy="71.2" r="4.1"/>
</g>
<g>
	<g>
		<ellipse transform="matrix(0.7863 -0.6178 0.6178 0.7863 -31.2926 51.8285)" class="st1" cx="59.3" cy="71.2" rx="5.3" ry="5.3"/>
	</g>
	<circle class="st2" cx="59.3" cy="71.2" r="4.1"/>
</g>
<g>
	<g>
		<ellipse transform="matrix(0.7863 -0.6178 0.6178 0.7863 -33.8853 44.3587)" class="st1" cx="47.2" cy="71.2" rx="5.3" ry="5.3"/>
	</g>
	<circle class="st2" cx="47.2" cy="71.2" r="4.1"/>
</g>
<g>
	<g>
		<ellipse transform="matrix(0.7863 -0.6178 0.6178 0.7863 -36.4778 36.8889)" class="st1" cx="35.1" cy="71.2" rx="5.3" ry="5.3"/>
	</g>
	<circle class="st2" cx="35.1" cy="71.2" r="4.1"/>
</g>
<g>
	<g>
		<ellipse transform="matrix(0.7863 -0.6178 0.6178 0.7863 -39.0704 29.4191)" class="st1" cx="23" cy="71.2" rx="5.3" ry="5.3"/>
	</g>
	<circle class="st2" cx="23" cy="71.2" r="4.1"/>
</g>
<g>
	<g>
		
			<ellipse transform="matrix(0.7863 -0.6178 0.6178 0.7863 -13.2546 104.0462)" class="st1" cx="143.8" cy="71.2" rx="5.3" ry="5.3"/>
	</g>
	<circle class="st2" cx="143.8" cy="71.2" r="4.1"/>
</g>
<g>
	<g>
		
			<ellipse transform="matrix(0.7863 -0.6178 0.6178 0.7863 -15.8472 96.5764)" class="st1" cx="131.7" cy="71.2" rx="5.3" ry="5.3"/>
	</g>
	<circle class="st2" cx="131.7" cy="71.2" r="4.1"/>
</g>
<g>
	<g>
		
			<ellipse transform="matrix(0.7863 -0.6178 0.6178 0.7863 -18.3848 89.1421)" class="st1" cx="119.7" cy="71.1" rx="5.3" ry="5.3"/>
	</g>
	<circle class="st2" cx="119.7" cy="71.2" r="4.1"/>
</g>
<g>
	<g>
		
			<ellipse transform="matrix(0.7863 -0.6178 0.6178 0.7863 -20.9774 81.6722)" class="st1" cx="107.6" cy="71.2" rx="5.3" ry="5.3"/>
	</g>
	<circle class="st2" cx="107.6" cy="71.2" r="4.1"/>
</g>
<g>
	<g>
		<ellipse transform="matrix(0.7863 -0.6178 0.6178 0.7863 -23.5699 74.2024)" class="st1" cx="95.5" cy="71.2" rx="5.3" ry="5.3"/>
	</g>
	<circle class="st2" cx="95.5" cy="71.2" r="4.1"/>
</g>
<g>
	<g>
		<ellipse transform="matrix(0.7863 -0.6178 0.6178 0.7863 -34.185 19.4325)" class="st1" cx="11" cy="59.1" rx="5.3" ry="5.3"/>
	</g>
	<circle class="st2" cx="11" cy="59.2" r="4.1"/>
</g>
<g>
	<g>
		<ellipse transform="matrix(0.7863 -0.6178 0.6178 0.7863 -18.7395 64.1805)" class="st1" cx="83.4" cy="59.2" rx="5.3" ry="5.3"/>
	</g>
	<circle class="st2" cx="83.4" cy="59.2" r="4.1"/>
</g>
<g>
	<g>
		<ellipse transform="matrix(0.7863 -0.6178 0.6178 0.7863 -21.2771 56.7461)" class="st1" cx="71.4" cy="59.1" rx="5.3" ry="5.3"/>
	</g>
	<circle class="st2" cx="71.4" cy="59.2" r="4.1"/>
</g>
<g>
	<g>
		<ellipse transform="matrix(0.7863 -0.6178 0.6178 0.7863 -23.8697 49.2763)" class="st1" cx="59.3" cy="59.1" rx="5.3" ry="5.3"/>
	</g>
	<circle class="st2" cx="59.3" cy="59.2" r="4.1"/>
</g>
<g>
	<g>
		<ellipse transform="matrix(0.7863 -0.6178 0.6178 0.7863 -26.4623 41.8065)" class="st1" cx="47.2" cy="59.2" rx="5.3" ry="5.3"/>
	</g>
	<circle class="st2" cx="47.2" cy="59.2" r="4.1"/>
</g>
<g>
	<g>
		<ellipse transform="matrix(0.7863 -0.6178 0.6178 0.7863 -29.0548 34.3367)" class="st1" cx="35.1" cy="59.2" rx="5.3" ry="5.3"/>
	</g>
	<circle class="st2" cx="35.1" cy="59.2" r="4.1"/>
</g>
<g>
	<g>
		<ellipse transform="matrix(0.7863 -0.6178 0.6178 0.7863 -31.6474 26.8669)" class="st1" cx="23" cy="59.2" rx="5.3" ry="5.3"/>
	</g>
	<circle class="st2" cx="23" cy="59.2" r="4.1"/>
</g>
<g>
	<g>
		
			<ellipse transform="matrix(0.7863 -0.6178 0.6178 0.7863 -5.8316 101.4941)" class="st1" cx="143.8" cy="59.2" rx="5.3" ry="5.3"/>
	</g>
	<circle class="st2" cx="143.8" cy="59.2" r="4.1"/>
</g>
<g>
	<g>
		<ellipse transform="matrix(0.7863 -0.6178 0.6178 0.7863 -8.4242 94.0243)" class="st1" cx="131.7" cy="59.2" rx="5.3" ry="5.3"/>
	</g>
	<circle class="st2" cx="131.7" cy="59.2" r="4.1"/>
</g>
<g>
	<g>
		
			<ellipse transform="matrix(0.7863 -0.6178 0.6178 0.7863 -10.9618 86.5899)" class="st1" cx="119.7" cy="59.1" rx="5.3" ry="5.3"/>
	</g>
	<circle class="st2" cx="119.7" cy="59.2" r="4.1"/>
</g>
<g>
	<g>
		
			<ellipse transform="matrix(0.7863 -0.6178 0.6178 0.7863 -13.5543 79.1201)" class="st1" cx="107.6" cy="59.2" rx="5.3" ry="5.3"/>
	</g>
	<circle class="st2" cx="107.6" cy="59.2" r="4.1"/>
</g>
<g>
	<g>
		<ellipse transform="matrix(0.7863 -0.6178 0.6178 0.7863 -16.147 71.6503)" class="st1" cx="95.5" cy="59.2" rx="5.3" ry="5.3"/>
	</g>
	<circle class="st2" cx="95.5" cy="59.2" r="4.1"/>
</g>
<g>
	<g>
		<ellipse transform="matrix(0.7863 -0.6178 0.6178 0.7863 -26.6198 17.1343)" class="st1" cx="11.5" cy="47.1" rx="5.3" ry="5.3"/>
	</g>
	<circle class="st2" cx="11.5" cy="47.1" r="4.1"/>
</g>
<g>
	<g>
		<ellipse transform="matrix(0.7863 -0.6178 0.6178 0.7863 -11.1743 61.8822)" class="st1" cx="83.9" cy="47.1" rx="5.3" ry="5.3"/>
	</g>
	<circle class="st2" cx="83.9" cy="47.1" r="4.1"/>
</g>
<g>
	<g>
		<ellipse transform="matrix(0.7863 -0.6178 0.6178 0.7863 -13.7119 54.4478)" class="st1" cx="71.9" cy="47" rx="5.3" ry="5.3"/>
	</g>
	<circle class="st2" cx="71.9" cy="47.1" r="4.1"/>
</g>
<g>
	<g>
		<ellipse transform="matrix(0.7863 -0.6178 0.6178 0.7863 -16.3044 46.9781)" class="st1" cx="59.8" cy="47.1" rx="5.3" ry="5.3"/>
	</g>
	<circle class="st2" cx="59.8" cy="47.1" r="4.1"/>
</g>
<g>
	<g>
		<ellipse transform="matrix(0.7863 -0.6178 0.6178 0.7863 -18.897 39.5083)" class="st1" cx="47.7" cy="47.1" rx="5.3" ry="5.3"/>
	</g>
	<circle class="st2" cx="47.7" cy="47.1" r="4.1"/>
</g>
<g>
	<g>
		<ellipse transform="matrix(0.7863 -0.6178 0.6178 0.7863 -21.4896 32.0384)" class="st1" cx="35.6" cy="47.1" rx="5.3" ry="5.3"/>
	</g>
	<circle class="st2" cx="35.6" cy="47.1" r="4.1"/>
</g>
<g>
	<g>
		<ellipse transform="matrix(0.7863 -0.6178 0.6178 0.7863 -24.0822 24.5687)" class="st1" cx="23.5" cy="47.1" rx="5.3" ry="5.3"/>
	</g>
	<circle class="st2" cx="23.5" cy="47.1" r="4.1"/>
</g>
<g>
	<g>
		<ellipse transform="matrix(0.7863 -0.6178 0.6178 0.7863 1.7336 99.1959)" class="st1" cx="144.3" cy="47.1" rx="5.3" ry="5.3"/>
	</g>
	<circle class="st2" cx="144.3" cy="47.1" r="4.1"/>
</g>
<g>
	<g>
		<ellipse transform="matrix(0.7863 -0.6178 0.6178 0.7863 -0.859 91.726)" class="st1" cx="132.2" cy="47.1" rx="5.3" ry="5.3"/>
	</g>
	<circle class="st2" cx="132.2" cy="47.1" r="4.1"/>
</g>
<g>
	<g>
		<ellipse transform="matrix(0.7863 -0.6178 0.6178 0.7863 -3.3966 84.2916)" class="st1" cx="120.2" cy="47.1" rx="5.3" ry="5.3"/>
	</g>
	<circle class="st2" cx="120.2" cy="47.1" r="4.1"/>
</g>
<g>
	<g>
		<ellipse transform="matrix(0.7863 -0.6178 0.6178 0.7863 -5.9891 76.8219)" class="st1" cx="108.1" cy="47.1" rx="5.3" ry="5.3"/>
	</g>
	<circle class="st2" cx="108.1" cy="47.1" r="4.1"/>
</g>
<g>
	<g>
		<ellipse transform="matrix(0.7863 -0.6178 0.6178 0.7863 -8.5817 69.3521)" class="st1" cx="96" cy="47.1" rx="5.3" ry="5.3"/>
	</g>
	<circle class="st2" cx="96" cy="47.1" r="4.1"/>
</g>
<g>
	<g>
		<ellipse transform="matrix(0.7863 -0.6178 0.6178 0.7863 -19.1968 14.5821)" class="st1" cx="11.5" cy="35" rx="5.3" ry="5.3"/>
	</g>
	<circle class="st2" cx="11.5" cy="35.1" r="4.1"/>
</g>
<g>
	<g>
		<ellipse transform="matrix(0.7863 -0.6178 0.6178 0.7863 -3.7513 59.3301)" class="st1" cx="83.9" cy="35.1" rx="5.3" ry="5.3"/>
	</g>
	<circle class="st2" cx="83.9" cy="35.1" r="4.1"/>
</g>
<g>
	<g>
		<ellipse transform="matrix(0.7863 -0.6178 0.6178 0.7863 -6.2889 51.8957)" class="st1" cx="71.9" cy="35" rx="5.3" ry="5.3"/>
	</g>
	<circle class="st2" cx="71.9" cy="35.1" r="4.1"/>
</g>
<g>
	<g>
		<ellipse transform="matrix(0.7863 -0.6178 0.6178 0.7863 -8.8815 44.4259)" class="st1" cx="59.8" cy="35.1" rx="5.3" ry="5.3"/>
	</g>
	<circle class="st2" cx="59.8" cy="35.1" r="4.1"/>
</g>
<g>
	<g>
		<ellipse transform="matrix(0.7863 -0.6178 0.6178 0.7863 -11.474 36.9561)" class="st1" cx="47.7" cy="35.1" rx="5.3" ry="5.3"/>
	</g>
	<circle class="st2" cx="47.7" cy="35.1" r="4.1"/>
</g>
<g>
	<g>
		<ellipse transform="matrix(0.7863 -0.6178 0.6178 0.7863 -14.0666 29.4863)" class="st1" cx="35.6" cy="35.1" rx="5.3" ry="5.3"/>
	</g>
	<circle class="st2" cx="35.6" cy="35.1" r="4.1"/>
</g>
<g>
	<g>
		<ellipse transform="matrix(0.7863 -0.6178 0.6178 0.7863 -16.6592 22.0165)" class="st1" cx="23.5" cy="35.1" rx="5.3" ry="5.3"/>
	</g>
	<circle class="st2" cx="23.5" cy="35.1" r="4.1"/>
</g>
<g>
	<g>
		<ellipse transform="matrix(0.7863 -0.6178 0.6178 0.7863 9.1566 96.6437)" class="st1" cx="144.3" cy="35.1" rx="5.3" ry="5.3"/>
	</g>
	<circle class="st2" cx="144.3" cy="35.1" r="4.1"/>
</g>
<g>
	<g>
		<ellipse transform="matrix(0.7863 -0.6178 0.6178 0.7863 6.564 89.1739)" class="st1" cx="132.2" cy="35.1" rx="5.3" ry="5.3"/>
	</g>
	<circle class="st2" cx="132.2" cy="35.1" r="4.1"/>
</g>
<g>
	<g>
		<ellipse transform="matrix(0.7863 -0.6178 0.6178 0.7863 4.0264 81.7395)" class="st1" cx="120.2" cy="35" rx="5.3" ry="5.3"/>
	</g>
	<circle class="st2" cx="120.2" cy="35.1" r="4.1"/>
</g>
<g>
	<g>
		<ellipse transform="matrix(0.7863 -0.6178 0.6178 0.7863 1.4339 74.2697)" class="st1" cx="108.1" cy="35.1" rx="5.3" ry="5.3"/>
	</g>
	<circle class="st2" cx="108.1" cy="35.1" r="4.1"/>
</g>
<g>
	<g>
		<ellipse transform="matrix(0.7863 -0.6178 0.6178 0.7863 -1.1588 66.7999)" class="st1" cx="96" cy="35.1" rx="5.3" ry="5.3"/>
	</g>
	<circle class="st2" cx="96" cy="35.1" r="4.1"/>
</g>
<g>
	<g>
		<ellipse transform="matrix(0.7863 -0.6178 0.6178 0.7863 -11.8516 11.8554)" class="st1" cx="11.2" cy="23.1" rx="5.3" ry="5.3"/>
	</g>
	<circle class="st2" cx="11.2" cy="23.1" r="4.1"/>
</g>
<g>
	<g>
		<ellipse transform="matrix(0.7863 -0.6178 0.6178 0.7863 3.6488 56.6388)" class="st1" cx="83.7" cy="23" rx="5.3" ry="5.3"/>
	</g>
	<circle class="st2" cx="83.7" cy="23.1" r="4.1"/>
</g>
<g>
	<g>
		<ellipse transform="matrix(0.7863 -0.6178 0.6178 0.7863 1.0563 49.169)" class="st1" cx="71.6" cy="23.1" rx="5.3" ry="5.3"/>
	</g>
	<circle class="st2" cx="71.6" cy="23.1" r="4.1"/>
</g>
<g>
	<g>
		<ellipse transform="matrix(0.7863 -0.6178 0.6178 0.7863 -1.5363 41.6992)" class="st1" cx="59.5" cy="23.1" rx="5.3" ry="5.3"/>
	</g>
	<circle class="st2" cx="59.5" cy="23.1" r="4.1"/>
</g>
<g>
	<g>
		<ellipse transform="matrix(0.7863 -0.6178 0.6178 0.7863 -4.1289 34.2294)" class="st1" cx="47.4" cy="23.1" rx="5.3" ry="5.3"/>
	</g>
	<circle class="st2" cx="47.4" cy="23.1" r="4.1"/>
</g>
<g>
	<g>
		<ellipse transform="matrix(0.7863 -0.6178 0.6178 0.7863 -6.6665 26.795)" class="st1" cx="35.4" cy="23" rx="5.3" ry="5.3"/>
	</g>
	<circle class="st2" cx="35.4" cy="23.1" r="4.1"/>
</g>
<g>
	<g>
		<ellipse transform="matrix(0.7863 -0.6178 0.6178 0.7863 -9.2591 19.3252)" class="st1" cx="23.3" cy="23" rx="5.3" ry="5.3"/>
	</g>
	<circle class="st2" cx="23.3" cy="23.1" r="4.1"/>
</g>
<g>
	<g>
		<ellipse transform="matrix(0.7863 -0.6178 0.6178 0.7863 16.5567 93.9523)" class="st1" cx="144.1" cy="23" rx="5.3" ry="5.3"/>
	</g>
	<circle class="st2" cx="144.1" cy="23.1" r="4.1"/>
</g>
<g>
	<g>
		<ellipse transform="matrix(0.7863 -0.6178 0.6178 0.7863 13.9641 86.4826)" class="st1" cx="132" cy="23.1" rx="5.3" ry="5.3"/>
	</g>
	<circle class="st2" cx="132" cy="23.1" r="4.1"/>
</g>
<g>
	<g>
		<ellipse transform="matrix(0.7863 -0.6178 0.6178 0.7863 11.3716 79.0127)" class="st1" cx="119.9" cy="23.1" rx="5.3" ry="5.3"/>
	</g>
	<circle class="st2" cx="119.9" cy="23.1" r="4.1"/>
</g>
<g>
	<g>
		<ellipse transform="matrix(0.7863 -0.6178 0.6178 0.7863 8.779 71.5429)" class="st1" cx="107.8" cy="23.1" rx="5.3" ry="5.3"/>
	</g>
	<circle class="st2" cx="107.8" cy="23.1" r="4.1"/>
</g>
<g>
	<g>
		<ellipse transform="matrix(0.7863 -0.6178 0.6178 0.7863 6.2414 64.1086)" class="st1" cx="95.8" cy="23" rx="5.3" ry="5.3"/>
	</g>
	<circle class="st2" cx="95.8" cy="23.1" r="4.1"/>
</g>
<g>
	<g>
		<ellipse transform="matrix(0.7863 -0.6178 0.6178 0.7863 -4.3933 9.2482)" class="st1" cx="11.2" cy="11" rx="5.3" ry="5.3"/>
	</g>
	<circle class="st2" cx="11.2" cy="11" r="4.1"/>
</g>
<g>
	<g>
		<ellipse transform="matrix(0.7863 -0.6178 0.6178 0.7863 11.1072 54.0316)" class="st1" cx="83.7" cy="11" rx="5.3" ry="5.3"/>
	</g>
	<circle class="st2" cx="83.7" cy="11" r="4.1"/>
</g>
<g>
	<g>
		<ellipse transform="matrix(0.7863 -0.6178 0.6178 0.7863 8.5146 46.5619)" class="st1" cx="71.6" cy="11" rx="5.3" ry="5.3"/>
	</g>
	<circle class="st2" cx="71.6" cy="11" r="4.1"/>
</g>
<g>
	<g>
		<ellipse transform="matrix(0.7863 -0.6178 0.6178 0.7863 5.922 39.092)" class="st1" cx="59.5" cy="11" rx="5.3" ry="5.3"/>
	</g>
	<circle class="st2" cx="59.5" cy="11" r="4.1"/>
</g>
<g>
	<g>
		<ellipse transform="matrix(0.7863 -0.6178 0.6178 0.7863 3.3295 31.6222)" class="st1" cx="47.4" cy="11" rx="5.3" ry="5.3"/>
	</g>
	<circle class="st2" cx="47.4" cy="11" r="4.1"/>
</g>
<g>
	<g>
		<ellipse transform="matrix(0.7863 -0.6178 0.6178 0.7863 0.7918 24.1879)" class="st1" cx="35.4" cy="10.9" rx="5.3" ry="5.3"/>
	</g>
	<circle class="st2" cx="35.4" cy="11" r="4.1"/>
</g>
<g>
	<g>
		<ellipse transform="matrix(0.7863 -0.6178 0.6178 0.7863 -1.8007 16.7181)" class="st1" cx="23.3" cy="11" rx="5.3" ry="5.3"/>
	</g>
	<circle class="st2" cx="23.3" cy="11" r="4.1"/>
</g>
<g>
	<g>
		<ellipse transform="matrix(0.7863 -0.6178 0.6178 0.7863 24.0151 91.3452)" class="st1" cx="144.1" cy="11" rx="5.3" ry="5.3"/>
	</g>
	<circle class="st2" cx="144.1" cy="11" r="4.1"/>
</g>
<g>
	<g>
		<ellipse transform="matrix(0.7863 -0.6178 0.6178 0.7863 21.4225 83.8754)" class="st1" cx="132" cy="11" rx="5.3" ry="5.3"/>
	</g>
	<circle class="st2" cx="132" cy="11" r="4.1"/>
</g>
<g>
	<g>
		<ellipse transform="matrix(0.7863 -0.6178 0.6178 0.7863 18.83 76.4057)" class="st1" cx="119.9" cy="11" rx="5.3" ry="5.3"/>
	</g>
	<circle class="st2" cx="119.9" cy="11" r="4.1"/>
</g>
<g>
	<g>
		<ellipse transform="matrix(0.7863 -0.6178 0.6178 0.7863 16.2373 68.9358)" class="st1" cx="107.8" cy="11" rx="5.3" ry="5.3"/>
	</g>
	<circle class="st2" cx="107.8" cy="11" r="4.1"/>
</g>
<g>
	<g>
		<ellipse transform="matrix(0.7863 -0.6178 0.6178 0.7863 13.6998 61.5014)" class="st1" cx="95.8" cy="10.9" rx="5.3" ry="5.3"/>
	</g>
	<circle class="st2" cx="95.8" cy="11" r="4.1"/>
</g>
<g>
	<g>
		<ellipse transform="matrix(0.7863 -0.6178 0.6178 0.7863 -56.4253 27.3234)" class="st3" cx="11.3" cy="95.2" rx="5.3" ry="5.3"/>
	</g>
	<circle class="st4" cx="11.3" cy="95.2" r="4.1"/>
</g>
<g>
	<g>
		<ellipse transform="matrix(0.7863 -0.6178 0.6178 0.7863 -53.8703 34.887)" class="st3" cx="23.5" cy="95.3" rx="5.3" ry="5.3"/>
	</g>
	<circle class="st4" cx="23.5" cy="95.3" r="4.1"/>
</g>
<g>
	<g>
		<ellipse transform="matrix(0.7863 -0.6178 0.6178 0.7863 -51.2064 42.413)" class="st3" cx="35.7" cy="95.2" rx="5.3" ry="5.3"/>
	</g>
	<circle class="st4" cx="35.7" cy="95.2" r="4.1"/>
</g>
<g>
	<g>
		<ellipse transform="matrix(0.7863 -0.6178 0.6178 0.7863 -48.6637 49.7647)" class="st3" cx="47.6" cy="95.2" rx="5.3" ry="5.3"/>
	</g>
	<circle class="st4" cx="47.6" cy="95.2" r="4.1"/>
</g>
<g>
	<g>
		<ellipse transform="matrix(0.7863 -0.6178 0.6178 0.7863 -46.2033 57.2126)" class="st3" cx="59.6" cy="95.4" rx="5.3" ry="5.3"/>
	</g>
	<circle class="st4" cx="59.6" cy="95.4" r="4.1"/>
</g>
<g>
	<g>
		<ellipse transform="matrix(0.7863 -0.6178 0.6178 0.7863 -43.5116 64.6613)" class="st3" cx="71.7" cy="95.2" rx="5.3" ry="5.3"/>
	</g>
	<circle class="st4" cx="71.7" cy="95.2" r="4.1"/>
</g>
</svg>
