<?xml version="1.0" encoding="utf-8"?>
<!-- Generator: Adobe Illustrator 19.2.1, SVG Export Plug-In . SVG Version: 6.00 Build 0)  -->
<svg version="1.1" id="Layer_1" xmlns="http://www.w3.org/2000/svg" xmlns:xlink="http://www.w3.org/1999/xlink" x="0px" y="0px"
	 viewBox="0 0 154.4 105.1" style="enable-background:new 0 0 154.4 105.1;" xml:space="preserve">
<style type="text/css">
	.st0{fill:#4366B0;stroke:#010101;stroke-miterlimit:10;}
	.st1{fill:#B4B2A3;}
	.st2{fill:#D5D3CA;fill-opacity:0.8;}
	.st3{fill:#5A585A;}
	.st4{fill:#5A585A;fill-opacity:0.8;}
</style>
<path class="st0" d="M142.4,105.1H12c-6.6,0-12-5.4-12-12V12C0,5.4,5.4,0,12,0h130.4c6.6,0,12,5.4,12,12v81.1
	C154.4,99.7,149,105.1,142.4,105.1z"/>
<g>
	<g>
		<ellipse transform="matrix(0.7863 -0.6178 0.6178 0.7863 -40.309 71.8393)" class="st1" cx="83.7" cy="94.2" rx="5.3" ry="5.3"/>
	</g>
	<circle class="st2" cx="83.7" cy="94.2" r="4.1"/>
</g>
<g>
	<g>
		<ellipse transform="matrix(0.7863 -0.6178 0.6178 0.7863 -42.9016 64.3695)" class="st1" cx="71.6" cy="94.2" rx="5.3" ry="5.3"/>
	</g>
	<circle class="st2" cx="71.6" cy="94.2" r="4.1"/>
</g>
<g>
	<g>
		
			<ellipse transform="matrix(0.7863 -0.6178 0.6178 0.7863 -27.4011 109.1529)" class="st1" cx="144.1" cy="94.2" rx="5.3" ry="5.3"/>
	</g>
	<circle class="st2" cx="144.1" cy="94.2" r="4.1"/>
</g>
<g>
	<g>
		<ellipse transform="matrix(0.7863 -0.6178 0.6178 0.7863 -29.9937 101.6831)" class="st1" cx="132" cy="94.2" rx="5.3" ry="5.3"/>
	</g>
	<circle class="st2" cx="132" cy="94.2" r="4.1"/>
</g>
<g>
	<g>
		
			<ellipse transform="matrix(0.7863 -0.6178 0.6178 0.7863 -32.5863 94.2133)" class="st1" cx="119.9" cy="94.2" rx="5.3" ry="5.3"/>
	</g>
	<circle class="st2" cx="119.9" cy="94.2" r="4.1"/>
</g>
<g>
	<g>
		
			<ellipse transform="matrix(0.7863 -0.6178 0.6178 0.7863 -35.1788 86.7435)" class="st1" cx="107.8" cy="94.2" rx="5.3" ry="5.3"/>
	</g>
	<circle class="st2" cx="107.8" cy="94.2" r="4.1"/>
</g>
<g>
	<g>
		<ellipse transform="matrix(0.7863 -0.6178 0.6178 0.7863 -37.7164 79.3091)" class="st1" cx="95.8" cy="94.2" rx="5.3" ry="5.3"/>
	</g>
	<circle class="st2" cx="95.8" cy="94.2" r="4.1"/>
</g>
<g>
	<g>
		<ellipse transform="matrix(0.7863 -0.6178 0.6178 0.7863 -48.3865 24.5037)" class="st1" cx="11.2" cy="82.2" rx="5.3" ry="5.3"/>
	</g>
	<circle class="st2" cx="11.2" cy="82.2" r="4.1"/>
</g>
<g>
	<g>
		<ellipse transform="matrix(0.7863 -0.6178 0.6178 0.7863 -32.886 69.2871)" class="st1" cx="83.7" cy="82.2" rx="5.3" ry="5.3"/>
	</g>
	<circle class="st2" cx="83.7" cy="82.2" r="4.1"/>
</g>
<g>
	<g>
		<ellipse transform="matrix(0.7863 -0.6178 0.6178 0.7863 -35.4786 61.8174)" class="st1" cx="71.6" cy="82.2" rx="5.3" ry="5.3"/>
	</g>
	<circle class="st2" cx="71.6" cy="82.2" r="4.1"/>
</g>
<g>
	<g>
		<ellipse transform="matrix(0.7863 -0.6178 0.6178 0.7863 -38.0712 54.3475)" class="st1" cx="59.5" cy="82.2" rx="5.3" ry="5.3"/>
	</g>
	<circle class="st2" cx="59.5" cy="82.2" r="4.1"/>
</g>
<g>
	<g>
		<ellipse transform="matrix(0.7863 -0.6178 0.6178 0.7863 -40.6088 46.9131)" class="st1" cx="47.5" cy="82.2" rx="5.3" ry="5.3"/>
	</g>
	<circle class="st2" cx="47.5" cy="82.2" r="4.1"/>
</g>
<g>
	<g>
		<ellipse transform="matrix(0.7863 -0.6178 0.6178 0.7863 -43.2013 39.4434)" class="st1" cx="35.4" cy="82.2" rx="5.3" ry="5.3"/>
	</g>
	<circle class="st2" cx="35.4" cy="82.2" r="4.1"/>
</g>
<g>
	<g>
		<ellipse transform="matrix(0.7863 -0.6178 0.6178 0.7863 -45.7939 31.9736)" class="st1" cx="23.3" cy="82.2" rx="5.3" ry="5.3"/>
	</g>
	<circle class="st2" cx="23.3" cy="82.2" r="4.1"/>
</g>
<g>
	<g>
		
			<ellipse transform="matrix(0.7863 -0.6178 0.6178 0.7863 -19.9781 106.6007)" class="st1" cx="144.1" cy="82.2" rx="5.3" ry="5.3"/>
	</g>
	<circle class="st2" cx="144.1" cy="82.2" r="4.1"/>
</g>
<g>
	<g>
		<ellipse transform="matrix(0.7863 -0.6178 0.6178 0.7863 -22.5707 99.1309)" class="st1" cx="132" cy="82.2" rx="5.3" ry="5.3"/>
	</g>
	<circle class="st2" cx="132" cy="82.2" r="4.1"/>
</g>
<g>
	<g>
		
			<ellipse transform="matrix(0.7863 -0.6178 0.6178 0.7863 -25.1633 91.6611)" class="st1" cx="119.9" cy="82.2" rx="5.3" ry="5.3"/>
	</g>
	<circle class="st2" cx="119.9" cy="82.2" r="4.1"/>
</g>
<g>
	<g>
		
			<ellipse transform="matrix(0.7863 -0.6178 0.6178 0.7863 -27.7559 84.1913)" class="st1" cx="107.8" cy="82.2" rx="5.3" ry="5.3"/>
	</g>
	<circle class="st2" cx="107.8" cy="82.2" r="4.1"/>
</g>
<g>
	<g>
		<ellipse transform="matrix(0.7863 -0.6178 0.6178 0.7863 -30.2935 76.7569)" class="st1" cx="95.8" cy="82.2" rx="5.3" ry="5.3"/>
	</g>
	<circle class="st2" cx="95.8" cy="82.2" r="4.1"/>
</g>
<g>
	<g>
		<ellipse transform="matrix(0.7863 -0.6178 0.6178 0.7863 -40.951 21.7575)" class="st1" cx="11" cy="70.1" rx="5.3" ry="5.3"/>
	</g>
	<circle class="st2" cx="11" cy="70.1" r="4.1"/>
</g>
<g>
	<g>
		<ellipse transform="matrix(0.7863 -0.6178 0.6178 0.7863 -25.5055 66.5054)" class="st1" cx="83.4" cy="70.1" rx="5.3" ry="5.3"/>
	</g>
	<circle class="st2" cx="83.4" cy="70.1" r="4.1"/>
</g>
<g>
	<g>
		<ellipse transform="matrix(0.7863 -0.6178 0.6178 0.7863 -28.0431 59.071)" class="st1" cx="71.4" cy="70.1" rx="5.3" ry="5.3"/>
	</g>
	<circle class="st2" cx="71.4" cy="70.1" r="4.1"/>
</g>
<g>
	<g>
		<ellipse transform="matrix(0.7863 -0.6178 0.6178 0.7863 -30.6356 51.6012)" class="st1" cx="59.3" cy="70.1" rx="5.3" ry="5.3"/>
	</g>
	<circle class="st2" cx="59.3" cy="70.1" r="4.1"/>
</g>
<g>
	<g>
		<ellipse transform="matrix(0.7863 -0.6178 0.6178 0.7863 -33.2283 44.1314)" class="st1" cx="47.2" cy="70.1" rx="5.3" ry="5.3"/>
	</g>
	<circle class="st2" cx="47.2" cy="70.1" r="4.1"/>
</g>
<g>
	<g>
		<ellipse transform="matrix(0.7863 -0.6178 0.6178 0.7863 -35.8208 36.6616)" class="st1" cx="35.1" cy="70.1" rx="5.3" ry="5.3"/>
	</g>
	<circle class="st2" cx="35.1" cy="70.1" r="4.1"/>
</g>
<g>
	<g>
		<ellipse transform="matrix(0.7863 -0.6178 0.6178 0.7863 -38.4133 29.1919)" class="st1" cx="23" cy="70.1" rx="5.3" ry="5.3"/>
	</g>
	<circle class="st2" cx="23" cy="70.1" r="4.1"/>
</g>
<g>
	<g>
		
			<ellipse transform="matrix(0.7863 -0.6178 0.6178 0.7863 -12.5976 103.819)" class="st1" cx="143.8" cy="70.1" rx="5.3" ry="5.3"/>
	</g>
	<circle class="st2" cx="143.8" cy="70.1" r="4.1"/>
</g>
<g>
	<g>
		
			<ellipse transform="matrix(0.7863 -0.6178 0.6178 0.7863 -15.1901 96.3492)" class="st1" cx="131.7" cy="70.1" rx="5.3" ry="5.3"/>
	</g>
	<circle class="st2" cx="131.7" cy="70.1" r="4.1"/>
</g>
<g>
	<g>
		
			<ellipse transform="matrix(0.7863 -0.6178 0.6178 0.7863 -17.7278 88.9148)" class="st1" cx="119.7" cy="70.1" rx="5.3" ry="5.3"/>
	</g>
	<circle class="st2" cx="119.7" cy="70.1" r="4.1"/>
</g>
<g>
	<g>
		<ellipse transform="matrix(0.7863 -0.6178 0.6178 0.7863 -20.3203 81.445)" class="st1" cx="107.6" cy="70.1" rx="5.3" ry="5.3"/>
	</g>
	<circle class="st2" cx="107.6" cy="70.1" r="4.1"/>
</g>
<g>
	<g>
		<ellipse transform="matrix(0.7863 -0.6178 0.6178 0.7863 -22.9129 73.9752)" class="st1" cx="95.5" cy="70.1" rx="5.3" ry="5.3"/>
	</g>
	<circle class="st2" cx="95.5" cy="70.1" r="4.1"/>
</g>
<g>
	<g>
		<ellipse transform="matrix(0.7863 -0.6178 0.6178 0.7863 -33.528 19.2053)" class="st1" cx="11" cy="58.1" rx="5.3" ry="5.3"/>
	</g>
	<circle class="st2" cx="11" cy="58.1" r="4.1"/>
</g>
<g>
	<g>
		<ellipse transform="matrix(0.7863 -0.6178 0.6178 0.7863 -18.0825 63.9533)" class="st1" cx="83.4" cy="58.1" rx="5.3" ry="5.3"/>
	</g>
	<circle class="st2" cx="83.4" cy="58.1" r="4.1"/>
</g>
<g>
	<g>
		<ellipse transform="matrix(0.7863 -0.6178 0.6178 0.7863 -20.6201 56.5189)" class="st1" cx="71.4" cy="58.1" rx="5.3" ry="5.3"/>
	</g>
	<circle class="st2" cx="71.4" cy="58.1" r="4.1"/>
</g>
<g>
	<g>
		<ellipse transform="matrix(0.7863 -0.6178 0.6178 0.7863 -23.2127 49.0491)" class="st1" cx="59.3" cy="58.1" rx="5.3" ry="5.3"/>
	</g>
	<circle class="st2" cx="59.3" cy="58.1" r="4.1"/>
</g>
<g>
	<g>
		<ellipse transform="matrix(0.7863 -0.6178 0.6178 0.7863 -25.8053 41.5793)" class="st1" cx="47.2" cy="58.1" rx="5.3" ry="5.3"/>
	</g>
	<circle class="st2" cx="47.2" cy="58.1" r="4.1"/>
</g>
<g>
	<g>
		<ellipse transform="matrix(0.7863 -0.6178 0.6178 0.7863 -28.3978 34.1095)" class="st1" cx="35.1" cy="58.1" rx="5.3" ry="5.3"/>
	</g>
	<circle class="st2" cx="35.1" cy="58.1" r="4.1"/>
</g>
<g>
	<g>
		<ellipse transform="matrix(0.7863 -0.6178 0.6178 0.7863 -30.9904 26.6397)" class="st1" cx="23" cy="58.1" rx="5.3" ry="5.3"/>
	</g>
	<circle class="st2" cx="23" cy="58.1" r="4.1"/>
</g>
<g>
	<g>
		
			<ellipse transform="matrix(0.7863 -0.6178 0.6178 0.7863 -5.1746 101.2668)" class="st1" cx="143.8" cy="58.1" rx="5.3" ry="5.3"/>
	</g>
	<circle class="st2" cx="143.8" cy="58.1" r="4.1"/>
</g>
<g>
	<g>
		<ellipse transform="matrix(0.7863 -0.6178 0.6178 0.7863 -7.7672 93.7971)" class="st1" cx="131.7" cy="58.1" rx="5.3" ry="5.3"/>
	</g>
	<circle class="st2" cx="131.7" cy="58.1" r="4.1"/>
</g>
<g>
	<g>
		
			<ellipse transform="matrix(0.7863 -0.6178 0.6178 0.7863 -10.3048 86.3627)" class="st1" cx="119.7" cy="58.1" rx="5.3" ry="5.3"/>
	</g>
	<circle class="st2" cx="119.7" cy="58.1" r="4.1"/>
</g>
<g>
	<g>
		
			<ellipse transform="matrix(0.7863 -0.6178 0.6178 0.7863 -12.8973 78.8929)" class="st1" cx="107.6" cy="58.1" rx="5.3" ry="5.3"/>
	</g>
	<circle class="st2" cx="107.6" cy="58.1" r="4.1"/>
</g>
<g>
	<g>
		<ellipse transform="matrix(0.7863 -0.6178 0.6178 0.7863 -15.49 71.4231)" class="st1" cx="95.5" cy="58.1" rx="5.3" ry="5.3"/>
	</g>
	<circle class="st2" cx="95.5" cy="58.1" r="4.1"/>
</g>
<g>
	<g>
		<ellipse transform="matrix(0.7863 -0.6178 0.6178 0.7863 -25.9628 16.907)" class="st1" cx="11.5" cy="46" rx="5.3" ry="5.3"/>
	</g>
	<circle class="st2" cx="11.5" cy="46" r="4.1"/>
</g>
<g>
	<g>
		<ellipse transform="matrix(0.7863 -0.6178 0.6178 0.7863 -10.5173 61.655)" class="st1" cx="83.9" cy="46" rx="5.3" ry="5.3"/>
	</g>
	<circle class="st2" cx="83.9" cy="46" r="4.1"/>
</g>
<g>
	<g>
		<ellipse transform="matrix(0.7863 -0.6178 0.6178 0.7863 -13.0549 54.2206)" class="st1" cx="71.9" cy="46" rx="5.3" ry="5.3"/>
	</g>
	<circle class="st2" cx="71.9" cy="46" r="4.1"/>
</g>
<g>
	<g>
		<ellipse transform="matrix(0.7863 -0.6178 0.6178 0.7863 -15.6474 46.7508)" class="st1" cx="59.8" cy="46" rx="5.3" ry="5.3"/>
	</g>
	<circle class="st2" cx="59.8" cy="46" r="4.1"/>
</g>
<g>
	<g>
		<ellipse transform="matrix(0.7863 -0.6178 0.6178 0.7863 -18.24 39.2811)" class="st1" cx="47.7" cy="46" rx="5.3" ry="5.3"/>
	</g>
	<circle class="st2" cx="47.7" cy="46" r="4.1"/>
</g>
<g>
	<g>
		<ellipse transform="matrix(0.7863 -0.6178 0.6178 0.7863 -20.8326 31.8112)" class="st1" cx="35.6" cy="46" rx="5.3" ry="5.3"/>
	</g>
	<circle class="st2" cx="35.6" cy="46" r="4.1"/>
</g>
<g>
	<g>
		<ellipse transform="matrix(0.7863 -0.6178 0.6178 0.7863 -23.4252 24.3414)" class="st1" cx="23.5" cy="46" rx="5.3" ry="5.3"/>
	</g>
	<circle class="st2" cx="23.5" cy="46" r="4.1"/>
</g>
<g>
	<g>
		<ellipse transform="matrix(0.7863 -0.6178 0.6178 0.7863 2.3906 98.9686)" class="st1" cx="144.3" cy="46" rx="5.3" ry="5.3"/>
	</g>
	<circle class="st2" cx="144.3" cy="46" r="4.1"/>
</g>
<g>
	<g>
		<ellipse transform="matrix(0.7863 -0.6178 0.6178 0.7863 -0.2019 91.4988)" class="st1" cx="132.2" cy="46" rx="5.3" ry="5.3"/>
	</g>
	<circle class="st2" cx="132.2" cy="46" r="4.1"/>
</g>
<g>
	<g>
		<ellipse transform="matrix(0.7863 -0.6178 0.6178 0.7863 -2.7396 84.0644)" class="st1" cx="120.2" cy="46" rx="5.3" ry="5.3"/>
	</g>
	<circle class="st2" cx="120.2" cy="46" r="4.1"/>
</g>
<g>
	<g>
		<ellipse transform="matrix(0.7863 -0.6178 0.6178 0.7863 -5.3321 76.5946)" class="st1" cx="108.1" cy="46" rx="5.3" ry="5.3"/>
	</g>
	<circle class="st2" cx="108.1" cy="46" r="4.1"/>
</g>
<g>
	<g>
		<ellipse transform="matrix(0.7863 -0.6178 0.6178 0.7863 -7.9247 69.1248)" class="st1" cx="96" cy="46" rx="5.3" ry="5.3"/>
	</g>
	<circle class="st2" cx="96" cy="46" r="4.1"/>
</g>
<g>
	<g>
		<ellipse transform="matrix(0.7863 -0.6178 0.6178 0.7863 -18.5398 14.3549)" class="st1" cx="11.5" cy="34" rx="5.3" ry="5.3"/>
	</g>
	<circle class="st2" cx="11.5" cy="34" r="4.1"/>
</g>
<g>
	<g>
		<ellipse transform="matrix(0.7863 -0.6178 0.6178 0.7863 -3.0943 59.1029)" class="st1" cx="83.9" cy="34" rx="5.3" ry="5.3"/>
	</g>
	<circle class="st2" cx="83.9" cy="34" r="4.1"/>
</g>
<g>
	<g>
		<ellipse transform="matrix(0.7863 -0.6178 0.6178 0.7863 -5.6319 51.6684)" class="st1" cx="71.9" cy="34" rx="5.3" ry="5.3"/>
	</g>
	<circle class="st2" cx="71.9" cy="34" r="4.1"/>
</g>
<g>
	<g>
		<ellipse transform="matrix(0.7863 -0.6178 0.6178 0.7863 -8.2245 44.1987)" class="st1" cx="59.8" cy="34" rx="5.3" ry="5.3"/>
	</g>
	<circle class="st2" cx="59.8" cy="34" r="4.1"/>
</g>
<g>
	<g>
		<ellipse transform="matrix(0.7863 -0.6178 0.6178 0.7863 -10.817 36.7289)" class="st1" cx="47.7" cy="34" rx="5.3" ry="5.3"/>
	</g>
	<circle class="st2" cx="47.7" cy="34" r="4.1"/>
</g>
<g>
	<g>
		<ellipse transform="matrix(0.7863 -0.6178 0.6178 0.7863 -13.4096 29.2591)" class="st1" cx="35.6" cy="34" rx="5.3" ry="5.3"/>
	</g>
	<circle class="st2" cx="35.6" cy="34" r="4.1"/>
</g>
<g>
	<g>
		<ellipse transform="matrix(0.7863 -0.6178 0.6178 0.7863 -16.0022 21.7893)" class="st1" cx="23.5" cy="34" rx="5.3" ry="5.3"/>
	</g>
	<circle class="st2" cx="23.5" cy="34" r="4.1"/>
</g>
<g>
	<g>
		<ellipse transform="matrix(0.7863 -0.6178 0.6178 0.7863 9.8136 96.4165)" class="st1" cx="144.3" cy="34" rx="5.3" ry="5.3"/>
	</g>
	<circle class="st2" cx="144.3" cy="34" r="4.1"/>
</g>
<g>
	<g>
		<ellipse transform="matrix(0.7863 -0.6178 0.6178 0.7863 7.221 88.9466)" class="st1" cx="132.2" cy="34" rx="5.3" ry="5.3"/>
	</g>
	<circle class="st2" cx="132.2" cy="34" r="4.1"/>
</g>
<g>
	<g>
		<ellipse transform="matrix(0.7863 -0.6178 0.6178 0.7863 4.6834 81.5122)" class="st1" cx="120.2" cy="34" rx="5.3" ry="5.3"/>
	</g>
	<circle class="st2" cx="120.2" cy="34" r="4.1"/>
</g>
<g>
	<g>
		<ellipse transform="matrix(0.7863 -0.6178 0.6178 0.7863 2.0909 74.0424)" class="st1" cx="108.1" cy="34" rx="5.3" ry="5.3"/>
	</g>
	<circle class="st2" cx="108.1" cy="34" r="4.1"/>
</g>
<g>
	<g>
		<ellipse transform="matrix(0.7863 -0.6178 0.6178 0.7863 -0.5017 66.5727)" class="st1" cx="96" cy="34" rx="5.3" ry="5.3"/>
	</g>
	<circle class="st2" cx="96" cy="34" r="4.1"/>
</g>
<g>
	<g>
		<ellipse transform="matrix(0.7863 -0.6178 0.6178 0.7863 -11.1946 11.6281)" class="st1" cx="11.2" cy="22" rx="5.3" ry="5.3"/>
	</g>
	<circle class="st2" cx="11.2" cy="22" r="4.1"/>
</g>
<g>
	<g>
		<ellipse transform="matrix(0.7863 -0.6178 0.6178 0.7863 4.3058 56.4115)" class="st1" cx="83.7" cy="22" rx="5.3" ry="5.3"/>
	</g>
	<circle class="st2" cx="83.7" cy="22" r="4.1"/>
</g>
<g>
	<g>
		<ellipse transform="matrix(0.7863 -0.6178 0.6178 0.7863 1.7133 48.9418)" class="st1" cx="71.6" cy="22" rx="5.3" ry="5.3"/>
	</g>
	<circle class="st2" cx="71.6" cy="22" r="4.1"/>
</g>
<g>
	<g>
		<ellipse transform="matrix(0.7863 -0.6178 0.6178 0.7863 -0.8793 41.4719)" class="st1" cx="59.5" cy="22" rx="5.3" ry="5.3"/>
	</g>
	<circle class="st2" cx="59.5" cy="22" r="4.1"/>
</g>
<g>
	<g>
		<ellipse transform="matrix(0.7863 -0.6178 0.6178 0.7863 -3.4719 34.0022)" class="st1" cx="47.4" cy="22" rx="5.3" ry="5.3"/>
	</g>
	<circle class="st2" cx="47.4" cy="22" r="4.1"/>
</g>
<g>
	<g>
		<ellipse transform="matrix(0.7863 -0.6178 0.6178 0.7863 -6.0095 26.5677)" class="st1" cx="35.4" cy="22" rx="5.3" ry="5.3"/>
	</g>
	<circle class="st2" cx="35.4" cy="22" r="4.1"/>
</g>
<g>
	<g>
		<ellipse transform="matrix(0.7863 -0.6178 0.6178 0.7863 -8.6021 19.098)" class="st1" cx="23.3" cy="22" rx="5.3" ry="5.3"/>
	</g>
	<circle class="st2" cx="23.3" cy="22" r="4.1"/>
</g>
<g>
	<g>
		<ellipse transform="matrix(0.7863 -0.6178 0.6178 0.7863 17.2138 93.7251)" class="st1" cx="144.1" cy="22" rx="5.3" ry="5.3"/>
	</g>
	<circle class="st2" cx="144.1" cy="22" r="4.1"/>
</g>
<g>
	<g>
		<ellipse transform="matrix(0.7863 -0.6178 0.6178 0.7863 14.6211 86.2553)" class="st1" cx="132" cy="22" rx="5.3" ry="5.3"/>
	</g>
	<circle class="st2" cx="132" cy="22" r="4.1"/>
</g>
<g>
	<g>
		<ellipse transform="matrix(0.7863 -0.6178 0.6178 0.7863 12.0286 78.7855)" class="st1" cx="119.9" cy="22" rx="5.3" ry="5.3"/>
	</g>
	<circle class="st2" cx="119.9" cy="22" r="4.1"/>
</g>
<g>
	<g>
		<ellipse transform="matrix(0.7863 -0.6178 0.6178 0.7863 9.436 71.3157)" class="st1" cx="107.8" cy="22" rx="5.3" ry="5.3"/>
	</g>
	<circle class="st2" cx="107.8" cy="22" r="4.1"/>
</g>
<g>
	<g>
		<ellipse transform="matrix(0.7863 -0.6178 0.6178 0.7863 6.8984 63.8813)" class="st1" cx="95.8" cy="22" rx="5.3" ry="5.3"/>
	</g>
	<circle class="st2" cx="95.8" cy="22" r="4.1"/>
</g>
<g>
	<g>
		<ellipse transform="matrix(0.7863 -0.6178 0.6178 0.7863 -3.7363 9.021)" class="st1" cx="11.2" cy="9.9" rx="5.3" ry="5.3"/>
	</g>
	<circle class="st2" cx="11.2" cy="9.9" r="4.1"/>
</g>
<g>
	<g>
		<ellipse transform="matrix(0.7863 -0.6178 0.6178 0.7863 11.7642 53.8044)" class="st1" cx="83.7" cy="9.9" rx="5.3" ry="5.3"/>
	</g>
	<circle class="st2" cx="83.7" cy="9.9" r="4.1"/>
</g>
<g>
	<g>
		<ellipse transform="matrix(0.7863 -0.6178 0.6178 0.7863 9.1716 46.3346)" class="st1" cx="71.6" cy="9.9" rx="5.3" ry="5.3"/>
	</g>
	<circle class="st2" cx="71.6" cy="9.9" r="4.1"/>
</g>
<g>
	<g>
		<ellipse transform="matrix(0.7863 -0.6178 0.6178 0.7863 6.579 38.8648)" class="st1" cx="59.5" cy="9.9" rx="5.3" ry="5.3"/>
	</g>
	<circle class="st2" cx="59.5" cy="9.9" r="4.1"/>
</g>
<g>
	<g>
		<ellipse transform="matrix(0.7863 -0.6178 0.6178 0.7863 3.9865 31.395)" class="st1" cx="47.4" cy="9.9" rx="5.3" ry="5.3"/>
	</g>
	<circle class="st2" cx="47.4" cy="9.9" r="4.1"/>
</g>
<g>
	<g>
		<ellipse transform="matrix(0.7863 -0.6178 0.6178 0.7863 1.4489 23.9606)" class="st1" cx="35.4" cy="9.9" rx="5.3" ry="5.3"/>
	</g>
	<circle class="st2" cx="35.4" cy="9.9" r="4.1"/>
</g>
<g>
	<g>
		<ellipse transform="matrix(0.7863 -0.6178 0.6178 0.7863 -1.1437 16.4908)" class="st1" cx="23.3" cy="9.9" rx="5.3" ry="5.3"/>
	</g>
	<circle class="st2" cx="23.3" cy="9.9" r="4.1"/>
</g>
<g>
	<g>
		<ellipse transform="matrix(0.7863 -0.6178 0.6178 0.7863 24.6721 91.118)" class="st1" cx="144.1" cy="9.9" rx="5.3" ry="5.3"/>
	</g>
	<circle class="st2" cx="144.1" cy="9.9" r="4.1"/>
</g>
<g>
	<g>
		<ellipse transform="matrix(0.7863 -0.6178 0.6178 0.7863 22.0795 83.6482)" class="st1" cx="132" cy="9.9" rx="5.3" ry="5.3"/>
	</g>
	<circle class="st2" cx="132" cy="9.9" r="4.1"/>
</g>
<g>
	<g>
		<ellipse transform="matrix(0.7863 -0.6178 0.6178 0.7863 19.487 76.1784)" class="st1" cx="119.9" cy="9.9" rx="5.3" ry="5.3"/>
	</g>
	<circle class="st2" cx="119.9" cy="9.9" r="4.1"/>
</g>
<g>
	<g>
		<ellipse transform="matrix(0.7863 -0.6178 0.6178 0.7863 16.8943 68.7086)" class="st1" cx="107.8" cy="9.9" rx="5.3" ry="5.3"/>
	</g>
	<circle class="st2" cx="107.8" cy="9.9" r="4.1"/>
</g>
<g>
	<g>
		<ellipse transform="matrix(0.7863 -0.6178 0.6178 0.7863 14.3568 61.2742)" class="st1" cx="95.8" cy="9.9" rx="5.3" ry="5.3"/>
	</g>
	<circle class="st2" cx="95.8" cy="9.9" r="4.1"/>
</g>
<g>
	<g>
		<ellipse transform="matrix(0.7863 -0.6178 0.6178 0.7863 -55.7683 27.0961)" class="st3" cx="11.3" cy="94.2" rx="5.3" ry="5.3"/>
	</g>
	<circle class="st4" cx="11.3" cy="94.2" r="4.1"/>
</g>
<g>
	<g>
		<ellipse transform="matrix(0.7863 -0.6178 0.6178 0.7863 -53.2133 34.6598)" class="st3" cx="23.5" cy="94.3" rx="5.3" ry="5.3"/>
	</g>
	<circle class="st4" cx="23.5" cy="94.3" r="4.1"/>
</g>
<g>
	<g>
		<ellipse transform="matrix(0.7863 -0.6178 0.6178 0.7863 -50.5494 42.1857)" class="st3" cx="35.7" cy="94.2" rx="5.3" ry="5.3"/>
	</g>
	<circle class="st4" cx="35.7" cy="94.2" r="4.1"/>
</g>
<g>
	<g>
		<ellipse transform="matrix(0.7863 -0.6178 0.6178 0.7863 -48.0067 49.5375)" class="st3" cx="47.6" cy="94.2" rx="5.3" ry="5.3"/>
	</g>
	<circle class="st4" cx="47.6" cy="94.2" r="4.1"/>
</g>
<g>
	<g>
		<ellipse transform="matrix(0.7863 -0.6178 0.6178 0.7863 -45.5462 56.9853)" class="st3" cx="59.6" cy="94.3" rx="5.3" ry="5.3"/>
	</g>
	<circle class="st4" cx="59.6" cy="94.3" r="4.1"/>
</g>
</svg>
