<?xml version="1.0" encoding="utf-8"?>
<!-- Generator: Adobe Illustrator 19.2.1, SVG Export Plug-In . SVG Version: 6.00 Build 0)  -->
<svg version="1.1" id="Layer_1" xmlns="http://www.w3.org/2000/svg" xmlns:xlink="http://www.w3.org/1999/xlink" x="0px" y="0px"
	 viewBox="0 0 101.2 87.6" style="enable-background:new 0 0 101.2 87.6;" xml:space="preserve">
<style type="text/css">
	.st0{fill:none;}
	.st1{fill:#111111;}
	.st2{fill:#202020;}
	.st3{fill:url(#SVGID_1_);}
	.st4{fill:none;stroke:#000000;stroke-miterlimit:10;}
	.st5{fill:none;stroke:#2BB673;stroke-width:3;stroke-miterlimit:10;}
	.st6{fill:none;stroke:#2AB673;stroke-width:3;stroke-miterlimit:10;}
	.st7{enable-background:new    ;}
	.st8{fill:#2BB673;}
</style>
<pattern  y="87.6" width="240" height="696" patternUnits="userSpaceOnUse" id="SVGID_2_" viewBox="0 -696 240 696" style="overflow:visible;">
	<g>
		<rect y="-696" class="st0" width="240" height="696"/>
		<g>
			<rect y="-696" class="st0" width="240" height="696"/>
			<g>
				<rect y="-696" class="st0" width="240" height="696"/>
				<g>
					<g>
						<rect y="-696" class="st1" width="16.7" height="696"/>
						<rect x="15" y="-696" class="st2" width="18.9" height="696"/>
					</g>
					<g>
						<rect x="30" y="-696" class="st1" width="16.7" height="696"/>
						<rect x="45" y="-696" class="st2" width="18.4" height="696"/>
					</g>
				</g>
				<g>
					<g>
						<rect x="60" y="-696" class="st1" width="16.7" height="696"/>
						<rect x="75" y="-696" class="st2" width="18.9" height="696"/>
					</g>
					<g>
						<rect x="90" y="-696" class="st1" width="16.7" height="696"/>
						<rect x="105" y="-696" class="st2" width="19.1" height="696"/>
					</g>
				</g>
				<g>
					<g>
						<rect x="120" y="-696" class="st1" width="16.7" height="696"/>
						<rect x="135" y="-696" class="st2" width="18.9" height="696"/>
					</g>
					<g>
						<rect x="150" y="-696" class="st1" width="16.7" height="696"/>
						<rect x="165" y="-696" class="st2" width="18.4" height="696"/>
					</g>
				</g>
				<g>
					<g>
						<rect x="180" y="-696" class="st1" width="16.7" height="696"/>
						<rect x="195" y="-696" class="st2" width="18.9" height="696"/>
					</g>
					<g>
						<rect x="210" y="-696" class="st1" width="16.7" height="696"/>
						<rect x="225" y="-696" class="st2" width="15" height="696"/>
					</g>
				</g>
			</g>
		</g>
	</g>
</pattern>
<pattern  id="SVGID_1_" xlink:href="#SVGID_2_" patternTransform="matrix(0.7071 0.7071 0.7071 -0.7071 -4319.1646 -12803.501)">
</pattern>
<polygon class="st3" points="25.6,87.1 0.6,43.8 25.6,0.5 75.6,0.5 100.6,43.8 75.6,87.1 "/>
<polygon class="st4" points="25.6,87.1 0.6,43.8 25.6,0.5 75.6,0.5 100.6,43.8 75.6,87.1 "/>
<g>
	<polygon class="st5" points="30,78.2 10,43.6 30,9 70,9 90,43.6 70,78.2 	"/>
	<line class="st6" x1="23.9" y1="52.6" x2="76.1" y2="52.6"/>
	<g class="st7">
		<path class="st8" d="M44.2,73.1V62.9h-3.7v-1.4c0.5,0,1,0,1.4-0.1c0.5-0.1,0.9-0.2,1.2-0.4c0.4-0.2,0.7-0.5,0.9-0.8
			c0.3-0.4,0.4-0.8,0.5-1.3h1.3v14.4H44.2z"/>
		<path class="st8" d="M53.5,71.3c0.5,0.4,1.1,0.6,1.8,0.6c1.1,0,1.8-0.5,2.4-1.4s0.8-2.3,0.9-4.2l0,0c-0.3,0.6-0.8,1.1-1.4,1.4
			c-0.6,0.4-1.2,0.5-1.9,0.5c-0.7,0-1.4-0.1-1.9-0.4c-0.6-0.2-1-0.6-1.4-1c-0.4-0.4-0.7-0.9-0.9-1.5c-0.2-0.6-0.3-1.2-0.3-1.9
			c0-0.7,0.1-1.3,0.3-1.9c0.2-0.6,0.6-1.1,1-1.5c0.4-0.4,0.9-0.7,1.5-1s1.2-0.3,1.9-0.3c0.7,0,1.3,0.1,1.9,0.3
			c0.6,0.2,1.1,0.6,1.6,1.1s0.8,1.2,1.1,2.1c0.3,0.9,0.4,2,0.4,3.4c0,2.5-0.4,4.4-1.2,5.7c-0.8,1.3-2.1,2-3.8,2
			c-1.2,0-2.2-0.3-3-0.9c-0.8-0.6-1.2-1.5-1.4-2.8h1.7C52.8,70.4,53,70.9,53.5,71.3z M58.1,62.3c-0.1-0.4-0.3-0.7-0.6-1
			c-0.2-0.3-0.6-0.5-0.9-0.7c-0.4-0.2-0.8-0.3-1.3-0.3c-0.5,0-0.9,0.1-1.3,0.3c-0.4,0.2-0.6,0.4-0.9,0.8c-0.2,0.3-0.4,0.7-0.5,1.1
			c-0.1,0.4-0.2,0.8-0.2,1.3c0,0.4,0.1,0.8,0.2,1.1s0.3,0.7,0.6,1c0.2,0.3,0.5,0.5,0.9,0.7s0.7,0.3,1.1,0.3c0.4,0,0.9-0.1,1.2-0.3
			s0.7-0.4,0.9-0.7c0.3-0.3,0.5-0.6,0.6-1c0.1-0.4,0.2-0.8,0.2-1.2C58.3,63.1,58.2,62.7,58.1,62.3z"/>
	</g>
</g>
</svg>
