<?xml version="1.0" encoding="utf-8"?>
<!-- Generator: Adobe Illustrator 19.2.1, SVG Export Plug-In . SVG Version: 6.00 Build 0)  -->
<svg version="1.1" id="Layer_1" xmlns="http://www.w3.org/2000/svg" xmlns:xlink="http://www.w3.org/1999/xlink" x="0px" y="0px"
	 viewBox="0 0 250 100" style="enable-background:new 0 0 250 100;" xml:space="preserve">
<style type="text/css">
	.st0{fill:none;}
	.st1{fill:#131313;}
	.st2{fill:#202020;}
	.st3{fill:url(#SVGID_1_);stroke:#000000;stroke-miterlimit:10;}
	.st4{enable-background:new    ;}
	.st5{fill:#FFFFFF;}
</style>
<pattern  y="100" width="240" height="696" patternUnits="userSpaceOnUse" id="New_Pattern_Swatch_14" viewBox="0 -696 240 696" style="overflow:visible;">
	<g>
		<rect y="-696" class="st0" width="240" height="696"/>
		<g>
			<g>
				<g>
					<rect y="-696" class="st1" width="16.7" height="696"/>
					<rect x="15" y="-696" class="st2" width="18.9" height="696"/>
				</g>
			</g>
			<g>
				<g>
					<g>
						<rect x="30" y="-696" class="st1" width="16.7" height="696"/>
						<rect x="45" y="-696" class="st2" width="18.4" height="696"/>
					</g>
				</g>
			</g>
		</g>
		<g>
			<g>
				<g>
					<rect x="60" y="-696" class="st1" width="16.7" height="696"/>
					<rect x="75" y="-696" class="st2" width="18.9" height="696"/>
				</g>
			</g>
			<g>
				<g>
					<g>
						<rect x="90" y="-696" class="st1" width="16.7" height="696"/>
						<rect x="105" y="-696" class="st2" width="19.1" height="696"/>
					</g>
				</g>
			</g>
		</g>
		<g>
			<g>
				<g>
					<rect x="120" y="-696" class="st1" width="16.7" height="696"/>
					<rect x="135" y="-696" class="st2" width="18.9" height="696"/>
				</g>
			</g>
			<g>
				<g>
					<g>
						<rect x="150" y="-696" class="st1" width="16.7" height="696"/>
						<rect x="165" y="-696" class="st2" width="18.4" height="696"/>
					</g>
				</g>
			</g>
		</g>
		<g>
			<g>
				<g>
					<rect x="180" y="-696" class="st1" width="16.7" height="696"/>
					<rect x="195" y="-696" class="st2" width="18.9" height="696"/>
				</g>
			</g>
			<g>
				<g>
					<g>
						<rect x="210" y="-696" class="st1" width="16.7" height="696"/>
						<rect x="225" y="-696" class="st2" width="15" height="696"/>
					</g>
				</g>
			</g>
		</g>
	</g>
</pattern>
<pattern  id="SVGID_1_" xlink:href="#New_Pattern_Swatch_14" patternTransform="matrix(0.7071 0.7071 0.7071 -0.7071 4239.3008 -9795.4814)">
</pattern>
<path class="st3" d="M225,100H25C15.2,90.2,9.8,84.8,0,75V25C9.8,15.2,15.2,9.8,25,0h200c9.8,9.8,15.2,15.2,25,25v50
	C240.2,84.8,234.8,90.2,225,100z"/>
<g class="st4">
	<path class="st5" d="M56,18.5c-1.3-0.9-2.8-1.3-4.5-1.3c-1.5,0-2.8,0.3-3.8,0.8c-1.1,0.6-1.9,1.3-2.6,2.3c-0.7,0.9-1.2,2-1.5,3.2
		C43.1,24.8,43,26,43,27.3c0,1.4,0.2,2.8,0.5,4c0.3,1.3,0.8,2.4,1.5,3.3c0.7,0.9,1.6,1.7,2.6,2.3c1.1,0.6,2.4,0.8,3.9,0.8
		c1.1,0,2.1-0.2,2.9-0.5c0.9-0.4,1.6-0.9,2.2-1.5c0.6-0.6,1.1-1.4,1.5-2.3s0.6-1.8,0.6-2.9H62c-0.3,3.2-1.4,5.6-3.3,7.3
		c-1.8,1.8-4.4,2.6-7.6,2.6c-1.9,0-3.6-0.3-5.1-1c-1.4-0.7-2.6-1.6-3.6-2.7c-1-1.2-1.7-2.5-2.2-4.1c-0.5-1.6-0.7-3.3-0.7-5.1
		c0-1.8,0.3-3.5,0.8-5.1c0.5-1.6,1.3-3,2.3-4.2c1-1.2,2.2-2.1,3.7-2.8c1.5-0.7,3.2-1,5.1-1c1.3,0,2.5,0.2,3.7,0.5
		c1.2,0.3,2.2,0.9,3.1,1.5c0.9,0.7,1.7,1.5,2.3,2.5c0.6,1,1,2.2,1.2,3.5h-3.3C58.1,20.8,57.3,19.4,56,18.5z"/>
	<path class="st5" d="M68.6,15v9.6h0.1c0.2-0.6,0.6-1,1-1.4s0.9-0.7,1.4-0.9s1.1-0.4,1.6-0.5c0.6-0.1,1.1-0.2,1.7-0.2
		c1.2,0,2.2,0.2,3,0.5c0.8,0.3,1.4,0.8,1.9,1.4c0.5,0.6,0.8,1.3,1,2.1c0.2,0.8,0.3,1.7,0.3,2.7V40h-3V27.8c0-1.1-0.3-2-1-2.7
		c-0.7-0.7-1.6-1-2.7-1c-0.9,0-1.7,0.1-2.4,0.4c-0.7,0.3-1.2,0.7-1.7,1.2c-0.4,0.5-0.8,1.1-1,1.8c-0.2,0.7-0.3,1.4-0.3,2.3V40h-3V15
		H68.6z"/>
	<path class="st5" d="M101.1,39.9c-0.5,0.3-1.2,0.5-2.1,0.5c-0.8,0-1.4-0.2-1.8-0.6s-0.7-1.1-0.7-2.1c-0.8,1-1.8,1.7-2.9,2.1
		s-2.3,0.6-3.5,0.6c-0.8,0-1.6-0.1-2.3-0.3c-0.7-0.2-1.4-0.5-1.9-0.9s-1-0.9-1.3-1.6s-0.5-1.4-0.5-2.3c0-1,0.2-1.9,0.5-2.5
		c0.3-0.7,0.8-1.2,1.4-1.6c0.6-0.4,1.2-0.7,2-0.9s1.5-0.4,2.3-0.5c0.8-0.2,1.6-0.3,2.3-0.4c0.7-0.1,1.4-0.2,1.9-0.3
		c0.6-0.2,1-0.4,1.3-0.7c0.3-0.3,0.5-0.7,0.5-1.3c0-0.7-0.1-1.2-0.4-1.6c-0.2-0.4-0.6-0.7-0.9-0.9c-0.4-0.2-0.8-0.3-1.3-0.4
		c-0.5-0.1-1-0.1-1.4-0.1c-1.3,0-2.3,0.2-3.2,0.7c-0.8,0.5-1.3,1.4-1.4,2.7h-3c0-1.1,0.3-2.1,0.7-2.8c0.4-0.8,1-1.4,1.7-1.9
		c0.7-0.5,1.5-0.8,2.4-1c0.9-0.2,1.9-0.3,2.9-0.3c0.8,0,1.6,0.1,2.4,0.2c0.8,0.1,1.5,0.4,2.2,0.7c0.7,0.4,1.2,0.9,1.6,1.5
		c0.4,0.7,0.6,1.5,0.6,2.5v9.3c0,0.7,0,1.2,0.1,1.5c0.1,0.3,0.4,0.5,0.8,0.5c0.3,0,0.6,0,0.9-0.1V39.9z M96.3,30.7
		c-0.4,0.3-0.9,0.5-1.5,0.6c-0.6,0.1-1.2,0.2-1.9,0.3s-1.3,0.2-2,0.3s-1.3,0.3-1.8,0.5c-0.5,0.2-1,0.6-1.3,1c-0.3,0.4-0.5,1-0.5,1.8
		c0,0.5,0.1,0.9,0.3,1.2c0.2,0.3,0.5,0.6,0.8,0.8s0.7,0.4,1.1,0.5s0.9,0.1,1.3,0.1c1,0,1.8-0.1,2.5-0.4c0.7-0.3,1.3-0.6,1.7-1
		c0.4-0.4,0.8-0.8,1-1.3s0.3-0.9,0.3-1.3V30.7z"/>
	<path class="st5" d="M107.1,15v25h-3V15H107.1z"/>
	<path class="st5" d="M114.8,15v25h-3V15H114.8z"/>
	<path class="st5" d="M132.3,38.8c-1.4,1-3.1,1.5-5.1,1.5c-1.4,0-2.7-0.2-3.8-0.7c-1.1-0.5-2-1.1-2.7-2c-0.7-0.8-1.3-1.8-1.6-3
		c-0.4-1.2-0.6-2.4-0.6-3.8c0-1.4,0.2-2.6,0.6-3.8s1-2.1,1.8-3c0.8-0.8,1.7-1.5,2.7-2c1-0.5,2.2-0.7,3.4-0.7c1.6,0,2.9,0.3,4,1
		c1.1,0.7,1.9,1.5,2.6,2.5c0.6,1,1.1,2.1,1.3,3.4c0.2,1.2,0.3,2.4,0.3,3.5h-13.5c0,0.8,0.1,1.5,0.3,2.3s0.5,1.3,1,1.9
		c0.5,0.5,1.1,1,1.8,1.3c0.7,0.3,1.6,0.5,2.6,0.5c1.3,0,2.3-0.3,3.1-0.9c0.8-0.6,1.3-1.5,1.6-2.7h2.9
		C134.5,36.3,133.6,37.8,132.3,38.8z M131.5,27.2c-0.3-0.6-0.6-1.2-1.1-1.6s-1-0.8-1.6-1.1c-0.6-0.3-1.3-0.4-2-0.4
		c-0.8,0-1.5,0.1-2.1,0.4c-0.6,0.3-1.1,0.6-1.6,1.1c-0.4,0.5-0.8,1-1,1.6c-0.3,0.6-0.4,1.3-0.5,2H132
		C132,28.5,131.8,27.9,131.5,27.2z"/>
	<path class="st5" d="M141,21.9v2.9h0.1c1.2-2.2,3.2-3.3,5.9-3.3c1.2,0,2.2,0.2,3,0.5c0.8,0.3,1.4,0.8,1.9,1.4
		c0.5,0.6,0.8,1.3,1,2.1c0.2,0.8,0.3,1.7,0.3,2.7V40h-3V27.8c0-1.1-0.3-2-1-2.7c-0.7-0.7-1.6-1-2.7-1c-0.9,0-1.7,0.1-2.4,0.4
		c-0.7,0.3-1.2,0.7-1.7,1.2c-0.4,0.5-0.8,1.1-1,1.8c-0.2,0.7-0.3,1.4-0.3,2.3V40h-3V21.9H141z"/>
	<path class="st5" d="M171.3,45.1c-1.4,1.5-3.5,2.2-6.4,2.2c-0.8,0-1.7-0.1-2.6-0.3c-0.9-0.2-1.7-0.5-2.4-0.9s-1.3-1-1.8-1.6
		c-0.5-0.7-0.7-1.5-0.8-2.5h3c0,0.5,0.2,1,0.5,1.4c0.3,0.4,0.7,0.7,1.2,0.9s1,0.4,1.5,0.5c0.5,0.1,1,0.2,1.5,0.2
		c1,0,1.8-0.2,2.5-0.5c0.7-0.3,1.2-0.8,1.7-1.4s0.8-1.3,1-2.2c0.2-0.8,0.3-1.8,0.3-2.8v-1.2h-0.1c-0.5,1.1-1.3,1.9-2.3,2.5
		c-1,0.5-2.1,0.8-3.3,0.8c-1.4,0-2.5-0.2-3.5-0.7c-1-0.5-1.8-1.1-2.5-2s-1.2-1.8-1.5-2.9c-0.3-1.1-0.5-2.3-0.5-3.5
		c0-1.1,0.1-2.2,0.4-3.3c0.3-1.1,0.7-2.2,1.4-3.1c0.7-0.9,1.5-1.7,2.6-2.3c1.1-0.6,2.4-0.9,4-0.9c1.1,0,2.2,0.3,3.2,0.8
		c1,0.5,1.7,1.3,2.2,2.3h0v-2.6h2.8v16.6C173.3,41.4,172.6,43.6,171.3,45.1z M167.5,37c0.7-0.4,1.2-0.9,1.7-1.6
		c0.4-0.7,0.7-1.4,0.9-2.3c0.2-0.8,0.3-1.7,0.3-2.5c0-0.8-0.1-1.6-0.3-2.3c-0.2-0.8-0.5-1.5-0.9-2.1c-0.4-0.6-0.9-1.1-1.6-1.5
		c-0.7-0.4-1.4-0.6-2.4-0.6c-1,0-1.8,0.2-2.4,0.5c-0.7,0.4-1.2,0.8-1.7,1.5c-0.4,0.6-0.7,1.3-0.9,2.1s-0.3,1.6-0.3,2.5
		c0,0.8,0.1,1.6,0.2,2.4c0.2,0.8,0.4,1.6,0.8,2.2c0.4,0.7,0.9,1.2,1.6,1.6c0.7,0.4,1.5,0.6,2.4,0.6C166,37.6,166.8,37.4,167.5,37z"
		/>
	<path class="st5" d="M190.6,38.8c-1.4,1-3.1,1.5-5.1,1.5c-1.4,0-2.7-0.2-3.8-0.7c-1.1-0.5-2-1.1-2.7-2c-0.7-0.8-1.3-1.8-1.6-3
		c-0.4-1.2-0.6-2.4-0.6-3.8c0-1.4,0.2-2.6,0.6-3.8s1-2.1,1.8-3c0.8-0.8,1.7-1.5,2.7-2c1-0.5,2.2-0.7,3.4-0.7c1.6,0,2.9,0.3,4,1
		s1.9,1.5,2.6,2.5c0.6,1,1.1,2.1,1.3,3.4c0.2,1.2,0.3,2.4,0.3,3.5H180c0,0.8,0.1,1.5,0.3,2.3s0.5,1.3,1,1.9c0.5,0.5,1.1,1,1.8,1.3
		c0.7,0.3,1.6,0.5,2.6,0.5c1.3,0,2.3-0.3,3.1-0.9c0.8-0.6,1.3-1.5,1.6-2.7h2.9C192.8,36.3,192,37.8,190.6,38.8z M189.9,27.2
		c-0.3-0.6-0.6-1.2-1.1-1.6c-0.5-0.5-1-0.8-1.6-1.1c-0.6-0.3-1.3-0.4-2-0.4c-0.8,0-1.5,0.1-2.1,0.4c-0.6,0.3-1.1,0.6-1.6,1.1
		s-0.8,1-1,1.6c-0.3,0.6-0.4,1.3-0.5,2h10.4C190.3,28.5,190.2,27.9,189.9,27.2z"/>
	<path class="st5" d="M198.9,36c0.3,0.5,0.6,0.8,1.1,1.1c0.5,0.3,1,0.5,1.5,0.6c0.6,0.1,1.2,0.2,1.8,0.2c0.5,0,1,0,1.5-0.1
		c0.5-0.1,1-0.2,1.4-0.4c0.4-0.2,0.8-0.5,1.1-0.8c0.3-0.4,0.4-0.8,0.4-1.4c0-0.8-0.3-1.4-0.9-1.8c-0.6-0.4-1.3-0.7-2.2-1
		s-1.8-0.5-2.9-0.7s-2-0.5-2.9-0.8s-1.6-0.9-2.2-1.5s-0.9-1.6-0.9-2.7c0-0.9,0.2-1.7,0.6-2.3s0.9-1.2,1.6-1.6s1.4-0.7,2.2-0.9
		c0.8-0.2,1.6-0.3,2.4-0.3c1,0,2,0.1,2.8,0.3c0.9,0.2,1.6,0.5,2.3,0.9c0.7,0.4,1.2,1,1.6,1.8c0.4,0.7,0.6,1.7,0.7,2.7h-3
		c0-0.6-0.2-1.1-0.5-1.5c-0.3-0.4-0.6-0.7-1-0.9c-0.4-0.2-0.8-0.4-1.3-0.5c-0.5-0.1-1-0.2-1.5-0.2c-0.4,0-0.9,0-1.3,0.1
		c-0.5,0.1-0.9,0.2-1.2,0.4c-0.4,0.2-0.7,0.4-0.9,0.7c-0.2,0.3-0.3,0.7-0.3,1.1c0,0.5,0.2,0.9,0.5,1.3c0.4,0.3,0.8,0.6,1.4,0.8
		c0.6,0.2,1.2,0.4,1.9,0.6c0.7,0.2,1.4,0.3,2.1,0.5c0.7,0.2,1.5,0.4,2.2,0.6c0.7,0.2,1.3,0.5,1.9,0.9c0.5,0.4,1,0.9,1.3,1.5
		c0.3,0.6,0.5,1.3,0.5,2.2c0,1.1-0.2,2-0.7,2.7s-1,1.3-1.8,1.8s-1.6,0.8-2.5,0.9c-0.9,0.2-1.8,0.3-2.7,0.3c-1,0-2-0.1-2.9-0.3
		s-1.7-0.6-2.4-1c-0.7-0.5-1.3-1.1-1.7-1.9c-0.4-0.8-0.7-1.7-0.7-2.9h3C198.4,34.9,198.6,35.5,198.9,36z"/>
</g>
<g class="st4">
	<path class="st5" d="M56.3,60.5c-1.3-0.9-2.8-1.3-4.5-1.3c-1.5,0-2.8,0.3-3.8,0.8c-1.1,0.6-1.9,1.3-2.6,2.3c-0.7,0.9-1.2,2-1.5,3.2
		c-0.3,1.2-0.5,2.5-0.5,3.8c0,1.4,0.2,2.8,0.5,4c0.3,1.3,0.8,2.4,1.5,3.3c0.7,0.9,1.6,1.7,2.6,2.3c1.1,0.6,2.4,0.8,3.9,0.8
		c1.1,0,2.1-0.2,2.9-0.5c0.9-0.4,1.6-0.9,2.2-1.5c0.6-0.6,1.1-1.4,1.5-2.3s0.6-1.8,0.6-2.9h3.3c-0.3,3.2-1.4,5.6-3.3,7.3
		c-1.8,1.8-4.4,2.6-7.6,2.6c-1.9,0-3.6-0.3-5.1-1c-1.4-0.7-2.6-1.6-3.6-2.7c-1-1.2-1.7-2.5-2.2-4.1c-0.5-1.6-0.7-3.3-0.7-5.1
		c0-1.8,0.3-3.5,0.8-5.1c0.5-1.6,1.3-3,2.3-4.2c1-1.2,2.2-2.1,3.7-2.8c1.5-0.7,3.2-1,5.1-1c1.3,0,2.5,0.2,3.7,0.5
		c1.2,0.3,2.2,0.9,3.1,1.5c0.9,0.7,1.7,1.5,2.3,2.5c0.6,1,1,2.2,1.2,3.5h-3.3C58.4,62.8,57.6,61.4,56.3,60.5z"/>
	<path class="st5" d="M65.5,69.2c0.4-1.2,0.9-2.2,1.7-3c0.7-0.9,1.7-1.5,2.8-2c1.1-0.5,2.4-0.7,3.8-0.7c1.4,0,2.7,0.2,3.8,0.7
		c1.1,0.5,2,1.2,2.7,2c0.7,0.9,1.3,1.9,1.7,3c0.4,1.2,0.6,2.4,0.6,3.7s-0.2,2.6-0.6,3.7c-0.4,1.1-0.9,2.1-1.7,3
		c-0.7,0.9-1.7,1.5-2.7,2c-1.1,0.5-2.4,0.7-3.8,0.7c-1.4,0-2.7-0.2-3.8-0.7c-1.1-0.5-2-1.1-2.8-2c-0.7-0.9-1.3-1.8-1.7-3
		C65.2,75.5,65,74.3,65,73S65.2,70.4,65.5,69.2z M68.6,75.9c0.3,0.9,0.7,1.6,1.2,2.1c0.5,0.6,1.1,1,1.8,1.3c0.7,0.3,1.4,0.5,2.2,0.5
		s1.5-0.2,2.2-0.5c0.7-0.3,1.3-0.7,1.8-1.3c0.5-0.6,0.9-1.3,1.2-2.1c0.3-0.9,0.4-1.8,0.4-2.9c0-1.1-0.1-2.1-0.4-2.9
		c-0.3-0.9-0.7-1.6-1.2-2.2c-0.5-0.6-1.1-1-1.8-1.3c-0.7-0.3-1.4-0.5-2.2-0.5s-1.5,0.2-2.2,0.5c-0.7,0.3-1.3,0.7-1.8,1.3
		c-0.5,0.6-0.9,1.3-1.2,2.2c-0.3,0.9-0.4,1.8-0.4,2.9C68.1,74.1,68.3,75,68.6,75.9z"/>
	<path class="st5" d="M88.8,63.9v2.7h0.1c1.4-2.1,3.3-3.1,5.8-3.1c1.1,0,2.1,0.2,3,0.7c0.9,0.5,1.6,1.3,1.9,2.4
		c0.6-1,1.4-1.7,2.4-2.3c1-0.5,2.1-0.8,3.3-0.8c0.9,0,1.7,0.1,2.5,0.3c0.7,0.2,1.4,0.5,1.9,0.9s0.9,1,1.2,1.6
		c0.3,0.7,0.4,1.5,0.4,2.4V82h-3V70.1c0-0.6,0-1.1-0.1-1.6c-0.1-0.5-0.3-0.9-0.5-1.3c-0.3-0.4-0.6-0.6-1.1-0.9
		c-0.5-0.2-1-0.3-1.8-0.3c-1.5,0-2.6,0.4-3.5,1.3c-0.8,0.8-1.3,2-1.3,3.4V82h-3V70.1c0-0.6-0.1-1.1-0.2-1.6
		c-0.1-0.5-0.3-0.9-0.5-1.3c-0.3-0.4-0.6-0.6-1-0.8c-0.4-0.2-1-0.3-1.7-0.3c-0.9,0-1.6,0.2-2.2,0.5c-0.6,0.4-1.1,0.8-1.5,1.3
		c-0.4,0.5-0.7,1-0.8,1.5c-0.2,0.5-0.3,1-0.3,1.3V82h-3V63.9H88.8z"/>
	<path class="st5" d="M119,63.9v2.5h0.1c0.5-1,1.3-1.7,2.3-2.2c1-0.5,2.2-0.7,3.5-0.7c1.4,0,2.6,0.3,3.7,0.8c1,0.5,1.9,1.2,2.6,2.1
		s1.2,1.9,1.6,3s0.5,2.4,0.5,3.6s-0.2,2.5-0.5,3.6c-0.3,1.1-0.9,2.1-1.5,3c-0.7,0.9-1.6,1.5-2.6,2c-1,0.5-2.2,0.7-3.6,0.7
		c-0.4,0-0.9,0-1.5-0.1c-0.5-0.1-1.1-0.2-1.6-0.5c-0.5-0.2-1-0.5-1.5-0.9c-0.5-0.4-0.9-0.8-1.2-1.3H119v9.3h-3v-25H119z M129.7,70.3
		c-0.2-0.8-0.6-1.5-1-2.2s-1-1.1-1.8-1.5c-0.7-0.4-1.5-0.6-2.5-0.6c-1,0-1.9,0.2-2.6,0.6c-0.7,0.4-1.3,0.9-1.7,1.6
		c-0.4,0.6-0.8,1.4-1,2.2c-0.2,0.8-0.3,1.6-0.3,2.5c0,0.9,0.1,1.7,0.3,2.6c0.2,0.8,0.5,1.6,1,2.2s1,1.1,1.8,1.5
		c0.7,0.4,1.6,0.6,2.6,0.6s1.9-0.2,2.6-0.6s1.2-0.9,1.7-1.6c0.4-0.7,0.7-1.4,0.9-2.2s0.3-1.7,0.3-2.6C130,72,129.9,71.1,129.7,70.3z
		"/>
	<path class="st5" d="M139.8,57v25h-3V57H139.8z"/>
	<path class="st5" d="M157.2,80.8c-1.4,1-3.1,1.5-5.1,1.5c-1.4,0-2.7-0.2-3.8-0.7c-1.1-0.5-2-1.1-2.7-2c-0.7-0.8-1.3-1.8-1.6-3
		c-0.4-1.2-0.6-2.4-0.6-3.8c0-1.4,0.2-2.6,0.6-3.8s1-2.1,1.8-3c0.8-0.8,1.7-1.5,2.7-2c1-0.5,2.2-0.7,3.4-0.7c1.6,0,2.9,0.3,4,1
		s1.9,1.5,2.6,2.5c0.6,1,1.1,2.1,1.3,3.4c0.2,1.2,0.3,2.4,0.3,3.5h-13.5c0,0.8,0.1,1.5,0.3,2.3s0.5,1.3,1,1.9c0.5,0.5,1.1,1,1.8,1.3
		c0.7,0.3,1.6,0.5,2.6,0.5c1.3,0,2.3-0.3,3.1-0.9c0.8-0.6,1.3-1.5,1.6-2.7h2.9C159.5,78.3,158.6,79.8,157.2,80.8z M156.5,69.2
		c-0.3-0.6-0.6-1.2-1.1-1.6c-0.5-0.5-1-0.8-1.6-1.1c-0.6-0.3-1.3-0.4-2-0.4c-0.8,0-1.5,0.1-2.1,0.4c-0.6,0.3-1.1,0.6-1.6,1.1
		s-0.8,1-1,1.6c-0.3,0.6-0.4,1.3-0.5,2H157C156.9,70.5,156.8,69.9,156.5,69.2z"/>
	<path class="st5" d="M171,63.9v2.6h-3.6v11.2c0,0.4,0,0.6,0.1,0.8c0.1,0.2,0.2,0.4,0.3,0.5c0.2,0.1,0.4,0.2,0.7,0.2
		c0.3,0,0.7,0.1,1.1,0.1h1.4V82h-2.3c-0.8,0-1.4-0.1-2-0.2c-0.5-0.1-1-0.3-1.3-0.6c-0.3-0.3-0.6-0.7-0.8-1.2c-0.2-0.5-0.2-1.2-0.2-2
		V66.5h-3.1v-2.6h3.1v-5.4h3v5.4H171z"/>
	<path class="st5" d="M187.1,80.8c-1.4,1-3.1,1.5-5.1,1.5c-1.4,0-2.7-0.2-3.8-0.7c-1.1-0.5-2-1.1-2.7-2c-0.7-0.8-1.3-1.8-1.6-3
		c-0.4-1.2-0.6-2.4-0.6-3.8c0-1.4,0.2-2.6,0.6-3.8s1-2.1,1.8-3c0.8-0.8,1.7-1.5,2.7-2c1-0.5,2.2-0.7,3.4-0.7c1.6,0,2.9,0.3,4,1
		s1.9,1.5,2.6,2.5c0.6,1,1.1,2.1,1.3,3.4c0.2,1.2,0.3,2.4,0.3,3.5h-13.5c0,0.8,0.1,1.5,0.3,2.3s0.5,1.3,1,1.9c0.5,0.5,1.1,1,1.8,1.3
		c0.7,0.3,1.6,0.5,2.6,0.5c1.3,0,2.3-0.3,3.1-0.9c0.8-0.6,1.3-1.5,1.6-2.7h2.9C189.3,78.3,188.4,79.8,187.1,80.8z M186.3,69.2
		c-0.3-0.6-0.6-1.2-1.1-1.6c-0.5-0.5-1-0.8-1.6-1.1c-0.6-0.3-1.3-0.4-2-0.4c-0.8,0-1.5,0.1-2.1,0.4c-0.6,0.3-1.1,0.6-1.6,1.1
		s-0.8,1-1,1.6c-0.3,0.6-0.4,1.3-0.5,2h10.4C186.8,70.5,186.6,69.9,186.3,69.2z"/>
	<path class="st5" d="M206.2,82v-2.5h-0.1c-0.5,1-1.3,1.7-2.3,2.2c-1,0.4-2.2,0.7-3.5,0.7c-1.4,0-2.6-0.3-3.7-0.8
		c-1-0.5-1.9-1.2-2.6-2.1c-0.7-0.9-1.2-1.9-1.6-3c-0.4-1.1-0.5-2.4-0.5-3.6s0.2-2.5,0.5-3.6c0.3-1.1,0.9-2.1,1.5-3
		c0.7-0.9,1.6-1.5,2.6-2c1-0.5,2.2-0.8,3.6-0.8c0.5,0,1,0,1.5,0.1c0.5,0.1,1.1,0.3,1.6,0.5s1,0.5,1.5,0.9c0.5,0.4,0.9,0.8,1.2,1.3
		h0.1V57h3v25H206.2z M195.5,75.6c0.2,0.8,0.6,1.5,1,2.2c0.5,0.6,1,1.1,1.8,1.5c0.7,0.4,1.5,0.6,2.5,0.6c1,0,1.9-0.2,2.6-0.6
		c0.7-0.4,1.3-0.9,1.7-1.6c0.4-0.6,0.8-1.4,1-2.2c0.2-0.8,0.3-1.6,0.3-2.5c0-0.9-0.1-1.7-0.3-2.6s-0.5-1.6-1-2.2s-1-1.1-1.8-1.5
		c-0.7-0.4-1.6-0.6-2.6-0.6c-1,0-1.9,0.2-2.6,0.6s-1.3,0.9-1.7,1.6s-0.7,1.4-0.9,2.2c-0.2,0.8-0.3,1.7-0.3,2.6
		C195.2,74,195.3,74.8,195.5,75.6z"/>
</g>
</svg>
