<?xml version="1.0" encoding="utf-8"?>
<!-- Generator: Adobe Illustrator 19.2.1, SVG Export Plug-In . SVG Version: 6.00 Build 0)  -->
<svg version="1.1" id="Layer_1" xmlns="http://www.w3.org/2000/svg" xmlns:xlink="http://www.w3.org/1999/xlink" x="0px" y="0px"
	 viewBox="0 0 90.7 521.4" style="enable-background:new 0 0 90.7 521.4;" xml:space="preserve">
<style type="text/css">
	.st0{opacity:0.4;fill:#FFFFFF;stroke:#020202;stroke-width:2;enable-background:new    ;}
	.st1{fill:none;stroke:#020202;}
	.st2{fill:none;stroke:#020202;stroke-width:2;}
	.st3{fill:#020202;}
	.st4{font-family:'Helvetica';}
	.st5{font-size:11.5716px;}
	.st6{fill:#FFFFFF;stroke:#010101;stroke-width:4;stroke-miterlimit:10;}
	.st7{fill:none;stroke:#020202;stroke-width:4;}
</style>
<rect x="19.9" y="4.6" class="st0" width="50.6" height="502"/>
<line class="st1" x1="27.1" y1="502" x2="47.9" y2="502"/>
<line class="st1" x1="27.1" y1="497.5" x2="47.9" y2="497.5"/>
<line class="st1" x1="27.1" y1="493.2" x2="47.9" y2="493.2"/>
<line class="st1" x1="27.1" y1="489" x2="47.9" y2="489"/>
<line class="st2" x1="21.9" y1="484.5" x2="68.7" y2="484.5"/>
<line class="st1" x1="27.1" y1="480.2" x2="47.9" y2="480.2"/>
<line class="st1" x1="27.1" y1="475.9" x2="47.9" y2="475.9"/>
<line class="st1" x1="27.1" y1="471.5" x2="47.9" y2="471.5"/>
<line class="st1" x1="27.1" y1="467.2" x2="47.9" y2="467.2"/>
<line class="st2" x1="21.9" y1="462.9" x2="68.7" y2="462.9"/>
<text transform="matrix(0.7194 0 0 1 59.4697 460.6992)" class="st3 st4 st5">10</text>
<line class="st1" x1="27.1" y1="458.5" x2="47.9" y2="458.5"/>
<line class="st1" x1="27.1" y1="454.1" x2="47.9" y2="454.1"/>
<line class="st1" x1="27.1" y1="449.9" x2="47.9" y2="449.9"/>
<line class="st1" x1="27.1" y1="445.5" x2="47.9" y2="445.5"/>
<line class="st2" x1="21.9" y1="441.1" x2="68.7" y2="441.1"/>
<line class="st1" x1="27.1" y1="436.9" x2="47.9" y2="436.9"/>
<line class="st1" x1="27.1" y1="432.5" x2="47.9" y2="432.5"/>
<line class="st1" x1="27.1" y1="428.1" x2="47.9" y2="428.1"/>
<line class="st1" x1="27.1" y1="423.9" x2="47.9" y2="423.9"/>
<line class="st2" x1="21.9" y1="419.5" x2="68.7" y2="419.5"/>
<text transform="matrix(0.7194 0 0 1 59.4697 417.3057)" class="st3 st4 st5">20</text>
<line class="st1" x1="27.1" y1="415.1" x2="47.9" y2="415.1"/>
<line class="st1" x1="27.1" y1="410.8" x2="47.9" y2="410.8"/>
<line class="st1" x1="27.1" y1="406.5" x2="47.9" y2="406.5"/>
<line class="st1" x1="27.1" y1="402.1" x2="47.9" y2="402.1"/>
<line class="st2" x1="21.9" y1="397.8" x2="68.7" y2="397.8"/>
<line class="st1" x1="27.1" y1="393.5" x2="47.9" y2="393.5"/>
<line class="st1" x1="27.1" y1="389.1" x2="47.9" y2="389.1"/>
<line class="st1" x1="27.1" y1="384.8" x2="47.9" y2="384.8"/>
<line class="st1" x1="27.1" y1="380.5" x2="47.9" y2="380.5"/>
<line class="st2" x1="21.9" y1="376" x2="68.7" y2="376"/>
<text transform="matrix(0.7194 0 0 1 59.4697 373.9116)" class="st3 st4 st5">30</text>
<line class="st1" x1="27.1" y1="371.8" x2="47.9" y2="371.8"/>
<line class="st1" x1="27.1" y1="367.5" x2="47.9" y2="367.5"/>
<line class="st1" x1="27.1" y1="363" x2="47.9" y2="363"/>
<line class="st1" x1="27.1" y1="358.8" x2="47.9" y2="358.8"/>
<line class="st2" x1="21.9" y1="354.4" x2="68.7" y2="354.4"/>
<line class="st1" x1="27.1" y1="350" x2="47.9" y2="350"/>
<line class="st1" x1="27.1" y1="345.8" x2="47.9" y2="345.8"/>
<line class="st1" x1="27.1" y1="341.4" x2="47.9" y2="341.4"/>
<line class="st1" x1="27.1" y1="337" x2="47.9" y2="337"/>
<line class="st2" x1="21.9" y1="332.6" x2="68.7" y2="332.6"/>
<text transform="matrix(0.7194 0 0 1 59.4697 330.5195)" class="st3 st4 st5">40</text>
<line class="st1" x1="27.1" y1="328.4" x2="47.9" y2="328.4"/>
<line class="st1" x1="27.1" y1="324" x2="47.9" y2="324"/>
<line class="st1" x1="27.1" y1="319.6" x2="47.9" y2="319.6"/>
<line class="st1" x1="27.1" y1="315.4" x2="47.9" y2="315.4"/>
<line class="st2" x1="21.9" y1="311" x2="68.7" y2="311"/>
<line class="st1" x1="27.1" y1="306.6" x2="47.9" y2="306.6"/>
<line class="st1" x1="27.1" y1="302.4" x2="47.9" y2="302.4"/>
<line class="st1" x1="27.1" y1="298" x2="47.9" y2="298"/>
<line class="st1" x1="27.1" y1="293.6" x2="47.9" y2="293.6"/>
<line class="st2" x1="21.9" y1="289.2" x2="68.7" y2="289.2"/>
<text transform="matrix(0.7194 0 0 1 59.4697 287.1255)" class="st3 st4 st5">50</text>
<line class="st1" x1="27.1" y1="285" x2="47.9" y2="285"/>
<line class="st1" x1="27.1" y1="280.6" x2="47.9" y2="280.6"/>
<line class="st1" x1="27.1" y1="276.2" x2="47.9" y2="276.2"/>
<line class="st1" x1="27.1" y1="272" x2="47.9" y2="272"/>
<line class="st2" x1="21.9" y1="267.5" x2="68.7" y2="267.5"/>
<line class="st1" x1="27.1" y1="263.2" x2="47.9" y2="263.2"/>
<line class="st1" x1="27.1" y1="259" x2="47.9" y2="259"/>
<line class="st1" x1="27.1" y1="254.5" x2="47.9" y2="254.5"/>
<line class="st1" x1="27.1" y1="250.2" x2="47.9" y2="250.2"/>
<line class="st2" x1="21.9" y1="245.9" x2="68.7" y2="245.9"/>
<text transform="matrix(0.7194 0 0 1 59.4697 243.7319)" class="st3 st4 st5">60</text>
<line class="st1" x1="27.1" y1="241.6" x2="47.9" y2="241.6"/>
<line class="st1" x1="27.1" y1="237.2" x2="47.9" y2="237.2"/>
<line class="st1" x1="27.1" y1="232.9" x2="47.9" y2="232.9"/>
<line class="st1" x1="27.1" y1="228.6" x2="47.9" y2="228.6"/>
<line class="st2" x1="21.9" y1="224.2" x2="68.7" y2="224.2"/>
<line class="st1" x1="27.1" y1="219.9" x2="47.9" y2="219.9"/>
<line class="st1" x1="27.1" y1="215.6" x2="47.9" y2="215.6"/>
<line class="st1" x1="27.1" y1="211.1" x2="47.9" y2="211.1"/>
<line class="st1" x1="27.1" y1="206.9" x2="47.9" y2="206.9"/>
<line class="st2" x1="21.9" y1="202.6" x2="68.7" y2="202.6"/>
<text transform="matrix(0.7194 0 0 1 59.4697 200.3389)" class="st3 st4 st5">70</text>
<line class="st1" x1="27.1" y1="198.1" x2="47.9" y2="198.1"/>
<line class="st1" x1="27.1" y1="193.9" x2="47.9" y2="193.9"/>
<line class="st1" x1="27.1" y1="189.4" x2="47.9" y2="189.4"/>
<line class="st1" x1="27.1" y1="185.1" x2="47.9" y2="185.1"/>
<line class="st2" x1="21.9" y1="180.9" x2="68.7" y2="180.9"/>
<line class="st1" x1="27.1" y1="176.4" x2="47.9" y2="176.4"/>
<line class="st1" x1="27.1" y1="172.1" x2="47.9" y2="172.1"/>
<line class="st1" x1="27.1" y1="167.8" x2="47.9" y2="167.8"/>
<line class="st1" x1="27.1" y1="163.4" x2="47.9" y2="163.4"/>
<line class="st2" x1="21.9" y1="159.1" x2="68.7" y2="159.1"/>
<text transform="matrix(0.7194 0 0 1 59.4697 156.9448)" class="st3 st4 st5">80</text>
<line class="st1" x1="27.1" y1="154.8" x2="47.9" y2="154.8"/>
<line class="st1" x1="27.1" y1="150.4" x2="47.9" y2="150.4"/>
<line class="st1" x1="27.1" y1="146.1" x2="47.9" y2="146.1"/>
<line class="st1" x1="27.1" y1="141.8" x2="47.9" y2="141.8"/>
<line class="st2" x1="21.9" y1="137.4" x2="68.7" y2="137.4"/>
<line class="st1" x1="27.1" y1="133.1" x2="47.9" y2="133.1"/>
<line class="st1" x1="27.1" y1="128.8" x2="47.9" y2="128.8"/>
<line class="st1" x1="27.1" y1="124.4" x2="47.9" y2="124.4"/>
<line class="st1" x1="27.1" y1="120.1" x2="47.9" y2="120.1"/>
<line class="st2" x1="21.9" y1="115.8" x2="68.7" y2="115.8"/>
<text transform="matrix(0.7194 0 0 1 59.4697 113.5518)" class="st3 st4 st5">90</text>
<line class="st1" x1="27.1" y1="111.3" x2="47.9" y2="111.3"/>
<line class="st1" x1="27.1" y1="107.1" x2="47.9" y2="107.1"/>
<line class="st1" x1="27.1" y1="102.8" x2="47.9" y2="102.8"/>
<line class="st1" x1="27.1" y1="98.3" x2="47.9" y2="98.3"/>
<line class="st2" x1="21.9" y1="94.1" x2="68.7" y2="94.1"/>
<line class="st1" x1="27.1" y1="89.7" x2="47.9" y2="89.7"/>
<line class="st1" x1="27.1" y1="85.3" x2="47.9" y2="85.3"/>
<line class="st1" x1="27.1" y1="81.1" x2="47.9" y2="81.1"/>
<line class="st1" x1="27.1" y1="76.7" x2="47.9" y2="76.7"/>
<line class="st2" x1="21.9" y1="72.3" x2="68.7" y2="72.3"/>
<text transform="matrix(0.7194 0 0 1 54.8398 70.1577)" class="st3 st4 st5">100</text>
<path class="st6" d="M83.2,521.3H7.5c-4.1,0-7.5-3.4-7.5-7.5l0,0c0-4.1,3.4-7.5,7.5-7.5h75.7c4.1,0,7.5,3.4,7.5,7.5l0,0
	C90.7,518,87.3,521.3,83.2,521.3z"/>
<line class="st7" x1="71.3" y1="0" x2="71.3" y2="506.2"/>
<line class="st7" x1="19.3" y1="0" x2="19.3" y2="506.2"/>
</svg>
