<?xml version="1.0" encoding="utf-8"?>
<!-- Generator: Adobe Illustrator 19.2.1, SVG Export Plug-In . SVG Version: 6.00 Build 0)  -->
<svg version="1.1" id="Layer_1" xmlns="http://www.w3.org/2000/svg" xmlns:xlink="http://www.w3.org/1999/xlink" x="0px" y="0px"
	 viewBox="0 0 612 792" style="enable-background:new 0 0 612 792;" xml:space="preserve">
<style type="text/css">
	.st0{fill:#CFD1DB;stroke:#010101;stroke-width:0.25;stroke-miterlimit:10;}
	.st1{opacity:0.6;fill:#3A7FC2;stroke:#010101;stroke-miterlimit:10;enable-background:new    ;}
	.st2{fill:#3B52A3;stroke:#010101;stroke-miterlimit:10;}
	.st3{opacity:0.75;fill:#E6F6FD;stroke:#010101;stroke-width:0.25;stroke-miterlimit:10;enable-background:new    ;}
	.st4{opacity:0.4;fill:#B6DEF6;stroke:#010101;stroke-miterlimit:10;enable-background:new    ;}
	.st5{fill:#FFFFFF;stroke:#010101;stroke-width:0.25;stroke-miterlimit:10;}
	.st6{opacity:0.9;fill:#3B6BB4;stroke:#010101;stroke-miterlimit:10;enable-background:new    ;}
	.st7{fill:#0B0E10;}
	.st8{fill:#E6F6FD;}
</style>
<path class="st0" d="M164.4,221.8l0,29.1c0,1-0.8,1.8-1.8,1.8l-1.5,0c-1,0-1.8-0.8-1.8-1.8l0-29.1c0-1,0.8-1.8,1.8-1.8l1.5,0
	C163.6,220.1,164.4,220.9,164.4,221.8z"/>
<g>
	
		<rect x="182.2" y="262.4" transform="matrix(1 -1.133023e-03 1.133023e-03 1 -0.3966 0.3191)" class="st1" width="198.5" height="175.7"/>
	
		<rect x="190.3" y="413" transform="matrix(1 -1.133023e-03 1.133023e-03 1 -0.4779 0.2194)" class="st2" width="6.3" height="17.8"/>
	
		<rect x="190.3" y="389.1" transform="matrix(1 -1.133023e-03 1.133023e-03 1 -0.4508 0.2194)" class="st2" width="6.3" height="17.8"/>
	
		<rect x="190.2" y="365.3" transform="matrix(1 -1.133023e-03 1.133023e-03 1 -0.4238 0.2194)" class="st2" width="6.3" height="17.8"/>
	
		<rect x="190.2" y="341.4" transform="matrix(1 -1.133023e-03 1.133023e-03 1 -0.3967 0.2193)" class="st2" width="6.3" height="17.8"/>
	
		<rect x="190.2" y="317.6" transform="matrix(1 -1.133023e-03 1.133023e-03 1 -0.3698 0.2193)" class="st2" width="6.3" height="17.8"/>
	
		<rect x="190.2" y="293.8" transform="matrix(1 -1.133023e-03 1.133023e-03 1 -0.3428 0.2192)" class="st2" width="6.3" height="17.8"/>
	
		<rect x="190.1" y="269.9" transform="matrix(1 -1.133023e-03 1.133023e-03 1 -0.3157 0.2192)" class="st2" width="6.3" height="17.8"/>
</g>
<path class="st3" d="M170,232.2l0,16.4c0,2.2-1.8,4.1-4.1,4.1l-6.7,0c-2.2,0-4.1-1.8-4.1-4.1l0-16.4c0-2.2,1.8-4.1,4.1-4.1l6.7,0
	C168.2,228.1,170,230,170,232.2z"/>
<rect x="380.7" y="253" transform="matrix(1 -1.133023e-03 1.133023e-03 1 -0.3967 0.4682)" class="st4" width="64.7" height="194.6"/>
<rect x="116.6" y="253.3" transform="matrix(1 -1.133023e-03 1.133023e-03 1 -0.3972 0.1695)" class="st4" width="65.6" height="194.6"/>
<g>
	<path class="st0" d="M418.1,222.2l0,29.1c0,1-0.8,1.8-1.8,1.8l-1.5,0c-1,0-1.8-0.8-1.8-1.8l0-29.1c0-1,0.8-1.8,1.8-1.8l1.5,0
		C417.3,220.4,418.1,221.2,418.1,222.2z"/>
	<path class="st3" d="M423,232.6l0,16.4c0,2.2-1.8,4.1-4.1,4.1l-6.7,0c-2.2,0-4.1-1.8-4.1-4.1l0-16.4c0-2.2,1.8-4.1,4.1-4.1l6.7,0
		C421.1,228.5,423,230.3,423,232.6z"/>
	<path class="st5" d="M424.2,255.1L424.2,255.1c0,0.7-0.6,1.4-1.4,1.4l-14.5,0c-0.7,0-1.4-0.6-1.4-1.4l0,0c0-0.7,0.6-1.4,1.4-1.4
		l14.5,0C423.6,253.7,424.2,254.3,424.2,255.1z"/>
</g>
<path class="st6" d="M107.8,461l347.5-0.4L455.1,240l-347.5,0.4L107.8,461z M445.8,253.1l0.2,194.5L117.1,448l-0.2-194.5
	L445.8,253.1z"/>
<g>
	
		<rect x="361.7" y="243.8" transform="matrix(1 -1.133023e-03 1.133023e-03 1 -0.2783 0.4174)" class="st7" width="13.1" height="4.2"/>
	
		<rect x="366.2" y="239.4" transform="matrix(1 -1.133023e-03 1.133023e-03 1 -0.2785 0.4174)" class="st7" width="4.2" height="13.1"/>
</g>
<path class="st5" d="M171.4,254.1L171.4,254.1c0,0.7-0.6,1.4-1.4,1.4l-14.5,0c-0.7,0-1.4-0.6-1.4-1.4l0,0c0-0.7,0.6-1.4,1.4-1.4
	l14.5,0C170.7,252.7,171.4,253.3,171.4,254.1z"/>
<rect x="202.1" y="241" transform="matrix(1 -1.133023e-03 1.133023e-03 1 -0.2795 0.2311)" class="st7" width="3.5" height="11.7"/>
<rect x="182.3" y="438.1" transform="matrix(1 -1.133023e-03 1.133023e-03 1 -0.5017 0.3193)" class="st8" width="198.5" height="9.7"/>
<rect x="182.1" y="252.7" transform="matrix(1 -1.133023e-03 1.133023e-03 1 -0.2916 0.3189)" class="st8" width="198.5" height="9.7"/>
<rect x="107.8" y="253.4" transform="matrix(1 -1.133023e-03 1.133023e-03 1 -0.3972 0.1278)" class="st8" width="9.7" height="194.5"/>
</svg>
