<?xml version="1.0" encoding="utf-8"?>
<!-- Generator: Adobe Illustrator 19.2.1, SVG Export Plug-In . SVG Version: 6.00 Build 0)  -->
<svg version="1.1" id="Layer_1" xmlns="http://www.w3.org/2000/svg" xmlns:xlink="http://www.w3.org/1999/xlink" x="0px" y="0px"
	 viewBox="0 0 198.5 165.6" style="enable-background:new 0 0 198.5 165.6;" xml:space="preserve">
<style type="text/css">
	.st0{fill:#3B80C2;}
	.st1{opacity:0.6;fill:#3B80C2;stroke:#020202;stroke-miterlimit:10;enable-background:new    ;}
	.st2{opacity:0.55;}
	.st3{fill:#3C53A3;stroke:#020202;stroke-miterlimit:10;}
	.st4{opacity:0.29;enable-background:new    ;}
</style>
<g id="Lane6">
	<g id="weight8">
		<rect x="172.9" y="8.8" class="st0" width="15.6" height="3.2"/>
	</g>
	<g id="weight7">
		<rect x="172.9" y="8.8" class="st0" width="15.6" height="3.2"/>
	</g>
	<g id="weight6">
		<rect x="172.9" y="8.8" class="st0" width="15.6" height="3.2"/>
	</g>
	<g id="weight5">
		<rect x="172.9" y="8.8" class="st0" width="15.6" height="3.2"/>
	</g>
	<g id="weight4">
		<rect x="172.9" y="8.8" class="st0" width="15.6" height="3.2"/>
	</g>
	<g id="weight3">
		<rect x="172.9" y="8.8" class="st0" width="15.6" height="3.2"/>
	</g>
	<g id="weight2">
		<rect x="172.9" y="8.8" class="st0" width="15.6" height="3.2"/>
	</g>
	<g id="weight1">
		<rect x="172.9" y="8.8" class="st0" width="15.6" height="3.2"/>
	</g>
	<g id="weight0">
		<rect x="172.9" y="8.8" class="st0" width="15.6" height="3.2"/>
	</g>
</g>
<g id="Lane5">
	<g id="weight8_1_">
		<rect x="145.9" y="8.8" class="st0" width="15.6" height="3.2"/>
	</g>
	<g id="weight7_1_">
		<rect x="145.9" y="8.8" class="st0" width="15.6" height="3.2"/>
	</g>
	<g id="weight6_1_">
		<rect x="145.9" y="8.8" class="st0" width="15.6" height="3.2"/>
	</g>
	<g id="weight5_1_">
		<rect x="145.9" y="8.8" class="st0" width="15.6" height="3.2"/>
	</g>
	<g id="weight4_1_">
		<rect x="145.9" y="8.8" class="st0" width="15.6" height="3.2"/>
	</g>
	<g id="weight3_1_">
		<rect x="145.9" y="8.8" class="st0" width="15.6" height="3.2"/>
	</g>
	<g id="weight2_1_">
		<rect x="145.9" y="8.8" class="st0" width="15.6" height="3.2"/>
	</g>
	<g id="weight1_1_">
		<rect x="145.9" y="8.8" class="st0" width="15.6" height="3.2"/>
	</g>
	<g id="weight0_1_">
		<rect x="145.9" y="8.8" class="st0" width="15.6" height="3.2"/>
	</g>
</g>
<g id="Lane4">
	<g id="weight8_2_">
		<rect x="118.9" y="8.8" class="st0" width="15.6" height="3.2"/>
	</g>
	<g id="weight7_2_">
		<rect x="118.9" y="8.8" class="st0" width="15.6" height="3.2"/>
	</g>
	<g id="weight6_2_">
		<rect x="118.9" y="8.8" class="st0" width="15.6" height="3.2"/>
	</g>
	<g id="weight5_2_">
		<rect x="118.9" y="8.8" class="st0" width="15.6" height="3.2"/>
	</g>
	<g id="weight4_2_">
		<rect x="118.9" y="8.8" class="st0" width="15.6" height="3.2"/>
	</g>
	<g id="weight3_2_">
		<rect x="118.9" y="8.8" class="st0" width="15.6" height="3.2"/>
	</g>
	<g id="weight2_2_">
		<rect x="118.9" y="8.8" class="st0" width="15.6" height="3.2"/>
	</g>
	<g id="weight1_2_">
		<rect x="118.9" y="8.8" class="st0" width="15.6" height="3.2"/>
	</g>
	<g id="weight0_2_">
		<rect x="118.9" y="8.8" class="st0" width="15.6" height="3.2"/>
	</g>
</g>
<g id="Lane3">
	<g id="weight8_3_">
		<rect x="91.9" y="8.8" class="st0" width="15.6" height="3.2"/>
	</g>
	<g id="weight7_3_">
		<rect x="91.9" y="8.8" class="st0" width="15.6" height="3.2"/>
	</g>
	<g id="weight6_3_">
		<rect x="91.9" y="8.8" class="st0" width="15.6" height="3.2"/>
	</g>
	<g id="weight5_3_">
		<rect x="91.9" y="8.8" class="st0" width="15.6" height="3.2"/>
	</g>
	<g id="weight4_3_">
		<rect x="91.9" y="8.8" class="st0" width="15.6" height="3.2"/>
	</g>
	<g id="weight3_3_">
		<rect x="91.9" y="8.8" class="st0" width="15.6" height="3.2"/>
	</g>
	<g id="weight2_3_">
		<rect x="91.9" y="8.8" class="st0" width="15.6" height="3.2"/>
	</g>
	<g id="weight1_3_">
		<rect x="91.9" y="8.8" class="st0" width="15.6" height="3.2"/>
	</g>
	<g id="weight0_3_">
		<rect x="91.9" y="8.8" class="st0" width="15.6" height="3.2"/>
	</g>
</g>
<g id="Lane2">
	<g id="weight8_4_">
		<rect x="65.9" y="8.8" class="st0" width="15.6" height="3.2"/>
	</g>
	<g id="weight7_4_">
		<rect x="65.9" y="8.8" class="st0" width="15.6" height="3.2"/>
	</g>
	<g id="weight6_4_">
		<rect x="65.9" y="8.8" class="st0" width="15.6" height="3.2"/>
	</g>
	<g id="weight5_4_">
		<rect x="65.9" y="8.8" class="st0" width="15.6" height="3.2"/>
	</g>
	<g id="weight4_4_">
		<rect x="65.9" y="8.8" class="st0" width="15.6" height="3.2"/>
	</g>
	<g id="weight3_4_">
		<rect x="65.9" y="8.8" class="st0" width="15.6" height="3.2"/>
	</g>
	<g id="weight2_4_">
		<rect x="65.9" y="8.8" class="st0" width="15.6" height="3.2"/>
	</g>
	<g id="weight1_4_">
		<rect x="65.9" y="8.8" class="st0" width="15.6" height="3.2"/>
	</g>
	<g id="weight0_4_">
		<rect x="65.9" y="8.8" class="st0" width="15.6" height="3.2"/>
	</g>
</g>
<g id="Lane1">
	<g id="weight8_5_">
		<rect x="38.9" y="8.8" class="st0" width="15.6" height="3.2"/>
	</g>
	<g id="weight7_5_">
		<rect x="38.9" y="8.8" class="st0" width="15.6" height="3.2"/>
	</g>
	<g id="weight6_5_">
		<rect x="38.9" y="8.8" class="st0" width="15.6" height="3.2"/>
	</g>
	<g id="weight5_5_">
		<rect x="38.9" y="8.8" class="st0" width="15.6" height="3.2"/>
	</g>
	<g id="weight4_5_">
		<rect x="38.9" y="8.8" class="st0" width="15.6" height="3.2"/>
	</g>
	<g id="weight3_5_">
		<rect x="38.9" y="8.8" class="st0" width="15.6" height="3.2"/>
	</g>
	<g id="weight2_5_">
		<rect x="38.9" y="8.8" class="st0" width="15.6" height="3.2"/>
	</g>
	<g id="weight1_5_">
		<rect x="38.9" y="8.8" class="st0" width="15.6" height="3.2"/>
	</g>
	<g id="weight0_5_">
		<rect x="38.9" y="8.8" class="st0" width="15.6" height="3.2"/>
	</g>
</g>
<g id="Lane0">
	<g id="weight8_6_">
		<rect x="11.9" y="8.8" class="st0" width="15.6" height="3.2"/>
	</g>
	<g id="weight7_6_">
		<rect x="11.9" y="8.8" class="st0" width="15.6" height="3.2"/>
	</g>
	<g id="weight6_6_">
		<rect x="11.9" y="8.8" class="st0" width="15.6" height="3.2"/>
	</g>
	<g id="weight5_6_">
		<rect x="11.9" y="8.8" class="st0" width="15.6" height="3.2"/>
	</g>
	<g id="weight4_6_">
		<rect x="11.9" y="8.8" class="st0" width="15.6" height="3.2"/>
	</g>
	<g id="weight3_6_">
		<rect x="11.9" y="8.8" class="st0" width="15.6" height="3.2"/>
	</g>
	<g id="weight2_6_">
		<rect x="11.9" y="8.8" class="st0" width="15.6" height="3.2"/>
	</g>
	<g id="weight1_6_">
		<rect x="11.9" y="8.8" class="st0" width="15.6" height="3.2"/>
	</g>
	<g id="weight0_6_">
		<rect x="11.9" y="8.8" class="st0" width="15.6" height="3.2"/>
	</g>
</g>
<g>
	
		<rect x="0.1" y="0.2" transform="matrix(1 -1.393918e-03 1.393918e-03 1 -0.1153 0.1384)" class="st1" width="198.3" height="165.3"/>
	<g class="st2">
		
			<rect x="171.7" y="149.8" transform="matrix(1 -1.393918e-03 1.393918e-03 1 -0.2122 0.2535)" class="st3" width="20.1" height="5.2"/>
		
			<rect x="144.8" y="149.8" transform="matrix(1 -1.393918e-03 1.393918e-03 1 -0.2122 0.216)" class="st3" width="20.1" height="5.2"/>
		
			<rect x="117.9" y="149.8" transform="matrix(1 -1.393918e-03 1.393918e-03 1 -0.2123 0.1785)" class="st3" width="20.1" height="5.2"/>
		
			<rect x="91" y="149.8" transform="matrix(1 -1.393918e-03 1.393918e-03 1 -0.2123 0.141)" class="st3" width="20.1" height="5.2"/>
		
			<rect x="64.1" y="149.8" transform="matrix(1 -1.393918e-03 1.393918e-03 1 -0.2123 0.1035)" class="st3" width="20.1" height="5.2"/>
		
			<rect x="37.2" y="149.8" transform="matrix(1 -1.393918e-03 1.393918e-03 1 -0.2123 6.601069e-02)" class="st3" width="20.1" height="5.2"/>
		
			<rect x="10.3" y="149.8" transform="matrix(1 -1.393918e-03 1.393918e-03 1 -0.2124 2.851417e-02)" class="st3" width="20.1" height="5.2"/>
	</g>
</g>
<circle class="st0" cx="68.1" cy="-60.4" r="0"/>
<g id="dyeTrail6" class="st4">
	<rect x="171.3" y="15.8" class="st0" width="20.1" height="129.6"/>
</g>
<g id="dyeTrail5" class="st4">
	<rect x="144.3" y="15.8" class="st0" width="20.1" height="129.6"/>
</g>
<g id="dyeTrail4" class="st4">
	<rect x="117.3" y="15.8" class="st0" width="20.1" height="129.6"/>
</g>
<g id="dyeTrail3" class="st4">
	<rect x="90.3" y="15.8" class="st0" width="20.1" height="129.6"/>
</g>
<g id="dyeTrail2" class="st4">
	<rect x="64.3" y="15.8" class="st0" width="20.1" height="129.6"/>
</g>
<g id="dyeTrail1" class="st4">
	<rect x="37.3" y="15.8" class="st0" width="20.1" height="129.6"/>
</g>
<g id="dyeTrail0" class="st4">
	<rect x="10.3" y="15.8" class="st0" width="20.1" height="129.6"/>
</g>
</svg>
