<?xml version="1.0" encoding="utf-8"?>
<!-- Generator: Adobe Illustrator 19.2.1, SVG Export Plug-In . SVG Version: 6.00 Build 0)  -->
<svg version="1.1" id="Layer_1" xmlns="http://www.w3.org/2000/svg" xmlns:xlink="http://www.w3.org/1999/xlink" x="0px" y="0px"
	 viewBox="0 0 186.3 80" style="enable-background:new 0 0 186.3 80;" xml:space="preserve">
<style type="text/css">
	.st0{fill:#8D8D99;stroke:#010101;stroke-miterlimit:10;}
	.st1{fill:#989798;stroke:#020202;stroke-miterlimit:10;}
</style>
<path id="rect4992-4" class="st0" d="M136.1,73.4l-34.8,0.1C84,73.5,70,66.4,70,57.7V26.4c0-8.8,14-15.8,31.3-15.9l34.8-0.1
	c17.3,0,31.3,7.1,31.3,15.8l0.1,31.2C167.4,66.3,153.5,73.4,136.1,73.4z"/>
<path id="rect5002-4" class="st1" d="M55.7,10.5c-8,0.1-15.9,1.6-23.7,3.5c-4.9,1.3-9.8,2.8-14.6,4.5c-1.4,0.6-3,2-2.9,3.9
	c0.2,2,2.2,3.3,4,3.5c5.7,1.4,11.6,1.5,17.4,1.7c9.1,0.2,18.3-0.1,27.5-0.3c5.4-0.3,11-1.1,15.8-3.7c2.1-1.9,2.3-5.4,1.1-7.8
	c-1.1-1.9-3.3-2.7-5.3-3.1C68.9,10.8,62.3,10.5,55.7,10.5z"/>
<path class="st1" d="M168.8,29.2H68.6c-4.1,0-7.5-3.4-7.5-7.5v-5.2c0-4.1,3.4-7.5,7.5-7.5h100.3c4.1,0,7.5,3.4,7.5,7.5v5.2
	C176.4,25.9,173,29.2,168.8,29.2z"/>
</svg>
