<?xml version="1.0" encoding="utf-8"?>
<!-- Generator: Adobe Illustrator 19.2.1, SVG Export Plug-In . SVG Version: 6.00 Build 0)  -->
<svg version="1.1" id="Layer_1" xmlns="http://www.w3.org/2000/svg" xmlns:xlink="http://www.w3.org/1999/xlink" x="0px" y="0px"
	 viewBox="0 0 165.5 285.4" style="enable-background:new 0 0 165.5 285.4;" xml:space="preserve">
<style type="text/css">
	.st0{fill:#2E4EA2;}
	.st1{opacity:0.5;fill:#E6E6E5;stroke:#010101;stroke-miterlimit:10;enable-background:new    ;}
	.st2{opacity:0.75;fill:#989898;stroke:#010101;stroke-miterlimit:10;enable-background:new    ;}
	.st3{fill:#989798;stroke:#020202;stroke-miterlimit:10;}
	.st4{fill:#989898;stroke:#010101;stroke-miterlimit:10;}
</style>
<path class="st0" d="M147.1,212.8L147.1,212.8L147.1,212.8c0-6.6-20.2-11.9-45-11.9c-24.9,0-45,5.3-45,11.9h-0.3h0.3
	c-0.1,16.1,33.1,66.8,45,66.8S147.2,228.9,147.1,212.8L147.1,212.8L147.1,212.8z"/>
<path id="rect3336_1_" class="st1" d="M54,5.2v204.4h0.3c-0.1,16.9,34.7,70,47.2,70s47.3-53.1,47.2-70h0.3V5.2H54z"/>
<path id="rect3360_1_" class="st2" d="M54,68.1h50.2v8.7H54V68.1z"/>
<path id="rect3362_1_" class="st2" d="M55,119.9h48.2v8.7H55V119.9z"/>
<path id="rect5002-4_1_" class="st3" d="M34.8,4.1c-6,0-10.2,0.5-16.2,1.9c-3.8,0.8-8.5,1.2-12.2,2.5C5.3,8.9,4,10,4.2,11.4
	c0.1,1.5,1.6,2.6,3,2.7c4.3,1.1,8.8,1.4,13.2,1.6c7,0.3,14,0.4,21,0.3c4.1-0.1,8.4-0.7,12.1-2.5c1.6-1.4,1.9-4.1,1-5.9
	c-0.8-1.4-2.5-2.1-4-2.5C45.7,3.6,38.8,4.2,34.8,4.1z"/>
<path class="st4" d="M152,20.2H51.8c-4.1,0-7.5-3.4-7.5-7.5V7.5c0-4.1,3.4-7.5,7.5-7.5h100.3c4.1,0,7.5,3.4,7.5,7.5v5.2
	C159.6,16.9,156.2,20.2,152,20.2z"/>
</svg>
