<?xml version="1.0" encoding="utf-8"?>
<!-- Generator: Adobe Illustrator 19.2.1, SVG Export Plug-In . SVG Version: 6.00 Build 0)  -->
<svg version="1.1" id="Layer_1" xmlns="http://www.w3.org/2000/svg" xmlns:xlink="http://www.w3.org/1999/xlink" x="0px" y="0px"
	 viewBox="0 0 151.6 281.8" style="enable-background:new 0 0 151.6 281.8;" xml:space="preserve">
<style type="text/css">
	.st0{fill:#818AC4;}
	.st1{opacity:0.65;fill:#FBB040;stroke:#010101;stroke-miterlimit:10;}
	.st2{opacity:0.6;fill:#FBB040;stroke:#010101;stroke-miterlimit:10;enable-background:new    ;}
	.st3{fill:#FBB040;stroke:#010101;stroke-miterlimit:10;}
</style>
<path class="st0" d="M140.3,214.9L140.3,214.9L140.3,214.9c0-6.6-20.2-11.8-45.1-11.7c-24.9,0.1-45,5.5-45,12.1l-0.3,0l0.3,0
	c0,16.1,33.3,66.7,45.3,66.7C107.4,281.8,140.4,231,140.3,214.9L140.3,214.9L140.3,214.9z"/>
<path id="rect4992-4" class="st1" d="M108,59.7l-28.6,0c-14.2,0-25.7-5.8-25.7-13l0-25.6c0-7.2,11.5-13,25.7-13l28.6,0
	c14.2,0,25.7,5.8,25.7,13l0,25.6C133.7,53.9,122.2,59.7,108,59.7z"/>
<path id="path4980-6"  class="st2" d="M47.3,14.4v199.2h0.3
	c-0.1,16.5,35,68.2,47.6,68.2s47.7-51.8,47.6-68.2h0.3V14.4L47.3,14.4z"/>
<path id="path4984-5" class="st3" d="M49.6,69.2h50.6v8.4H49.6V69.2z"
	/>
<path id="path4986-9"  class="st3" d="M49.6,115.6h48.6v8.4H49.6V115.6
	z"/>
<path id="rect5002-4" class="st3" d="M32.9,4C26.5,4.1,20.2,5.2,14,6.8C10,7.8,6.1,9,2.3,10.4
	C1.1,10.9-0.1,12,0,13.5c0.2,1.6,1.8,2.7,3.2,2.8c4.5,1.1,9.2,1.2,13.9,1.4c7.3,0.2,14.7,0,22-0.2c4.3-0.3,8.8-0.9,12.6-3
	c1.7-1.5,1.9-4.3,0.9-6.2c-0.9-1.5-2.6-2.1-4.2-2.5C43.4,4.2,38.1,4,32.9,4z"/>
<path class="st3" d="M143.5,20.7H46.8c-4.4,0-8.1-3.6-8.1-8.1V8.1c0-4.4,3.6-8.1,8.1-8.1l96.6,0c4.4,0,8.1,3.6,8.1,8.1v4.6
	C151.6,17.1,147.9,20.7,143.5,20.7z"/>
</svg>
