<?xml version="1.0" encoding="utf-8"?>
<!-- Generator: Adobe Illustrator 19.2.1, SVG Export Plug-In . SVG Version: 6.00 Build 0)  -->
<svg version="1.1" id="Layer_1" xmlns="http://www.w3.org/2000/svg" xmlns:xlink="http://www.w3.org/1999/xlink" x="0px" y="0px"
	 viewBox="0 0 270.2 308.3" style="enable-background:new 0 0 270.2 308.3;" xml:space="preserve">
<style type="text/css">
	.st0{fill:#818AC4;}
	.st1{opacity:0.6;fill:#AF529F;stroke:#010101;stroke-width:1.5;stroke-miterlimit:10;enable-background:new    ;}
	.st2{fill:#AF529F;stroke:#010101;stroke-width:1.5;stroke-miterlimit:10;}
</style>
<path class="st0" d="M257.2,241.4L257.2,241.4L257.2,241.4c0-6.6-20.2-11.9-45-11.9c-24.9,0-45,5.3-45,11.9h-0.3h0.3
	c-0.1,16.1,33.1,66.8,45,66.8C224.1,308.3,257.3,257.6,257.2,241.4L257.2,241.4L257.2,241.4z"/>
<path id="rect3336_1_" class="st1" d="M164.6,33.9v204.4h0.3
	c-0.1,16.9,34.7,70,47.2,70s47.3-53.1,47.2-70h0.3V33.9L164.6,33.9z"/>
<path id="rect3360_1_"  class="st2" d="M164.6,96.8h50.2v8.7h-50.2
	V96.8z"/>
<path id="rect3362_1_"  class="st2" d="M165.6,148.6h48.2v8.7h-48.2
	V148.6z"/>
<path id="rect3518_1_"  class="st2" d="M164.4,33.9c-13.9,0.5-27.4,5.7-40.9,10.2
	c-9.7-5.3-20.2-7.3-30.5-8.3c-0.3,8.7,5.9,16.2,11.9,14.1c6.6,0.4,14.5,0.3,20,3.8c1.9-0.8,5.7-2.8,8.7-3c9.9-1.3,20-1,29.9-1.9
	c3.4,0.2,5.3-4,4.9-8.5C168.4,37,166.9,33.4,164.4,33.9L164.4,33.9z"/>
<ellipse id="path3524_1_" class="st2" cx="54.1" cy="44.4" rx="51.2" ry="15.7"/>
<path id="rect3542_1_" class="st2" d="M40.4,0h28.4c14.1,0,25.5,5.2,25.5,11.6v22.8c0,6.4-11.4,11.6-25.5,11.6H40.4
	c-14.1,0-25.5-5.2-25.5-11.6V11.6C14.9,5.2,26.3,0,40.4,0z"/>
<path class="st2" d="M262.7,48.9H162.4c-4.1,0-7.5-3.4-7.5-7.5v-5.2c0-4.1,3.4-7.5,7.5-7.5h100.3c4.1,0,7.5,3.4,7.5,7.5v5.2
	C270.2,45.6,266.8,48.9,262.7,48.9z"/>
</svg>
