<?xml version="1.0" encoding="utf-8"?>
<!-- Generator: Adobe Illustrator 19.2.1, SVG Export Plug-In . SVG Version: 6.00 Build 0)  -->
<svg version="1.1" id="Layer_1" xmlns="http://www.w3.org/2000/svg" xmlns:xlink="http://www.w3.org/1999/xlink" x="0px" y="0px"
	 viewBox="0 0 574.3 222.3" style="enable-background:new 0 0 574.3 222.3;" xml:space="preserve">
<style type="text/css">
	.st0{fill:#F1697A;stroke:#020202;stroke-width:1.5;stroke-miterlimit:10;}
	.st1{opacity:0.6;fill:#F1697A;stroke:#020202;stroke-width:1.5;stroke-miterlimit:10;enable-background:new    ;}
</style>
<path class="st0" d="M287,135.2V87c0-3.3,2-6,4.5-6l75.4-13.8c2.5,0,4.5,2.7,4.5,6v69.1c0,3.3-2,6-4.5,6l-75.4-7.2
	C289.1,141.2,287,138.5,287,135.2z"/>
<circle class="st0" cx="466.5" cy="107.8" r="107.8"/>
<circle class="st1" cx="466.5" cy="107.8" r="90.5"/>
<path class="st0" d="M287.3,87.1v48.2c0,3.3-2,6-4.5,6l-75.4,13.8c-2.5,0-4.5-2.7-4.5-6l0-69.1c0-3.3,2-6,4.5-6l75.4,7.2
	C285.2,81.1,287.3,83.8,287.3,87.1z"/>
<circle class="st0" cx="107.8" cy="114.5" r="107.8"/>
<circle class="st1" cx="107.8" cy="114.5" r="90.5"/>
</svg>
