<?xml version="1.0" encoding="utf-8"?>
<!-- Generator: Adobe Illustrator 22.1.0, SVG Export Plug-In . SVG Version: 6.00 Build 0)  -->
<svg version="1.1" id="Layer_1" xmlns="http://www.w3.org/2000/svg" xmlns:xlink="http://www.w3.org/1999/xlink" x="0px" y="0px"
	 viewBox="0 0 186.7 307.8" style="enable-background:new 0 0 186.7 307.8;" xml:space="preserve">
<style type="text/css">
	.st0{fill:#818AC4;}
	.st1{opacity:0.6;fill:#F1697A;stroke:#020202;stroke-width:1.5;stroke-miterlimit:10;enable-background:new    ;}
	.st2{opacity:0.59;fill:#62BF7A;stroke:#020202;stroke-width:1.5;stroke-miterlimit:10;}
	.st3{fill:#F1697A;stroke:#020202;stroke-width:1.5;stroke-miterlimit:10;}
</style>
<path class="st0" d="M159.4,226.6L159.4,226.6L159.4,226.6c0-6.6-20.2-11.8-45.1-11.7s-45,5.5-45,12.1H69h0.3
	c0,16.1,33.3,66.7,45.3,66.7C126.5,293.5,159.5,242.7,159.4,226.6L159.4,226.6L159.4,226.6z"/>
<path id="path4980-6" class="st1" d="M66.4,26.1v199.2h0.3c-0.1,16.5,35,68.2,47.6,68.2s47.7-51.8,47.6-68.2h0.3V26.1H66.4z"/>
<path id="ellipse4988-9_1_" class="st2" d="M159.8,19.8c0,7-20.6,12.6-46.1,12.6s-46.1-5.7-46.1-12.6"/>
<path id="path4984-5" class="st3" d="M68.7,80.9h50.6v8.4H68.7V80.9z"/>
<path id="path4986-9" class="st3" d="M68.7,127.3h48.6v8.4H68.7V127.3z"/>
<path id="rect5002-4" class="st3" d="M44.9,15.1c-6.4,0.1-12.7,1.2-18.9,2.8c-4,1-7.9,2.2-11.7,3.6c-1.2,0.5-2.4,1.6-2.3,3.1
	c0.2,1.6,1.8,2.7,3.2,2.8c4.5,1.1,9.2,1.2,13.9,1.4c7.3,0.2,14.7,0,22-0.2c4.3-0.3,8.8-0.9,12.6-3c1.7-1.5,1.9-4.3,0.9-6.2
	c-0.9-1.5-2.6-2.1-4.2-2.5C55.4,15.3,50.1,15.1,44.9,15.1z"/>
<path class="st3" d="M162.6,32.4H65.9c-4.4,0-8.1-3.6-8.1-8.1v-4.5c0-4.4,3.6-8.1,8.1-8.1h96.6c4.4,0,8.1,3.6,8.1,8.1v4.6
	C170.7,28.8,167,32.4,162.6,32.4z"/>
</svg>
