<?xml version="1.0" encoding="utf-8"?>
<!-- Generator: Adobe Illustrator 19.2.1, SVG Export Plug-In . SVG Version: 6.00 Build 0)  -->
<svg version="1.1" id="Layer_1" xmlns="http://www.w3.org/2000/svg" xmlns:xlink="http://www.w3.org/1999/xlink" x="0px" y="0px"
	 viewBox="0 0 151.5 59.7" style="enable-background:new 0 0 151.5 59.7;" xml:space="preserve">
<style type="text/css">
	.st0{opacity:0.65;fill:#E5E97E;stroke:#020202;stroke-width:1.5;stroke-miterlimit:10;enable-background:new    ;}
	.st1{fill:#E5E97E;stroke:#020202;stroke-width:1.5;stroke-miterlimit:10;}
</style>
<path id="rect4992-4" class="st0" d="M108,59.7H79.4c-14.2,0-25.7-5.8-25.7-13V21.1c0-7.2,11.5-13,25.7-13H108
	c14.2,0,25.7,5.8,25.7,13v25.6C133.7,53.9,122.2,59.7,108,59.7z"/>
<path id="rect5002-4" class="st1" d="M32.9,4C26.5,4.1,20.2,5.2,14,6.8c-4,1-7.9,2.2-11.7,3.6C1.1,10.9-0.1,12,0,13.5
	c0.2,1.6,1.8,2.7,3.2,2.8c4.5,1.1,9.2,1.2,13.9,1.4c7.3,0.2,14.7,0,22-0.2c4.3-0.3,8.8-0.9,12.6-3c1.7-1.5,1.9-4.3,0.9-6.2
	c-0.9-1.5-2.6-2.1-4.2-2.5C43.4,4.2,38.1,4,32.9,4z"/>
<path class="st1" d="M143.5,20.7H46.8c-4.4,0-8.1-3.6-8.1-8.1V8.1c0-4.4,3.6-8.1,8.1-8.1h96.6c4.4,0,8.1,3.6,8.1,8.1v4.6
	C151.6,17.1,147.9,20.7,143.5,20.7z"/>
</svg>
