<?xml version="1.0" encoding="utf-8"?>
<!-- Generator: Adobe Illustrator 19.2.1, SVG Export Plug-In . SVG Version: 6.00 Build 0)  -->
<svg version="1.1" id="Layer_1" xmlns="http://www.w3.org/2000/svg" xmlns:xlink="http://www.w3.org/1999/xlink" x="0px" y="0px"
	 viewBox="0 0 101.2 87.6" style="enable-background:new 0 0 101.2 87.6;" xml:space="preserve">
<style type="text/css">
	.st0{fill:none;}
	.st1{fill:#131313;}
	.st2{fill:#202020;}
	.st3{fill:url(#SVGID_2_);}
	.st4{fill:none;stroke:#000000;stroke-miterlimit:10;}
	.st5{fill:none;stroke:#58595B;stroke-width:3;stroke-miterlimit:10;}
	.st6{enable-background:new    ;}
	.st7{fill:#59595B;}
</style>
<pattern  y="87.6" width="240" height="696" patternUnits="userSpaceOnUse" id="SVGID_1_" viewBox="0 -696 240 696" style="overflow:visible;">
	<g>
		<rect y="-696" class="st0" width="240" height="696"/>
		<g>
			<rect y="-696" class="st0" width="240" height="696"/>
			<g>
				<g>
					<g>
						<rect y="-696" class="st1" width="16.7" height="696"/>
						<rect x="15" y="-696" class="st2" width="18.9" height="696"/>
					</g>
				</g>
				<g>
					<g>
						<g>
							<rect x="30" y="-696" class="st1" width="16.7" height="696"/>
							<rect x="45" y="-696" class="st2" width="18.4" height="696"/>
						</g>
					</g>
				</g>
			</g>
			<g>
				<g>
					<g>
						<rect x="60" y="-696" class="st1" width="16.7" height="696"/>
						<rect x="75" y="-696" class="st2" width="18.9" height="696"/>
					</g>
				</g>
				<g>
					<g>
						<g>
							<rect x="90" y="-696" class="st1" width="16.7" height="696"/>
							<rect x="105" y="-696" class="st2" width="19.1" height="696"/>
						</g>
					</g>
				</g>
			</g>
			<g>
				<g>
					<g>
						<rect x="120" y="-696" class="st1" width="16.7" height="696"/>
						<rect x="135" y="-696" class="st2" width="18.9" height="696"/>
					</g>
				</g>
				<g>
					<g>
						<g>
							<rect x="150" y="-696" class="st1" width="16.7" height="696"/>
							<rect x="165" y="-696" class="st2" width="18.4" height="696"/>
						</g>
					</g>
				</g>
			</g>
			<g>
				<g>
					<g>
						<rect x="180" y="-696" class="st1" width="16.7" height="696"/>
						<rect x="195" y="-696" class="st2" width="18.9" height="696"/>
					</g>
				</g>
				<g>
					<g>
						<g>
							<rect x="210" y="-696" class="st1" width="16.7" height="696"/>
							<rect x="225" y="-696" class="st2" width="15" height="696"/>
						</g>
					</g>
				</g>
			</g>
		</g>
	</g>
</pattern>
<g>
	<pattern  id="SVGID_2_" xlink:href="#SVGID_1_" patternTransform="matrix(0.6124 0.6124 0.6124 -0.6124 -12394.8467 -21215.3281)">
	</pattern>
	<polygon class="st3" points="25.6,87.1 0.6,43.8 25.6,0.5 75.6,0.5 100.6,43.8 75.6,87.1 	"/>
	<polygon class="st4" points="25.6,87.1 0.6,43.8 25.6,0.5 75.6,0.5 100.6,43.8 75.6,87.1 	"/>
</g>
<polygon class="st5" points="30.6,78.4 10.6,43.8 30.6,9.2 70.6,9.2 90.6,43.8 70.6,78.4 "/>
<g class="st6">
	<path class="st7" d="M34.1,34.7c0-2.6,0.4-5,1.2-7.2c0.8-2.2,1.9-4,3.4-5.5c1.5-1.5,3.3-2.7,5.5-3.6c2.1-0.8,4.5-1.3,7.1-1.3
		c2.2,0,4.2,0.3,6.1,1c1.9,0.6,3.5,1.6,5,2.8c1.4,1.2,2.5,2.7,3.3,4.6c0.8,1.8,1.2,3.9,1.2,6.2c0,1.7-0.2,3.1-0.5,4.3
		c-0.4,1.2-0.8,2.3-1.4,3.2c-0.6,0.9-1.3,1.7-2,2.4c-0.8,0.7-1.5,1.4-2.3,2c-0.9,0.8-1.7,1.5-2.5,2.2c-0.8,0.7-1.4,1.5-2,2.4
		c-0.6,0.9-1,1.9-1.3,3.1c-0.3,1.2-0.5,2.7-0.5,4.4h-7.7c0-2.1,0.1-3.9,0.3-5.3c0.2-1.5,0.6-2.7,1-3.8c0.5-1.1,1.1-2.1,1.8-2.9
		c0.7-0.8,1.5-1.7,2.5-2.5c0.8-0.7,1.5-1.3,2.2-1.9c0.7-0.6,1.3-1.2,1.9-1.9c0.5-0.7,1-1.5,1.3-2.3c0.3-0.9,0.5-1.9,0.5-3.1
		c0-1.4-0.3-2.7-0.8-3.7c-0.5-1-1.1-1.9-1.8-2.5c-0.7-0.6-1.5-1.1-2.3-1.4c-0.8-0.3-1.5-0.4-2.2-0.4c-3,0-5.2,1-6.6,2.9
		c-1.4,1.9-2.1,4.5-2.1,7.8H34.1z M45.6,60.7h9.6v9h-9.6V60.7z"/>
</g>
</svg>
