<?xml version="1.0" encoding="utf-8"?>
<!-- Generator: Adobe Illustrator 19.2.1, SVG Export Plug-In . SVG Version: 6.00 Build 0)  -->
<svg version="1.1" id="Layer_1" xmlns="http://www.w3.org/2000/svg" xmlns:xlink="http://www.w3.org/1999/xlink" x="0px" y="0px"
	 viewBox="0 0 101.2 87.6" style="enable-background:new 0 0 101.2 87.6;" xml:space="preserve">
<style type="text/css">
	.st0{fill:none;}
	.st1{fill:#131313;}
	.st2{fill:#202020;}
	.st3{fill:url(#SVGID_2_);}
	.st4{fill:none;stroke:#000000;stroke-miterlimit:10;}
	.st5{fill:none;stroke:#BCBEC0;stroke-width:3;stroke-miterlimit:10;}
	.st6{enable-background:new    ;}
	.st7{fill:#BCBEC0;}
</style>
<pattern  y="87.6" width="240" height="696" patternUnits="userSpaceOnUse" id="SVGID_1_" viewBox="0 -696 240 696" style="overflow:visible;">
	<g>
		<rect y="-696" class="st0" width="240" height="696"/>
		<g>
			<rect y="-696" class="st0" width="240" height="696"/>
			<g>
				<g>
					<g>
						<rect y="-696" class="st1" width="16.7" height="696"/>
						<rect x="15" y="-696" class="st2" width="18.9" height="696"/>
					</g>
				</g>
				<g>
					<g>
						<g>
							<rect x="30" y="-696" class="st1" width="16.7" height="696"/>
							<rect x="45" y="-696" class="st2" width="18.4" height="696"/>
						</g>
					</g>
				</g>
			</g>
			<g>
				<g>
					<g>
						<rect x="60" y="-696" class="st1" width="16.7" height="696"/>
						<rect x="75" y="-696" class="st2" width="18.9" height="696"/>
					</g>
				</g>
				<g>
					<g>
						<g>
							<rect x="90" y="-696" class="st1" width="16.7" height="696"/>
							<rect x="105" y="-696" class="st2" width="19.1" height="696"/>
						</g>
					</g>
				</g>
			</g>
			<g>
				<g>
					<g>
						<rect x="120" y="-696" class="st1" width="16.7" height="696"/>
						<rect x="135" y="-696" class="st2" width="18.9" height="696"/>
					</g>
				</g>
				<g>
					<g>
						<g>
							<rect x="150" y="-696" class="st1" width="16.7" height="696"/>
							<rect x="165" y="-696" class="st2" width="18.4" height="696"/>
						</g>
					</g>
				</g>
			</g>
			<g>
				<g>
					<g>
						<rect x="180" y="-696" class="st1" width="16.7" height="696"/>
						<rect x="195" y="-696" class="st2" width="18.9" height="696"/>
					</g>
				</g>
				<g>
					<g>
						<g>
							<rect x="210" y="-696" class="st1" width="16.7" height="696"/>
							<rect x="225" y="-696" class="st2" width="15" height="696"/>
						</g>
					</g>
				</g>
			</g>
		</g>
	</g>
</pattern>
<g>
	<pattern  id="SVGID_2_" xlink:href="#SVGID_1_" patternTransform="matrix(0.6124 0.6124 0.6124 -0.6124 -18748.7578 -31501.5664)">
	</pattern>
	<polygon class="st3" points="25.6,87.1 0.6,43.8 25.6,0.5 75.6,0.5 100.6,43.8 75.6,87.1 	"/>
	<polygon class="st4" points="25.6,87.1 0.6,43.8 25.6,0.5 75.6,0.5 100.6,43.8 75.6,87.1 	"/>
</g>
<polygon class="st5" points="30.6,78.4 10.6,43.8 30.6,9.2 70.6,9.2 90.6,43.8 70.6,78.4 "/>
<g class="st6">
	<path class="st7" d="M45.8,60.7h9.6v9h-9.6V60.7z M46.2,18.5h9v14.8l-2.4,22.2h-4.2l-2.4-22.2V18.5z"/>
</g>
</svg>
