<?xml version="1.0" encoding="utf-8"?>
<!-- Generator: Adobe Illustrator 19.2.1, SVG Export Plug-In . SVG Version: 6.00 Build 0)  -->
<svg version="1.1" id="Layer_1" xmlns="http://www.w3.org/2000/svg" xmlns:xlink="http://www.w3.org/1999/xlink" x="0px" y="0px"
	 viewBox="0 0 220.6 347.5" style="enable-background:new 0 0 220.6 347.5;" xml:space="preserve">
<style type="text/css">
	.st0{opacity:0.6;fill:#397EC1;stroke:#000000;stroke-miterlimit:10;enable-background:new    ;}
	.st1{fill:#3A51A3;stroke:#000000;stroke-miterlimit:10;}
	.st2{opacity:0.4;fill:#B5DEF6;stroke:#000000;stroke-miterlimit:10;enable-background:new    ;}
	.st3{opacity:0.5;fill:#054B56;stroke:#000000;stroke-miterlimit:10;enable-background:new    ;}
	.st4{fill:#FFFFFF;stroke:#000000;stroke-miterlimit:10;}
</style>
<g>
	<rect x="13" y="74.5" class="st0" width="194.6" height="198.5"/>
	<rect x="21.2" y="82.4" class="st1" width="19.7" height="6.3"/>
	<rect x="47.6" y="82.4" class="st1" width="19.7" height="6.3"/>
	<rect x="74" y="82.4" class="st1" width="19.7" height="6.3"/>
	<rect x="100.4" y="82.4" class="st1" width="19.7" height="6.3"/>
	<rect x="126.8" y="82.4" class="st1" width="19.7" height="6.3"/>
	<rect x="153.2" y="82.4" class="st1" width="19.7" height="6.3"/>
	<rect x="179.6" y="82.4" class="st1" width="19.7" height="6.3"/>
</g>
<rect x="13" y="273" class="st2" width="194.6" height="64.7"/>
<rect x="13" y="8.8" class="st2" width="194.6" height="65.6"/>
<path class="st3" d="M0,0v347.5h220.6V0H0z M207.6,338.2H13V9.3h194.5v328.9H207.6z"/>
<rect y="74.5" class="st4" width="13" height="198.5"/>
<rect x="208" y="74.5" class="st4" width="13" height="198.5"/>
</svg>
